<?xml version="1.0" encoding="utf-8"?>
<!-- Generator: Adobe Illustrator 23.0.1, SVG Export Plug-In . SVG Version: 6.00 Build 0)  -->
<svg version="1.1" id="Layer_1" xmlns="http://www.w3.org/2000/svg" xmlns:xlink="http://www.w3.org/1999/xlink" x="0px" y="0px"
	 viewBox="0 0 20 20" style="enable-background:new 0 0 20 20;" xml:space="preserve">
<style type="text/css">
	.ultaaddons-svg-icon-bold{fill:#495157;}
</style>
<g>
	<path class="ultaaddons-svg-icon-bold" d="M9.92,0.01c-0.03,0-0.06,0-0.09,0c-0.15,0-0.3,0.01-0.45,0.02C5.76,0.25,2.67,2.4,1.11,5.46
		C2.2,4.39,3.58,3.8,5,3.69C6.75,3.56,8.54,4.17,9.87,5.5c0.27,0.27,0.51,0.56,0.72,0.87c1.29,1.86,4.21,0.97,4.23-1.29
		c0-0.02,0-0.04,0-0.06C14.83,2.28,12.64,0.06,9.92,0.01z"/>
	<path class="st0" d="M0,10.08c0,0.03,0,0.06,0,0.09c0,0.15,0.01,0.3,0.02,0.45c0.22,3.62,2.37,6.71,5.43,8.27
		C4.38,17.81,3.79,16.42,3.69,15c-0.13-1.75,0.47-3.54,1.81-4.87C5.77,9.86,6.06,9.62,6.36,9.4C8.22,8.12,7.33,5.2,5.07,5.17
		c-0.02,0-0.04,0-0.06,0C2.27,5.17,0.05,7.36,0,10.08z"/>
	<path class="st0" d="M20,9.91c0-0.03,0-0.06,0-0.09c0-0.15-0.01-0.3-0.02-0.45c-0.22-3.62-2.37-6.71-5.43-8.27
		c1.07,1.09,1.66,2.48,1.76,3.89c0.13,1.75-0.47,3.54-1.81,4.87c-0.27,0.27-0.56,0.51-0.87,0.72c-1.86,1.29-0.97,4.21,1.29,4.23
		c0.02,0,0.04,0,0.06,0C17.73,14.82,19.95,12.63,20,9.91z"/>
	<path class="st0" d="M10.1,19.99c0.03,0,0.06,0,0.09,0c0.15,0,0.3-0.01,0.45-0.02c3.62-0.22,6.71-2.37,8.27-5.43
		c-1.09,1.07-2.48,1.66-3.89,1.76c-1.75,0.13-3.54-0.47-4.87-1.81c-0.27-0.27-0.51-0.56-0.72-0.87c-1.29-1.86-4.21-0.97-4.23,1.29
		c0,0.02,0,0.04,0,0.06C5.18,17.72,7.37,19.94,10.1,19.99z"/>
</g>
</svg>
