<?xml version="1.0" encoding="utf-8"?>
<!-- Generator: Adobe Illustrator 23.0.1, SVG Export Plug-In . SVG Version: 6.00 Build 0)  -->
<svg version="1.1" id="Layer_1" xmlns="http://www.w3.org/2000/svg" xmlns:xlink="http://www.w3.org/1999/xlink" x="0px" y="0px"
	 viewBox="0 0 20 20" style="enable-background:new 0 0 20 20;" xml:space="preserve">
<style type="text/css">
    .ultraaddons-svg-black-1{fill:#cac8c8;}
	.ultraaddons-svg-black-2{fill:#9c27b0;}
</style>
<g>
	<path class="ultraaddons-svg-black-1" d="M0.96,6.37C0.96,6.37,0.96,6.37,0.96,6.37C0.96,6.37,0.96,6.37,0.96,6.37C0.96,6.37,0.96,6.37,0.96,6.37
		c0.01-0.01,0.02-0.03,0.03-0.04c0.96-1.18,2.39-1.97,3.99-2.1C5.14,4.21,5.3,4.2,5.46,4.2c0.34,0,0.67,0.03,1,0.09
		C8.3,4.61,9.84,5.8,10.64,7.42c0.67,1.36,2.51,1.54,3.4,0.39c0,0,0,0,0,0c0.06-0.08,0.11-0.16,0.16-0.25c0,0,0,0,0,0
		c0.31-0.5,0.52-1.08,0.59-1.69c0.04-0.25,0.06-0.51,0.06-0.78c0-2.73-2.2-4.95-4.93-4.98c-0.09,0-0.19,0-0.28,0.01
		c-0.01,0-0.01,0-0.02,0C6.65,0.23,4,1.65,2.25,3.82c-0.75,0.93-1.34,2-1.72,3.16C0.66,6.76,0.8,6.56,0.96,6.37
		C0.96,6.37,0.96,6.37,0.96,6.37z"/>
	<path class="ultraaddons-svg-black-2" d="M6.31,19.11C6.31,19.11,6.31,19.11,6.31,19.11C6.31,19.11,6.31,19.11,6.31,19.11
		C6.31,19.11,6.31,19.11,6.31,19.11c-0.01-0.01-0.03-0.02-0.04-0.03c-1.18-0.96-1.97-2.39-2.1-3.99c-0.01-0.16-0.02-0.32-0.02-0.48
		c0-0.34,0.03-0.67,0.09-1c0.32-1.84,1.51-3.38,3.13-4.18c1.36-0.67,1.54-2.51,0.39-3.4c0,0,0,0,0,0C7.66,5.96,7.58,5.91,7.5,5.86
		c0,0,0,0,0,0c-0.5-0.31-1.08-0.52-1.69-0.59C5.55,5.22,5.29,5.2,5.03,5.2c-2.73,0-4.95,2.2-4.98,4.93c0,0.09,0,0.19,0.01,0.28
		c0,0.01,0,0.01,0,0.02c0.11,2.98,1.52,5.63,3.69,7.38c0.93,0.75,2,1.34,3.16,1.72C6.7,19.41,6.5,19.26,6.31,19.11
		C6.31,19.11,6.31,19.11,6.31,19.11z"/>
	<path class="ultraaddons-svg-black-1" d="M19.07,13.77C19.07,13.77,19.07,13.77,19.07,13.77C19.07,13.76,19.07,13.76,19.07,13.77
		C19.07,13.76,19.07,13.76,19.07,13.77c-0.01,0.01-0.02,0.03-0.03,0.04c-0.96,1.18-2.39,1.97-3.99,2.1
		c-0.16,0.01-0.32,0.02-0.48,0.02c-0.34,0-0.67-0.03-1-0.09c-1.84-0.32-3.38-1.51-4.18-3.13c-0.67-1.36-2.51-1.54-3.4-0.39
		c0,0,0,0,0,0c-0.06,0.08-0.11,0.16-0.16,0.25c0,0,0,0,0,0c-0.31,0.5-0.52,1.08-0.59,1.69c-0.04,0.25-0.06,0.51-0.06,0.78
		c0,2.73,2.2,4.95,4.93,4.98c0.09,0,0.19,0,0.28-0.01c0.01,0,0.01,0,0.02,0c2.98-0.11,5.63-1.52,7.38-3.69
		c0.75-0.93,1.34-2,1.72-3.16C19.37,13.37,19.23,13.57,19.07,13.77C19.07,13.77,19.07,13.77,19.07,13.77z"/>
	<path class="ultraaddons-svg-black-2" d="M13.69,1.03C13.69,1.03,13.69,1.03,13.69,1.03C13.69,1.03,13.69,1.03,13.69,1.03
		C13.69,1.03,13.69,1.03,13.69,1.03c0.01,0.01,0.03,0.02,0.04,0.03c1.18,0.96,1.97,2.39,2.1,3.99c0.01,0.16,0.02,0.32,0.02,0.48
		c0,0.34-0.03,0.67-0.09,1c-0.32,1.84-1.51,3.38-3.13,4.18c-1.36,0.67-1.54,2.51-0.39,3.4c0,0,0,0,0,0
		c0.08,0.06,0.16,0.11,0.25,0.16c0,0,0,0,0,0c0.5,0.31,1.08,0.52,1.69,0.59c0.25,0.04,0.51,0.06,0.78,0.06
		c2.73,0,4.95-2.2,4.98-4.93c0-0.09,0-0.19-0.01-0.28c0-0.01,0-0.01,0-0.02c-0.11-2.98-1.52-5.63-3.69-7.38
		c-0.93-0.75-2-1.34-3.16-1.72C13.3,0.73,13.5,0.87,13.69,1.03C13.69,1.03,13.69,1.03,13.69,1.03z"/>
</g>
</svg>
