<?xml version="1.0" encoding="utf-8"?>
<!-- Generator: Adobe Illustrator 23.0.1, SVG Export Plug-In . SVG Version: 6.00 Build 0)  -->
<svg version="1.1" id="Layer_1" xmlns="http://www.w3.org/2000/svg" xmlns:xlink="http://www.w3.org/1999/xlink" x="0px" y="0px"
	 viewBox="0 0 20 20" style="enable-background:new 0 0 20 20;" xml:space="preserve">
<style type="text/css">
	.ultraaddons-svg-icon-line{fill:#495157;}
</style>
<path class="ultraaddons-svg-icon-line" d="M20.12,9.93c0-0.01,0-0.01,0-0.02l0-0.09c0-0.15-0.01-0.31-0.02-0.46c0-0.05-0.02-0.1-0.02-0.15
	c-0.03-0.36-0.07-0.71-0.14-1.06c-0.01-0.04-0.01-0.08-0.02-0.12c-0.08-0.41-0.19-0.8-0.32-1.19c-0.02-0.06-0.04-0.12-0.07-0.18
	c-0.11-0.33-0.25-0.64-0.39-0.95c-0.04-0.08-0.07-0.15-0.11-0.23c-0.16-0.32-0.34-0.64-0.54-0.94c-0.02-0.03-0.04-0.07-0.06-0.1
	c-0.22-0.33-0.46-0.65-0.72-0.95c-0.06-0.08-0.14-0.15-0.2-0.22c-0.19-0.21-0.39-0.42-0.6-0.61c-0.1-0.1-0.21-0.19-0.32-0.29
	c-0.21-0.18-0.42-0.35-0.64-0.51c-0.1-0.07-0.19-0.15-0.29-0.22c-0.3-0.21-0.62-0.39-0.95-0.57c-0.04-0.02-0.08-0.05-0.12-0.07
	l-0.68-0.35l0.06,0.06c-1.22-0.52-2.57-0.82-3.98-0.82c-0.02,0-0.04,0-0.07,0c-0.01,0-0.01,0-0.02,0l-0.09,0
	c-0.16,0-0.31,0.01-0.46,0.02c-0.05,0-0.1,0.02-0.16,0.02c-0.35,0.03-0.7,0.07-1.04,0.13c-0.05,0.01-0.1,0.01-0.14,0.02
	c-0.4,0.08-0.8,0.19-1.18,0.31C6.79,0.42,6.73,0.44,6.66,0.46C6.34,0.58,6.02,0.71,5.72,0.85C5.64,0.89,5.56,0.93,5.48,0.96
	C5.16,1.13,4.85,1.3,4.54,1.5C4.51,1.52,4.47,1.54,4.44,1.56C4.11,1.78,3.79,2.02,3.49,2.28c-0.08,0.06-0.15,0.14-0.22,0.2
	c-0.21,0.19-0.42,0.39-0.61,0.6c-0.1,0.1-0.19,0.21-0.29,0.32C2.18,3.6,2.02,3.82,1.85,4.04C1.78,4.14,1.7,4.23,1.63,4.33
	c-0.21,0.31-0.4,0.62-0.57,0.95C1.04,5.32,1.02,5.36,0.99,5.4L0.64,6.09l0.06-0.06c-0.51,1.2-0.8,2.52-0.81,3.9
	c0,0.05-0.02,0.11-0.02,0.16l0,0.09c0,0.16,0.01,0.31,0.02,0.46c0.01,0.12,0.03,0.23,0.05,0.35c0.01,0.07,0.02,0.14,0.03,0.22
	c0.07,0.58,0.18,1.15,0.35,1.7c0.01,0.04,0.02,0.07,0.03,0.11c0.07,0.22,0.15,0.43,0.24,0.64c0.06,0.15,0.12,0.3,0.18,0.45
	c0.09,0.19,0.18,0.38,0.27,0.57c0.08,0.16,0.18,0.32,0.27,0.47c0.1,0.17,0.2,0.34,0.31,0.51c0.19,0.28,0.39,0.54,0.6,0.8
	c0.13,0.16,0.27,0.3,0.41,0.45c0.12,0.13,0.24,0.25,0.37,0.38c0.15,0.14,0.3,0.28,0.46,0.42c0.14,0.12,0.28,0.23,0.43,0.34
	c0.19,0.14,0.38,0.29,0.58,0.42c0.26,0.17,0.52,0.33,0.79,0.47c0.05,0.03,0.09,0.06,0.14,0.08l0.69,0.35l-0.07-0.07
	c1.23,0.53,2.58,0.83,4,0.83c0.02,0,0.04,0,0.07,0c0.01,0,0.01,0,0.02,0l0.09,0c0.15,0,0.31-0.01,0.46-0.02
	c0.05,0,0.1-0.02,0.15-0.02c0.36-0.03,0.72-0.07,1.07-0.14c0.04-0.01,0.08-0.01,0.11-0.02c0.41-0.08,0.81-0.19,1.2-0.32
	c0.06-0.02,0.11-0.04,0.16-0.06c0.33-0.12,0.66-0.25,0.97-0.4c0.07-0.03,0.14-0.07,0.21-0.1c0.33-0.17,0.66-0.35,0.97-0.55
	c0.03-0.02,0.05-0.03,0.08-0.05c0.34-0.22,0.66-0.46,0.96-0.72c0.07-0.06,0.13-0.12,0.2-0.18c0.22-0.2,0.44-0.41,0.64-0.62
	c0.09-0.1,0.18-0.2,0.27-0.3c0.19-0.22,0.37-0.45,0.54-0.68c0.06-0.09,0.13-0.17,0.19-0.26c0.21-0.31,0.4-0.64,0.58-0.97
	c0.02-0.04,0.05-0.07,0.07-0.11l0.35-0.68l-0.06,0.06c0.52-1.22,0.81-2.56,0.81-3.97C20.13,9.98,20.12,9.96,20.12,9.93z M16.44,4.98
	c-0.09-1.24-0.55-2.42-1.3-3.39c0.06,0.04,0.13,0.07,0.19,0.11c0.17,0.11,0.34,0.23,0.51,0.35c0.12,0.09,0.25,0.18,0.37,0.28
	c0.24,0.19,0.47,0.4,0.69,0.61c0.06,0.06,0.12,0.12,0.18,0.18c0.22,0.23,0.44,0.47,0.64,0.72c0.06,0.08,0.12,0.16,0.18,0.24
	c0.17,0.22,0.32,0.45,0.47,0.68c0.05,0.08,0.1,0.16,0.15,0.24c0.15,0.26,0.29,0.52,0.42,0.79c0.03,0.06,0.06,0.12,0.09,0.19
	c0.3,0.68,0.53,1.4,0.68,2.14c0.02,0.08,0.03,0.17,0.04,0.26c0.05,0.28,0.08,0.55,0.1,0.83c0.02,0.23,0.03,0.47,0.04,0.71
	c-0.06,2.63-2.24,4.77-4.88,4.77l-0.06,0c-0.98-0.01-1.79-0.62-2.08-1.56c-0.29-0.93,0.05-1.9,0.85-2.45
	c0.31-0.22,0.61-0.47,0.89-0.74C15.91,8.64,16.58,6.83,16.44,4.98z M1.71,4.68c0.11-0.17,0.23-0.34,0.35-0.51
	c0.09-0.12,0.18-0.25,0.27-0.37c0.2-0.25,0.41-0.49,0.64-0.72C3.02,3.04,3.07,3,3.12,2.95C3.35,2.72,3.6,2.5,3.85,2.3
	c0.08-0.06,0.15-0.12,0.23-0.17C4.31,1.96,4.54,1.8,4.78,1.65C4.86,1.6,4.94,1.55,5.02,1.5c0.26-0.15,0.52-0.29,0.79-0.42
	C5.87,1.05,5.93,1.02,6,0.99c0.68-0.3,1.4-0.53,2.14-0.68C8.23,0.3,8.32,0.29,8.4,0.28c0.27-0.05,0.55-0.08,0.83-0.1
	C9.47,0.15,9.7,0.14,9.94,0.14c2.63,0.06,4.77,2.24,4.77,4.88v0.06c-0.01,0.98-0.62,1.79-1.56,2.08c-0.94,0.29-1.9-0.05-2.45-0.85
	c-0.22-0.32-0.47-0.61-0.74-0.89c-1.2-1.2-2.81-1.86-4.5-1.86c-0.16,0-0.32,0.01-0.48,0.02C3.75,3.66,2.57,4.12,1.6,4.87
	C1.63,4.81,1.67,4.74,1.71,4.68z M3.56,15.01c0.09,1.23,0.55,2.41,1.3,3.39c-0.08-0.05-0.16-0.09-0.23-0.14
	c-0.11-0.07-0.22-0.15-0.33-0.23c-0.18-0.13-0.36-0.26-0.54-0.4c-0.06-0.05-0.11-0.1-0.16-0.14c-0.37-0.31-0.71-0.65-1.02-1.02
	c-0.07-0.08-0.14-0.15-0.2-0.23c-0.14-0.17-0.27-0.35-0.4-0.53c-0.08-0.11-0.15-0.22-0.23-0.33c-0.12-0.18-0.23-0.36-0.34-0.55
	c-0.06-0.11-0.12-0.23-0.18-0.35c-0.1-0.2-0.21-0.4-0.29-0.61c-0.03-0.07-0.05-0.14-0.08-0.21c-0.33-0.81-0.55-1.68-0.65-2.58
	c0-0.03-0.01-0.06-0.01-0.1C0.16,10.66,0.14,10.33,0.14,10c0-0.02,0-0.05,0-0.07c0.13-2.57,2.27-4.64,4.86-4.64l0.06,0
	c0.98,0.01,1.79,0.62,2.08,1.56c0.29,0.93-0.05,1.9-0.85,2.45c-0.31,0.22-0.61,0.47-0.88,0.74C4.09,11.35,3.42,13.16,3.56,15.01z
	 M5.51,18.77c-0.99-1.02-1.59-2.36-1.7-3.78c-0.13-1.78,0.51-3.52,1.77-4.78c0.26-0.26,0.55-0.5,0.85-0.71
	C7.33,8.89,7.7,7.82,7.38,6.78C7.06,5.74,6.16,5.06,5.07,5.04l-0.07,0c-2.07,0-3.87,1.25-4.67,3.04c0.18-0.91,0.49-1.76,0.9-2.56
	c1.02-0.99,2.36-1.59,3.78-1.7c1.78-0.13,3.52,0.51,4.78,1.77c0.26,0.26,0.5,0.55,0.71,0.85c0.47,0.68,1.21,1.06,1.99,1.06
	c0.24,0,0.49-0.04,0.74-0.11c1.04-0.32,1.72-1.22,1.73-2.31V5.01c0-2.08-1.27-3.9-3.08-4.7c0.92,0.18,1.8,0.49,2.61,0.9
	c0.99,1.02,1.59,2.36,1.7,3.78c0.13,1.78-0.51,3.52-1.77,4.78c-0.26,0.26-0.55,0.5-0.85,0.71c-0.89,0.62-1.27,1.69-0.95,2.73
	c0.32,1.04,1.22,1.72,2.31,1.73c0.02,0,0.05,0,0.07,0c2.08,0,3.9-1.27,4.7-3.08c-0.18,0.92-0.49,1.79-0.9,2.61
	c-1.02,0.99-2.36,1.59-3.78,1.7c-1.78,0.13-3.52-0.51-4.78-1.77c-0.26-0.26-0.5-0.55-0.71-0.85c-0.62-0.89-1.69-1.27-2.73-0.95
	c-1.04,0.32-1.72,1.23-1.73,2.31l0,0.06c0,2.08,1.27,3.9,3.08,4.7C7.21,19.5,6.33,19.19,5.51,18.77z M18.31,15.31
	c-0.12,0.18-0.24,0.36-0.37,0.53c-0.09,0.12-0.17,0.24-0.26,0.35c-0.21,0.27-0.44,0.52-0.68,0.76c-0.02,0.02-0.05,0.05-0.07,0.07
	c-0.25,0.24-0.51,0.47-0.78,0.68c-0.07,0.05-0.14,0.1-0.21,0.16c-0.23,0.17-0.47,0.34-0.72,0.49c-0.07,0.05-0.15,0.09-0.22,0.13
	c-0.27,0.16-0.54,0.3-0.83,0.44c-0.05,0.02-0.1,0.05-0.16,0.08c-0.69,0.31-1.41,0.54-2.16,0.68c-0.07,0.01-0.15,0.02-0.22,0.03
	c-0.29,0.05-0.58,0.09-0.88,0.11c-0.23,0.02-0.46,0.03-0.69,0.04c-2.63-0.06-4.77-2.24-4.77-4.91l0-0.03
	c0.01-0.98,0.62-1.79,1.56-2.08c0.93-0.28,1.9,0.05,2.45,0.85c0.22,0.32,0.47,0.61,0.74,0.88c1.31,1.31,3.11,1.98,4.97,1.84
	c1.24-0.09,2.42-0.55,3.4-1.3C18.38,15.19,18.35,15.25,18.31,15.31z"/>
</svg>
