<?xml version="1.0" encoding="utf-8"?>
<!-- Generator: Adobe Illustrator 23.0.1, SVG Export Plug-In . SVG Version: 6.00 Build 0)  -->
<svg version="1.1" id="Layer_1" xmlns="http://www.w3.org/2000/svg" xmlns:xlink="http://www.w3.org/1999/xlink" x="0px" y="0px"
	 viewBox="0 0 20 20" style="enable-background:new 0 0 20 20;" xml:space="preserve">
<style type="text/css">
	.st0{fill:url(#XMLID_14_);}
	.st1{fill:url(#XMLID_15_);}
	.st2{fill:url(#XMLID_16_);}
	.st3{fill:url(#XMLID_17_);}
	.st4{fill:url(#XMLID_18_);}
	.st5{fill:url(#XMLID_19_);}
	.st6{fill:url(#XMLID_20_);}
	.st7{fill:url(#XMLID_21_);}
</style>
<g>
	<linearGradient id="XMLID_14_" gradientUnits="userSpaceOnUse" x1="0.9477" y1="6.0134" x2="14.8255" y2="6.0134">
		<stop  offset="0.0148" style="stop-color:#3FAF3E"/>
		<stop  offset="0.5123" style="stop-color:#AACD3D"/>
		<stop  offset="1" style="stop-color:#2C7035"/>
	</linearGradient>
	<path id="XMLID_10_" class="st0" d="M14.83,5.78c-0.08,0.62-0.28,1.19-0.6,1.7c0,0,0,0,0,0c-0.05,0.09-0.11,0.17-0.16,0.25
		c0,0,0,0,0,0c-0.89,1.15-2.74,0.97-3.42-0.4C9.84,5.71,8.29,4.52,6.45,4.2c-0.33-0.06-0.66-0.09-1-0.09
		c-0.16,0-0.32,0.01-0.48,0.02C3.34,4.26,1.92,5.06,0.95,6.24C0.98,6.19,1.01,6.15,1.04,6.1c0.02-0.02,0.03-0.05,0.05-0.07
		C1.1,6.02,1.11,6,1.12,5.98c0.01-0.01,0.02-0.03,0.03-0.04C1.17,5.92,1.19,5.89,1.2,5.87c0.08-0.11,0.17-0.22,0.26-0.33
		C1.48,5.53,1.5,5.51,1.52,5.49c0.05-0.05,0.1-0.11,0.15-0.16C1.68,5.31,1.7,5.29,1.72,5.27c0.02-0.02,0.04-0.04,0.06-0.06
		C1.82,5.17,1.86,5.14,1.9,5.1c0.02-0.02,0.04-0.04,0.06-0.06C1.98,5.02,2,5,2.03,4.99c0.02-0.02,0.04-0.04,0.06-0.05
		C2.11,4.92,2.13,4.9,2.15,4.88c0.02-0.02,0.04-0.04,0.06-0.05c0.02-0.02,0.04-0.03,0.07-0.05C2.3,4.76,2.33,4.74,2.35,4.72
		c0.02-0.02,0.04-0.03,0.07-0.05c0.04-0.03,0.09-0.07,0.14-0.1C2.57,4.56,2.6,4.55,2.62,4.53C2.64,4.52,2.67,4.5,2.69,4.49
		C2.74,4.46,2.78,4.43,2.83,4.4C2.85,4.38,2.88,4.37,2.9,4.35c0.02-0.01,0.05-0.03,0.07-0.04C3,4.3,3.02,4.28,3.05,4.27
		C3.07,4.26,3.1,4.24,3.12,4.23c0.05-0.03,0.1-0.05,0.15-0.08c0.05-0.03,0.1-0.05,0.15-0.07C3.45,4.07,3.47,4.06,3.5,4.05
		c0.03-0.01,0.05-0.02,0.08-0.03C3.6,4,3.63,3.99,3.65,3.98C3.7,3.96,3.75,3.94,3.8,3.92c0.14-0.05,0.28-0.1,0.42-0.14
		C4.24,3.77,4.27,3.76,4.3,3.76c0.08-0.02,0.17-0.04,0.25-0.06C4.58,3.69,4.6,3.68,4.63,3.67C4.8,3.64,4.97,3.61,5.15,3.59
		c0.09-0.01,0.17-0.02,0.26-0.03c0.16-0.01,0.32-0.02,0.48-0.02c0.26,0,0.51,0.02,0.76,0.05c1.97,0.25,3.63,1.47,4.48,3.16
		c0.01,0.02,0.02,0.04,0.03,0.06c0,0.01,0.01,0.01,0.01,0.02c0.02,0.04,0.05,0.08,0.07,0.12c0.87,1.36,2.99,1.04,3.45-0.56
		C14.75,6.19,14.79,5.98,14.83,5.78z"/>
	<linearGradient id="XMLID_15_" gradientUnits="userSpaceOnUse" x1="0.484" y1="3.8964" x2="14.8858" y2="3.8964">
		<stop  offset="0" style="stop-color:#2C7035"/>
		<stop  offset="0.0914" style="stop-color:#3A7A36"/>
		<stop  offset="0.5195" style="stop-color:#76A73A"/>
		<stop  offset="0.8344" style="stop-color:#9CC23C"/>
		<stop  offset="1" style="stop-color:#AACD3D"/>
	</linearGradient>
	<path id="XMLID_33_" class="st1" d="M14.89,5c0,0.27-0.02,0.52-0.06,0.78c-0.03,0.21-0.08,0.41-0.13,0.61
		c-0.46,1.59-2.58,1.91-3.45,0.56c-0.02-0.04-0.05-0.08-0.07-0.12c0-0.01-0.01-0.01-0.01-0.02c-0.01-0.02-0.02-0.04-0.03-0.06
		c-0.85-1.69-2.51-2.91-4.48-3.16C6.4,3.55,6.15,3.54,5.89,3.54c-0.16,0-0.32,0.01-0.48,0.02C5.32,3.57,5.23,3.57,5.15,3.59
		C4.97,3.61,4.8,3.64,4.63,3.67C4.6,3.68,4.58,3.69,4.55,3.69C4.46,3.71,4.38,3.73,4.3,3.76C4.27,3.76,4.24,3.77,4.22,3.78
		C4.07,3.82,3.93,3.87,3.8,3.92C3.75,3.94,3.7,3.96,3.65,3.98C3.63,3.99,3.6,4,3.58,4.01C3.55,4.02,3.52,4.03,3.5,4.05
		C3.47,4.06,3.45,4.07,3.43,4.08C3.37,4.1,3.32,4.13,3.27,4.15C3.22,4.18,3.17,4.2,3.12,4.23C3.1,4.24,3.07,4.26,3.05,4.27
		C3.02,4.28,3,4.3,2.97,4.31C2.95,4.33,2.93,4.34,2.9,4.35C2.88,4.37,2.85,4.38,2.83,4.4c-0.05,0.03-0.1,0.06-0.14,0.09
		C2.67,4.5,2.64,4.52,2.62,4.53C2.6,4.55,2.57,4.56,2.55,4.58C2.5,4.61,2.46,4.64,2.41,4.67C2.39,4.69,2.37,4.71,2.35,4.72
		C2.33,4.74,2.3,4.76,2.28,4.78C2.26,4.79,2.24,4.81,2.22,4.83C2.19,4.84,2.17,4.86,2.15,4.88C2.13,4.9,2.11,4.92,2.09,4.93
		C2.07,4.95,2.05,4.97,2.03,4.99C2,5,1.98,5.02,1.96,5.04C1.94,5.06,1.92,5.08,1.9,5.1C1.86,5.14,1.82,5.17,1.78,5.21
		C1.76,5.23,1.74,5.25,1.72,5.27C1.7,5.29,1.68,5.31,1.67,5.33c-0.05,0.05-0.1,0.1-0.15,0.16C1.5,5.51,1.48,5.53,1.47,5.55
		C1.37,5.65,1.29,5.76,1.2,5.87C1.19,5.89,1.17,5.92,1.15,5.94C1.14,5.95,1.13,5.97,1.12,5.98C1.11,6,1.1,6.02,1.09,6.03
		C1.07,6.06,1.05,6.08,1.04,6.1C1.01,6.15,0.98,6.19,0.95,6.24C0.94,6.26,0.93,6.27,0.92,6.29c0,0,0,0,0,0c0,0,0,0,0,0c0,0,0,0,0,0
		c0,0,0,0,0,0c-0.16,0.19-0.3,0.4-0.43,0.61c0.38-1.17,0.97-2.24,1.73-3.18c1.76-2.18,4.42-3.6,7.42-3.71c0.01,0,0.01,0,0.02,0
		C9.74,0,9.83,0,9.93,0C12.67,0.02,14.89,2.25,14.89,5z"/>
	
		<linearGradient id="XMLID_16_" gradientUnits="userSpaceOnUse" x1="-997.8497" y1="-415.3174" x2="-983.9719" y2="-415.3174" gradientTransform="matrix(4.489700e-11 -1 1 4.489700e-11 421.3381 -978.801)">
		<stop  offset="0" style="stop-color:#2B3990"/>
		<stop  offset="0.4877" style="stop-color:#00AEEF"/>
		<stop  offset="0.9754" style="stop-color:#284297"/>
	</linearGradient>
	<path id="XMLID_9_" class="st2" d="M5.79,5.17c0.62,0.08,1.19,0.28,1.7,0.6c0,0,0,0,0,0c0.09,0.05,0.17,0.11,0.25,0.16c0,0,0,0,0,0
		c1.15,0.89,0.97,2.74-0.4,3.42c-1.63,0.81-2.82,2.35-3.14,4.2c-0.06,0.33-0.09,0.66-0.09,1c0,0.16,0.01,0.32,0.02,0.48
		c0.13,1.62,0.93,3.04,2.11,4.01c-0.05-0.03-0.09-0.06-0.14-0.09c-0.02-0.02-0.05-0.03-0.07-0.05C6.02,18.9,6,18.88,5.99,18.87
		c-0.01-0.01-0.03-0.02-0.04-0.03c-0.02-0.02-0.05-0.03-0.07-0.05c-0.11-0.08-0.22-0.17-0.33-0.26c-0.02-0.02-0.04-0.03-0.06-0.05
		c-0.05-0.05-0.11-0.1-0.16-0.15c-0.02-0.02-0.04-0.04-0.06-0.06c-0.02-0.02-0.04-0.04-0.06-0.06c-0.04-0.04-0.08-0.08-0.11-0.12
		c-0.02-0.02-0.04-0.04-0.06-0.06c-0.02-0.02-0.04-0.04-0.06-0.06c-0.02-0.02-0.04-0.04-0.05-0.06c-0.02-0.02-0.04-0.04-0.05-0.06
		c-0.02-0.02-0.04-0.04-0.05-0.06c-0.02-0.02-0.03-0.04-0.05-0.07c-0.02-0.02-0.03-0.04-0.05-0.07c-0.02-0.02-0.03-0.04-0.05-0.07
		c-0.03-0.04-0.07-0.09-0.1-0.14c-0.02-0.02-0.03-0.05-0.05-0.07c-0.02-0.02-0.03-0.05-0.05-0.07c-0.03-0.05-0.06-0.09-0.09-0.14
		c-0.01-0.02-0.03-0.05-0.04-0.07c-0.01-0.02-0.03-0.05-0.04-0.07C4.3,17,4.29,16.97,4.28,16.95c-0.01-0.02-0.03-0.05-0.04-0.07
		c-0.03-0.05-0.05-0.1-0.08-0.15c-0.03-0.05-0.05-0.1-0.07-0.15c-0.01-0.02-0.02-0.05-0.03-0.07c-0.01-0.03-0.02-0.05-0.03-0.08
		C4.01,16.39,4,16.37,3.99,16.34c-0.02-0.05-0.04-0.09-0.06-0.14c-0.05-0.14-0.1-0.28-0.14-0.42c-0.01-0.03-0.02-0.05-0.02-0.08
		c-0.02-0.08-0.04-0.17-0.06-0.25c-0.01-0.03-0.01-0.06-0.02-0.08c-0.04-0.17-0.07-0.34-0.09-0.51c-0.01-0.09-0.02-0.17-0.03-0.26
		c-0.01-0.16-0.02-0.32-0.02-0.48c0-0.26,0.02-0.51,0.05-0.76c0.25-1.97,1.47-3.63,3.16-4.48c0.02-0.01,0.04-0.02,0.06-0.03
		c0.01,0,0.01-0.01,0.02-0.01c0.04-0.02,0.08-0.05,0.12-0.07C8.3,7.88,7.98,5.76,6.39,5.3C6.19,5.25,5.99,5.2,5.79,5.17z"/>
	
		<linearGradient id="XMLID_17_" gradientUnits="userSpaceOnUse" x1="-998.3134" y1="-417.4345" x2="-983.9116" y2="-417.4345" gradientTransform="matrix(4.489700e-11 -1 1 4.489700e-11 421.3381 -978.801)">
		<stop  offset="0" style="stop-color:#2B3990"/>
		<stop  offset="1" style="stop-color:#00AEEF"/>
	</linearGradient>
	<path id="XMLID_5_" class="st3" d="M5.01,5.11c0.27,0,0.52,0.02,0.78,0.06C5.99,5.2,6.19,5.25,6.39,5.3
		C7.98,5.76,8.3,7.88,6.95,8.76C6.91,8.78,6.87,8.81,6.83,8.83c-0.01,0-0.01,0.01-0.02,0.01C6.79,8.85,6.77,8.86,6.76,8.87
		c-1.69,0.85-2.91,2.51-3.16,4.48c-0.03,0.25-0.05,0.5-0.05,0.76c0,0.16,0.01,0.32,0.02,0.48c0.01,0.09,0.02,0.18,0.03,0.26
		c0.02,0.17,0.05,0.35,0.09,0.51c0.01,0.03,0.01,0.06,0.02,0.08c0.02,0.08,0.04,0.17,0.06,0.25c0.01,0.03,0.02,0.05,0.02,0.08
		c0.04,0.14,0.09,0.28,0.14,0.42c0.02,0.05,0.04,0.1,0.06,0.14c0.01,0.03,0.02,0.05,0.03,0.08c0.01,0.03,0.02,0.05,0.03,0.08
		c0.01,0.02,0.02,0.05,0.03,0.07c0.02,0.05,0.05,0.1,0.07,0.15c0.02,0.05,0.05,0.1,0.08,0.15c0.01,0.02,0.03,0.05,0.04,0.07
		C4.29,16.97,4.3,17,4.32,17.02c0.01,0.02,0.03,0.05,0.04,0.07c0.01,0.02,0.03,0.05,0.04,0.07c0.03,0.05,0.06,0.1,0.09,0.14
		c0.01,0.02,0.03,0.05,0.05,0.07c0.02,0.02,0.03,0.05,0.05,0.07c0.03,0.05,0.06,0.09,0.1,0.14c0.02,0.02,0.03,0.04,0.05,0.07
		c0.02,0.02,0.03,0.04,0.05,0.07c0.02,0.02,0.03,0.04,0.05,0.07c0.02,0.02,0.03,0.04,0.05,0.06c0.02,0.02,0.04,0.04,0.05,0.06
		c0.02,0.02,0.04,0.04,0.05,0.06c0.02,0.02,0.04,0.04,0.06,0.06c0.02,0.02,0.04,0.04,0.06,0.06c0.04,0.04,0.08,0.08,0.11,0.12
		c0.02,0.02,0.04,0.04,0.06,0.06c0.02,0.02,0.04,0.04,0.06,0.06c0.05,0.05,0.1,0.1,0.16,0.15c0.02,0.02,0.04,0.03,0.06,0.05
		c0.1,0.09,0.21,0.18,0.33,0.26c0.02,0.02,0.04,0.03,0.07,0.05c0.01,0.01,0.03,0.02,0.04,0.03C6,18.88,6.02,18.9,6.04,18.91
		c0.02,0.02,0.05,0.03,0.07,0.05c0.05,0.03,0.09,0.06,0.14,0.09c0.02,0.01,0.03,0.02,0.05,0.03c0,0,0,0,0,0c0,0,0,0,0,0c0,0,0,0,0,0
		c0,0,0,0,0,0c0.19,0.16,0.4,0.3,0.61,0.43c-1.17-0.38-2.24-0.97-3.18-1.73c-2.18-1.76-3.6-4.42-3.71-7.42c0-0.01,0-0.01,0-0.02
		c0-0.09-0.01-0.19-0.01-0.28C0.03,7.33,2.26,5.11,5.01,5.11z"/>
	
		<linearGradient id="XMLID_18_" gradientUnits="userSpaceOnUse" x1="-818.6335" y1="-1316.5873" x2="-804.7557" y2="-1316.5873" gradientTransform="matrix(-1 0 0 -1 -799.5557 -1302.6007)">
		<stop  offset="0" style="stop-color:#662D91"/>
		<stop  offset="0.4877" style="stop-color:#E3278F"/>
		<stop  offset="1" style="stop-color:#6E2D91"/>
	</linearGradient>
	<path id="XMLID_35_" class="st4" d="M5.2,14.22c0.08-0.62,0.28-1.19,0.6-1.7c0,0,0,0,0,0c0.05-0.09,0.11-0.17,0.16-0.25
		c0,0,0,0,0,0c0.89-1.15,2.74-0.97,3.42,0.4c0.81,1.63,2.35,2.82,4.2,3.14c0.33,0.06,0.66,0.09,1,0.09c0.16,0,0.32-0.01,0.48-0.02
		c1.62-0.13,3.04-0.93,4.01-2.11c-0.03,0.05-0.06,0.09-0.09,0.14c-0.02,0.02-0.03,0.05-0.05,0.07c-0.01,0.02-0.03,0.04-0.04,0.06
		c-0.01,0.01-0.02,0.03-0.03,0.04c-0.02,0.02-0.03,0.05-0.05,0.07c-0.08,0.11-0.17,0.22-0.26,0.33c-0.02,0.02-0.03,0.04-0.05,0.06
		c-0.05,0.05-0.1,0.11-0.15,0.16c-0.02,0.02-0.04,0.04-0.06,0.06c-0.02,0.02-0.04,0.04-0.06,0.06c-0.04,0.04-0.08,0.08-0.12,0.11
		c-0.02,0.02-0.04,0.04-0.06,0.06C18.04,14.98,18.02,15,18,15.01c-0.02,0.02-0.04,0.04-0.06,0.05c-0.02,0.02-0.04,0.04-0.06,0.05
		c-0.02,0.02-0.04,0.04-0.06,0.05c-0.02,0.02-0.04,0.03-0.07,0.05c-0.02,0.02-0.04,0.03-0.07,0.05c-0.02,0.02-0.04,0.03-0.07,0.05
		c-0.04,0.03-0.09,0.07-0.14,0.1c-0.02,0.02-0.05,0.03-0.07,0.05c-0.02,0.02-0.05,0.03-0.07,0.05c-0.05,0.03-0.09,0.06-0.14,0.09
		c-0.02,0.01-0.05,0.03-0.07,0.04c-0.02,0.01-0.05,0.03-0.07,0.04c-0.02,0.01-0.05,0.03-0.07,0.04c-0.02,0.01-0.05,0.03-0.07,0.04
		c-0.05,0.03-0.1,0.05-0.15,0.08c-0.05,0.03-0.1,0.05-0.15,0.07c-0.02,0.01-0.05,0.02-0.07,0.03c-0.03,0.01-0.05,0.02-0.08,0.03
		c-0.03,0.01-0.05,0.02-0.08,0.03c-0.05,0.02-0.09,0.04-0.14,0.06c-0.14,0.05-0.28,0.1-0.42,0.14c-0.03,0.01-0.05,0.02-0.08,0.02
		c-0.08,0.02-0.17,0.04-0.25,0.06c-0.03,0.01-0.06,0.01-0.08,0.02c-0.17,0.04-0.34,0.07-0.51,0.09c-0.09,0.01-0.17,0.02-0.26,0.03
		c-0.16,0.01-0.32,0.02-0.48,0.02c-0.26,0-0.51-0.02-0.76-0.05c-1.97-0.25-3.63-1.47-4.48-3.16c-0.01-0.02-0.02-0.04-0.03-0.06
		c0-0.01-0.01-0.01-0.01-0.02c-0.02-0.04-0.05-0.08-0.07-0.12c-0.87-1.36-2.99-1.04-3.45,0.56C5.28,13.81,5.23,14.02,5.2,14.22z"/>
	
		<linearGradient id="XMLID_19_" gradientUnits="userSpaceOnUse" x1="-819.0972" y1="-1318.7042" x2="-804.6954" y2="-1318.7042" gradientTransform="matrix(-1 0 0 -1 -799.5557 -1302.6007)">
		<stop  offset="0" style="stop-color:#662D91"/>
		<stop  offset="1" style="stop-color:#E3278F"/>
	</linearGradient>
	<path id="XMLID_8_" class="st5" d="M5.14,15c0-0.27,0.02-0.52,0.06-0.78c0.03-0.21,0.08-0.41,0.13-0.61
		c0.46-1.59,2.58-1.91,3.45-0.56c0.02,0.04,0.05,0.08,0.07,0.12c0,0.01,0.01,0.01,0.01,0.02c0.01,0.02,0.02,0.04,0.03,0.06
		c0.85,1.69,2.51,2.91,4.48,3.16c0.25,0.03,0.5,0.05,0.76,0.05c0.16,0,0.32-0.01,0.48-0.02c0.09-0.01,0.18-0.02,0.26-0.03
		c0.17-0.02,0.35-0.05,0.51-0.09c0.03-0.01,0.06-0.01,0.08-0.02c0.08-0.02,0.17-0.04,0.25-0.06c0.03-0.01,0.05-0.02,0.08-0.02
		c0.14-0.04,0.28-0.09,0.42-0.14c0.05-0.02,0.1-0.04,0.14-0.06c0.03-0.01,0.05-0.02,0.08-0.03c0.03-0.01,0.05-0.02,0.08-0.03
		c0.02-0.01,0.05-0.02,0.07-0.03c0.05-0.02,0.1-0.05,0.15-0.07c0.05-0.02,0.1-0.05,0.15-0.08c0.02-0.01,0.05-0.03,0.07-0.04
		c0.02-0.01,0.05-0.03,0.07-0.04c0.02-0.01,0.05-0.03,0.07-0.04c0.02-0.01,0.05-0.03,0.07-0.04c0.05-0.03,0.1-0.06,0.14-0.09
		c0.02-0.01,0.05-0.03,0.07-0.05c0.02-0.02,0.05-0.03,0.07-0.05c0.05-0.03,0.09-0.06,0.14-0.1c0.02-0.02,0.04-0.03,0.07-0.05
		c0.02-0.02,0.04-0.03,0.07-0.05c0.02-0.02,0.04-0.03,0.07-0.05c0.02-0.02,0.04-0.03,0.06-0.05c0.02-0.02,0.04-0.04,0.06-0.05
		c0.02-0.02,0.04-0.04,0.06-0.05c0.02-0.02,0.04-0.04,0.06-0.06c0.02-0.02,0.04-0.04,0.06-0.06c0.04-0.04,0.08-0.08,0.12-0.11
		c0.02-0.02,0.04-0.04,0.06-0.06c0.02-0.02,0.04-0.04,0.06-0.06c0.05-0.05,0.1-0.1,0.15-0.16c0.02-0.02,0.03-0.04,0.05-0.06
		c0.09-0.1,0.18-0.21,0.26-0.33c0.02-0.02,0.03-0.04,0.05-0.07c0.01-0.01,0.02-0.03,0.03-0.04c0.01-0.02,0.03-0.04,0.04-0.06
		c0.02-0.02,0.03-0.05,0.05-0.07c0.03-0.05,0.06-0.09,0.09-0.14c0.01-0.02,0.02-0.03,0.03-0.05c0,0,0,0,0,0c0,0,0,0,0,0c0,0,0,0,0,0
		c0,0,0,0,0,0c0.16-0.19,0.3-0.4,0.43-0.61c-0.38,1.17-0.97,2.24-1.73,3.18c-1.76,2.18-4.42,3.6-7.42,3.71c-0.01,0-0.01,0-0.02,0
		C10.29,20,10.19,20,10.1,20C7.35,19.98,5.14,17.75,5.14,15z"/>
	
		<linearGradient id="XMLID_20_" gradientUnits="userSpaceOnUse" x1="-160.1243" y1="-1039.5621" x2="-146.2465" y2="-1039.5621" gradientTransform="matrix(-4.489700e-11 1 -1 -4.489700e-11 -1025.5828 161.0748)">
		<stop  offset="0.0296" style="stop-color:#E35B2B"/>
		<stop  offset="0.0565" style="stop-color:#E66528"/>
		<stop  offset="0.1693" style="stop-color:#F08C1E"/>
		<stop  offset="0.2735" style="stop-color:#F7A717"/>
		<stop  offset="0.3648" style="stop-color:#FBB813"/>
		<stop  offset="0.4335" style="stop-color:#FDBE11"/>
		<stop  offset="0.5414" style="stop-color:#FAB114"/>
		<stop  offset="0.7419" style="stop-color:#F18E1D"/>
		<stop  offset="1" style="stop-color:#E3592B"/>
	</linearGradient>
	<path id="XMLID_42_" class="st6" d="M14.21,14.83c-0.62-0.08-1.19-0.28-1.7-0.6c0,0,0,0,0,0c-0.09-0.05-0.17-0.11-0.25-0.16
		c0,0,0,0,0,0c-1.15-0.89-0.97-2.74,0.4-3.42c1.63-0.81,2.82-2.35,3.14-4.2c0.06-0.33,0.09-0.66,0.09-1c0-0.16-0.01-0.32-0.02-0.48
		c-0.13-1.62-0.93-3.04-2.11-4.01c0.05,0.03,0.09,0.06,0.14,0.09c0.02,0.02,0.05,0.03,0.07,0.05C13.98,1.1,14,1.11,14.01,1.13
		c0.01,0.01,0.03,0.02,0.04,0.03c0.02,0.02,0.05,0.03,0.07,0.05c0.11,0.08,0.22,0.17,0.33,0.26c0.02,0.02,0.04,0.03,0.06,0.05
		c0.05,0.05,0.11,0.1,0.16,0.15c0.02,0.02,0.04,0.04,0.06,0.06c0.02,0.02,0.04,0.04,0.06,0.06c0.04,0.04,0.08,0.08,0.11,0.12
		c0.02,0.02,0.04,0.04,0.06,0.06c0.02,0.02,0.04,0.04,0.06,0.06c0.02,0.02,0.04,0.04,0.05,0.06c0.02,0.02,0.04,0.04,0.05,0.06
		c0.02,0.02,0.04,0.04,0.05,0.06c0.02,0.02,0.03,0.04,0.05,0.07c0.02,0.02,0.03,0.04,0.05,0.07c0.02,0.02,0.03,0.04,0.05,0.07
		c0.03,0.04,0.07,0.09,0.1,0.14c0.02,0.02,0.03,0.05,0.05,0.07c0.02,0.02,0.03,0.05,0.05,0.07c0.03,0.05,0.06,0.09,0.09,0.14
		c0.01,0.02,0.03,0.05,0.04,0.07c0.01,0.02,0.03,0.05,0.04,0.07C15.7,3,15.71,3.03,15.72,3.05c0.01,0.02,0.03,0.05,0.04,0.07
		c0.03,0.05,0.05,0.1,0.08,0.15c0.03,0.05,0.05,0.1,0.07,0.15c0.01,0.02,0.02,0.05,0.03,0.07c0.01,0.03,0.02,0.05,0.03,0.08
		C15.99,3.6,16,3.63,16.01,3.66c0.02,0.05,0.04,0.09,0.06,0.14c0.05,0.14,0.1,0.28,0.14,0.42c0.01,0.03,0.02,0.05,0.02,0.08
		c0.02,0.08,0.04,0.17,0.06,0.25c0.01,0.03,0.01,0.06,0.02,0.08c0.04,0.17,0.07,0.34,0.09,0.51c0.01,0.09,0.02,0.17,0.03,0.26
		c0.01,0.16,0.02,0.32,0.02,0.48c0,0.26-0.02,0.51-0.05,0.76c-0.25,1.97-1.47,3.63-3.16,4.48c-0.02,0.01-0.04,0.02-0.06,0.03
		c-0.01,0-0.01,0.01-0.02,0.01c-0.04,0.02-0.08,0.05-0.12,0.07c-1.36,0.87-1.04,2.99,0.56,3.45C13.81,14.75,14.01,14.8,14.21,14.83z
		"/>
	
		<linearGradient id="XMLID_21_" gradientUnits="userSpaceOnUse" x1="-160.588" y1="-1041.6791" x2="-146.1862" y2="-1041.6791" gradientTransform="matrix(-4.489700e-11 1 -1 -4.489700e-11 -1025.5828 161.0748)">
		<stop  offset="0" style="stop-color:#E3592B"/>
		<stop  offset="1" style="stop-color:#FDBE11"/>
	</linearGradient>
	<path id="XMLID_30_" class="st7" d="M14.99,14.89c-0.27,0-0.52-0.02-0.78-0.06c-0.21-0.03-0.41-0.08-0.61-0.13
		c-1.59-0.46-1.91-2.58-0.56-3.45c0.04-0.02,0.08-0.05,0.12-0.07c0.01,0,0.01-0.01,0.02-0.01c0.02-0.01,0.04-0.02,0.06-0.03
		c1.69-0.85,2.91-2.51,3.16-4.48c0.03-0.25,0.05-0.5,0.05-0.76c0-0.16-0.01-0.32-0.02-0.48c-0.01-0.09-0.02-0.18-0.03-0.26
		c-0.02-0.17-0.05-0.35-0.09-0.51c-0.01-0.03-0.01-0.06-0.02-0.08c-0.02-0.08-0.04-0.17-0.06-0.25c-0.01-0.03-0.02-0.05-0.02-0.08
		c-0.04-0.14-0.09-0.28-0.14-0.42c-0.02-0.05-0.04-0.1-0.06-0.14C16,3.63,15.99,3.6,15.98,3.58c-0.01-0.03-0.02-0.05-0.03-0.08
		c-0.01-0.02-0.02-0.05-0.03-0.07c-0.02-0.05-0.05-0.1-0.07-0.15c-0.02-0.05-0.05-0.1-0.08-0.15c-0.01-0.02-0.03-0.05-0.04-0.07
		C15.71,3.03,15.7,3,15.68,2.98c-0.01-0.02-0.03-0.05-0.04-0.07c-0.01-0.02-0.03-0.05-0.04-0.07c-0.03-0.05-0.06-0.1-0.09-0.14
		c-0.01-0.02-0.03-0.05-0.05-0.07c-0.02-0.02-0.03-0.05-0.05-0.07c-0.03-0.05-0.06-0.09-0.1-0.14c-0.02-0.02-0.03-0.04-0.05-0.07
		c-0.02-0.02-0.03-0.04-0.05-0.07c-0.02-0.02-0.03-0.04-0.05-0.07c-0.02-0.02-0.03-0.04-0.05-0.06c-0.02-0.02-0.04-0.04-0.05-0.06
		c-0.02-0.02-0.04-0.04-0.05-0.06c-0.02-0.02-0.04-0.04-0.06-0.06c-0.02-0.02-0.04-0.04-0.06-0.06c-0.04-0.04-0.08-0.08-0.11-0.12
		c-0.02-0.02-0.04-0.04-0.06-0.06c-0.02-0.02-0.04-0.04-0.06-0.06c-0.05-0.05-0.1-0.1-0.16-0.15c-0.02-0.02-0.04-0.03-0.06-0.05
		c-0.1-0.09-0.21-0.18-0.33-0.26c-0.02-0.02-0.04-0.03-0.07-0.05c-0.01-0.01-0.03-0.02-0.04-0.03C14,1.11,13.98,1.1,13.96,1.09
		c-0.02-0.02-0.05-0.03-0.07-0.05c-0.05-0.03-0.09-0.06-0.14-0.09c-0.02-0.01-0.03-0.02-0.05-0.03c0,0,0,0,0,0c0,0,0,0,0,0
		c0,0,0,0,0,0c0,0,0,0,0,0c-0.19-0.16-0.4-0.3-0.61-0.43c1.17,0.38,2.24,0.97,3.18,1.73c2.18,1.76,3.6,4.42,3.71,7.42
		c0,0.01,0,0.01,0,0.02c0,0.09,0.01,0.19,0.01,0.28C19.97,12.67,17.74,14.89,14.99,14.89z"/>
</g>
</svg>
