<?xml version="1.0" encoding="utf-8"?>
<!-- Generator: Adobe Illustrator 23.0.1, SVG Export Plug-In . SVG Version: 6.00 Build 0)  -->
<svg version="1.1" id="Layer_1" xmlns="http://www.w3.org/2000/svg" xmlns:xlink="http://www.w3.org/1999/xlink" x="0px" y="0px"
	 viewBox="0 0 20 20" style="enable-background:new 0 0 20 20;" xml:space="preserve">
<style type="text/css">
	.ultaaddons-svg-icon-thin{fill:#495157;}
</style>
<g>
	<path class="ultaaddons-svg-icon-thin" d="M12.58,6.88c-0.67,0-1.25-0.31-1.64-0.88c-0.23-0.34-0.5-0.66-0.8-0.96c-1.3-1.3-3.02-2.01-4.86-2.01
		c-0.17,0-0.35,0.01-0.52,0.02C3.87,3.12,3,3.37,2.2,3.77C3.94,1.59,6.55,0.2,9.38,0.03l0.01,0c0.15-0.01,0.29-0.02,0.43-0.02
		c0.03,0,0.06,0,0.09,0c2.6,0.05,4.72,2.2,4.72,4.81l0,0.06C14.61,6.13,13.58,6.88,12.58,6.88C12.58,6.88,12.58,6.88,12.58,6.88z"/>
	<path class="st0" d="M3.76,17.81c-2.18-1.74-3.57-4.35-3.74-7.18l0-0.01C0.01,10.47,0,10.32,0,10.18c0-0.02,0-0.05,0-0.07l0-0.01
		c0.05-2.6,2.2-4.72,4.81-4.72l0.06,0c1.09,0.01,1.7,0.75,1.91,1.43C6.99,7.49,6.89,8.44,6,9.06c-0.34,0.23-0.66,0.5-0.96,0.8
		c-1.42,1.42-2.14,3.37-1.99,5.37C3.11,16.13,3.36,17.01,3.76,17.81z"/>
	<path class="st0" d="M15.13,14.62c-1.09-0.01-1.7-0.75-1.91-1.43c-0.21-0.68-0.11-1.63,0.78-2.25c0.34-0.23,0.66-0.5,0.96-0.8
		c1.42-1.42,2.14-3.37,1.99-5.37c-0.07-0.9-0.31-1.78-0.72-2.58c2.18,1.74,3.57,4.35,3.74,7.18l0,0.01C19.99,9.53,20,9.67,20,9.81
		c0,0.03,0,0.05,0,0.07l0,0.01c-0.05,2.6-2.2,4.72-4.81,4.72L15.13,14.62z"/>
	<path class="st0" d="M10.11,19.99c-2.6-0.05-4.72-2.2-4.72-4.81l0-0.06c0.02-1.25,1.05-2,2.05-2c0.67,0,1.25,0.31,1.64,0.88
		c0.23,0.34,0.5,0.66,0.8,0.96c1.3,1.3,3.02,2.01,4.86,2.01c0.17,0,0.35-0.01,0.52-0.02c0.9-0.07,1.78-0.31,2.58-0.72
		c-1.74,2.18-4.35,3.57-7.18,3.74l-0.01,0c-0.15,0.01-0.29,0.02-0.43,0.02C10.17,19.99,10.11,19.99,10.11,19.99z"/>
</g>
</svg>
