<svg width="48" height="48" viewBox="0 0 48 48" fill="none" xmlns="http://www.w3.org/2000/svg">
<path d="M45.5517 0H2.44829C1.09696 0 0 1.09696 0 2.44829V45.5477C0 46.8991 1.09696 47.996 2.44829 47.996H45.5477C46.8991 47.996 47.996 46.8991 47.996 45.5477V2.44829C48 1.09696 46.8991 0 45.5517 0ZM47.0183 45.5517C47.0183 46.3625 46.3585 47.0223 45.5477 47.0223H2.44829C1.63749 47.0223 0.977726 46.3625 0.977726 45.5517V2.44829C0.977726 1.63749 1.63749 0.977726 2.44829 0.977726H45.5477C46.3585 0.977726 47.0183 1.63749 47.0183 2.44829V45.5517Z" fill="#373737"/>
<path d="M38.1194 18.7994H39.3077C39.578 18.7994 39.7966 18.5808 39.7966 18.3105C39.7966 18.0403 39.578 17.8217 39.3077 17.8217H38.1194C37.8491 17.8217 37.6305 18.0403 37.6305 18.3105C37.6305 18.5808 37.8491 18.7994 38.1194 18.7994Z" fill="#373737"/>
<path d="M30.3374 22.9766C30.0671 22.9766 29.8485 23.1952 29.8485 23.4654C29.8485 23.7357 30.0671 23.9543 30.3374 23.9543H34.9637C35.234 23.9543 35.4526 23.7357 35.4526 23.4654C35.4526 23.1952 35.234 22.9766 34.9637 22.9766H30.3374Z" fill="#373737"/>
<path d="M41.6209 22.9766H36.9946C36.7243 22.9766 36.5057 23.1952 36.5057 23.4654C36.5057 23.7357 36.7243 23.9543 36.9946 23.9543H41.6209C41.8912 23.9543 42.1098 23.7357 42.1098 23.4654C42.1098 23.1952 41.8912 22.9766 41.6209 22.9766Z" fill="#373737"/>
<path d="M33.0161 28.1355H30.8262V28.1315H30.3333C30.0631 28.1315 29.8445 28.3501 29.8445 28.6204V32.8055C29.8445 33.4534 30.3771 33.9859 31.0249 33.9859H31.9589V36.5177H22.0863V33.982H23.0203C23.6681 33.982 24.2007 33.4494 24.2007 32.8015V27.5671C24.2007 27.1578 23.8668 26.8239 23.4575 26.8239H16.2239C15.8145 26.8239 15.4806 27.1578 15.4806 27.5671V32.8055C15.4806 33.4573 16.0092 33.9859 16.6611 33.9859H17.5951V36.5177H7.71845V33.982H8.65246C9.3003 33.982 9.83288 33.4494 9.83288 32.8015V15.1945C9.83288 14.5427 9.30427 14.0141 8.65246 14.0141H7.71845V11.4823H17.5951V14.0141H16.6611C16.0092 14.0141 15.4806 14.5427 15.4806 15.1945V20.4329C15.4806 20.8423 15.8145 21.1761 16.2239 21.1761H23.4535C23.8629 21.1761 24.1967 20.8423 24.1967 20.4329V15.1945C24.1967 14.5427 23.6681 14.0141 23.0163 14.0141H22.0823V11.4823H31.9589V14.0141H31.0249C30.3731 14.0141 29.8445 14.5427 29.8445 15.1945V18.3224C29.8445 18.5172 29.9637 18.6841 30.1346 18.7557C30.1942 18.7835 30.2618 18.7994 30.3333 18.7994H36.0884C36.3587 18.7994 36.5773 18.5808 36.5773 18.3105C36.5773 18.0403 36.3587 17.8217 36.0884 17.8217H30.8262V15.1945C30.8262 15.0832 30.9136 14.9958 31.0249 14.9958H32.1934C32.6028 14.9958 32.9366 14.6619 32.9366 14.2526V11.2478C32.9366 10.8345 32.6028 10.5046 32.1934 10.5046H21.8518C21.4424 10.5046 21.1085 10.8385 21.1085 11.2478V14.2486C21.1085 14.6619 21.4424 14.9958 21.8557 14.9958H23.0242C23.1355 14.9958 23.223 15.0832 23.223 15.1945V20.1984H16.4623V15.1945C16.4623 15.0832 16.5498 14.9958 16.6611 14.9958H17.8296C18.2389 14.9958 18.5728 14.6619 18.5728 14.2526V11.2478C18.5728 10.8385 18.2389 10.5046 17.8296 10.5046H7.48395C7.07458 10.5046 6.74072 10.8385 6.74072 11.2478V14.2486C6.74072 14.6619 7.07458 14.9958 7.48395 14.9958H8.65246C8.76374 14.9958 8.85118 15.0832 8.85118 15.1945V32.8055C8.85118 32.9168 8.75977 33.0042 8.65246 33.0042H7.48395C7.07458 33.0042 6.74072 33.3381 6.74072 33.7475V36.7482C6.74072 37.1616 7.07458 37.4914 7.48395 37.4914H17.8296C18.2389 37.4914 18.5728 37.1576 18.5728 36.7482V33.7475C18.5728 33.3381 18.2389 33.0042 17.8296 33.0042H16.6611C16.5498 33.0042 16.4623 32.9128 16.4623 32.8055V27.8016H23.223V32.8055C23.223 32.9168 23.1355 33.0042 23.0242 33.0042H21.8518C21.4424 33.0042 21.1085 33.3381 21.1085 33.7475V36.7482C21.1085 37.1616 21.4424 37.4914 21.8557 37.4914H32.1934C32.6067 37.4914 32.9366 37.1576 32.9366 36.7482V33.7475C32.9366 33.3341 32.6028 33.0042 32.1934 33.0042H31.0249C30.9136 33.0042 30.8262 32.9128 30.8262 32.8055V29.1172H33.0161C33.2864 29.1172 33.505 28.8986 33.505 28.6283C33.505 28.3541 33.2864 28.1355 33.0161 28.1355Z" fill="#373737"/>
<path d="M37.4755 28.1355H35.1623C34.8921 28.1355 34.6735 28.3541 34.6735 28.6243C34.6735 28.8946 34.8921 29.1132 35.1623 29.1132H37.4755C37.7458 29.1132 37.9643 28.8946 37.9643 28.6243C37.9683 28.3541 37.7458 28.1355 37.4755 28.1355Z" fill="#373737"/>
</svg>
