<svg width="48" height="48" viewBox="0 0 48 48" fill="none" xmlns="http://www.w3.org/2000/svg">
<path d="M46 0H2C0.9 0 0 0.9 0 2V46C0 47.1 0.9 48 2 48H46C47.1 48 48 47.1 48 46V2C48 0.9 47.1 0 46 0ZM2 1H46C46.55 1 47 1.45 47 2V9.3H1V2C1 1.45 1.45 1 2 1ZM46 47H2C1.45 47 1 46.55 1 46V10.3H47V46C47 46.55 46.55 47 46 47Z" fill="#373737"/>
<path d="M5.79004 6.35001C6.34232 6.35001 6.79004 5.90229 6.79004 5.35001C6.79004 4.79772 6.34232 4.35001 5.79004 4.35001C5.23775 4.35001 4.79004 4.79772 4.79004 5.35001C4.79004 5.90229 5.23775 6.35001 5.79004 6.35001Z" fill="#373737"/>
<path d="M10.48 6.35001C11.0323 6.35001 11.48 5.90229 11.48 5.35001C11.48 4.79772 11.0323 4.35001 10.48 4.35001C9.9277 4.35001 9.47998 4.79772 9.47998 5.35001C9.47998 5.90229 9.9277 6.35001 10.48 6.35001Z" fill="#373737"/>
<path d="M15.17 6.35001C15.7223 6.35001 16.17 5.90229 16.17 5.35001C16.17 4.79772 15.7223 4.35001 15.17 4.35001C14.6178 4.35001 14.17 4.79772 14.17 5.35001C14.17 5.90229 14.6178 6.35001 15.17 6.35001Z" fill="#373737"/>
<path d="M16.15 30.24H7.34998C6.51998 30.24 5.84998 30.91 5.84998 31.74V40.54C5.84998 41.37 6.51998 42.04 7.34998 42.04H16.15C16.98 42.04 17.65 41.37 17.65 40.54V31.74C17.65 30.91 16.97 30.24 16.15 30.24ZM16.65 40.54C16.65 40.82 16.43 41.04 16.15 41.04H7.34998C7.06998 41.04 6.84998 40.82 6.84998 40.54V31.74C6.84998 31.46 7.06998 31.24 7.34998 31.24H16.15C16.43 31.24 16.65 31.46 16.65 31.74V40.54Z" fill="#373737"/>
<path d="M40.6901 33.57H21.0601C20.7801 33.57 20.5601 33.79 20.5601 34.07C20.5601 34.35 20.7801 34.57 21.0601 34.57H40.6901C40.9701 34.57 41.1901 34.35 41.1901 34.07C41.1901 33.79 40.9701 33.57 40.6901 33.57Z" fill="#373737"/>
<path d="M31.2801 37.7H21.0601C20.7801 37.7 20.5601 37.92 20.5601 38.2C20.5601 38.48 20.7801 38.7 21.0601 38.7H31.2701C31.5501 38.7 31.7701 38.48 31.7701 38.2C31.7701 37.92 31.5501 37.7 31.2801 37.7Z" fill="#373737"/>
<path d="M14.2699 33.11H13.9199H13.7199H9.76994H9.24994C9.07994 33.11 8.93994 33.25 8.93994 33.42V33.95V35.14V35.67C8.93994 35.84 9.07994 35.98 9.24994 35.98H9.77994H9.89994H10.0699C10.2399 35.98 10.3799 36.12 10.3799 36.29V37.08C10.3799 37.25 10.2399 37.39 10.0699 37.39C9.89994 37.39 9.75994 37.53 9.75994 37.7V38.23V38.35V38.88C9.75994 39.05 9.89994 39.19 10.0699 39.19H10.5999H12.8999H13.4299C13.5999 39.19 13.7399 39.05 13.7399 38.88V38.35V38.23V37.7C13.7399 37.53 13.5999 37.39 13.4299 37.39C13.2599 37.39 13.1199 37.25 13.1199 37.08V36.29C13.1199 36.12 13.2599 35.98 13.4299 35.98H13.6199H13.7399H14.2699C14.4399 35.98 14.5799 35.84 14.5799 35.67V35.14V33.95V33.8V33.4C14.5499 33.23 14.4299 33.11 14.2699 33.11ZM13.7199 35.13H13.5999C13.5299 34.86 13.4499 34.66 13.3699 34.54C13.2899 34.42 13.1699 34.32 13.0199 34.25C12.9399 34.21 12.7899 34.19 12.5899 34.19H12.5699C12.3999 34.19 12.2599 34.33 12.2599 34.5V37.58C12.2599 37.8 12.2699 37.94 12.2999 38C12.3199 38.06 12.3699 38.11 12.4499 38.15C12.5199 38.19 12.6199 38.21 12.7499 38.21H12.8999V38.33H10.5999V38.21H10.7499C10.8799 38.21 10.9799 38.19 11.0599 38.14C11.1199 38.11 11.1599 38.06 11.1899 37.98C11.2099 37.93 11.2299 37.79 11.2299 37.57V34.5C11.2299 34.33 11.0899 34.19 10.9199 34.19H10.8999C10.5999 34.19 10.3899 34.25 10.2599 34.38C10.0699 34.55 9.94994 34.8 9.89994 35.13H9.76994V34.25C9.76994 34.08 9.90994 33.94 10.0799 33.94H13.7099V35.13H13.7199Z" fill="#373737"/>
<path d="M16.15 14.43H7.34998C6.51998 14.43 5.84998 15.1 5.84998 15.93V24.73C5.84998 25.56 6.51998 26.23 7.34998 26.23H16.15C16.98 26.23 17.65 25.56 17.65 24.73V15.93C17.65 15.1 16.97 14.43 16.15 14.43ZM16.65 24.73C16.65 25.01 16.43 25.23 16.15 25.23H7.34998C7.06998 25.23 6.84998 25.01 6.84998 24.73V15.93C6.84998 15.65 7.06998 15.43 7.34998 15.43H16.15C16.43 15.43 16.65 15.65 16.65 15.93V24.73Z" fill="#373737"/>
<path d="M40.6901 17.77H21.0601C20.7801 17.77 20.5601 17.99 20.5601 18.27C20.5601 18.55 20.7801 18.77 21.0601 18.77H40.6901C40.9701 18.77 41.1901 18.55 41.1901 18.27C41.1901 17.99 40.9701 17.77 40.6901 17.77Z" fill="#373737"/>
<path d="M21.0601 22.89H31.2701C31.5501 22.89 31.7701 22.67 31.7701 22.39C31.7701 22.11 31.5501 21.89 31.2701 21.89H21.0601C20.7801 21.89 20.5601 22.11 20.5601 22.39C20.5601 22.67 20.7901 22.89 21.0601 22.89Z" fill="#373737"/>
<path d="M14.2699 17.3H13.9199H13.7199H9.76994H9.24994C9.07994 17.3 8.93994 17.44 8.93994 17.61V18.14V19.33V19.86C8.93994 20.03 9.07994 20.17 9.24994 20.17H9.77994H9.89994H10.0699C10.2399 20.17 10.3799 20.31 10.3799 20.48V21.27C10.3799 21.44 10.2399 21.58 10.0699 21.58C9.89994 21.58 9.75994 21.72 9.75994 21.89V22.42V22.54V23.07C9.75994 23.24 9.89994 23.38 10.0699 23.38H10.5999H12.8999H13.4299C13.5999 23.38 13.7399 23.24 13.7399 23.07V22.54V22.4V21.87C13.7399 21.7 13.5999 21.56 13.4299 21.56C13.2599 21.56 13.1199 21.42 13.1199 21.25V20.46C13.1199 20.29 13.2599 20.15 13.4299 20.15H13.6199H13.7399H14.2699C14.4399 20.15 14.5799 20.01 14.5799 19.84V19.31V18.12V17.97V17.57C14.5499 17.42 14.4299 17.3 14.2699 17.3ZM13.7199 19.32H13.5999C13.5299 19.05 13.4499 18.85 13.3699 18.73C13.2899 18.61 13.1699 18.51 13.0199 18.44C12.9399 18.4 12.7899 18.38 12.5899 18.38H12.5699C12.3999 18.38 12.2599 18.52 12.2599 18.69V21.77C12.2599 21.99 12.2699 22.13 12.2999 22.19C12.3199 22.25 12.3699 22.3 12.4499 22.34C12.5199 22.38 12.6199 22.4 12.7499 22.4H12.8999V22.52H10.5999V22.4H10.7499C10.8799 22.4 10.9799 22.38 11.0599 22.33C11.1199 22.3 11.1599 22.25 11.1899 22.17C11.2099 22.12 11.2299 21.98 11.2299 21.76V18.7C11.2299 18.53 11.0899 18.39 10.9199 18.39H10.8999C10.5999 18.39 10.3899 18.45 10.2599 18.58C10.0599 18.75 9.94994 19 9.89994 19.32H9.76994V18.44C9.76994 18.27 9.90994 18.13 10.0799 18.13H13.7099V19.32H13.7199Z" fill="#373737"/>
</svg>
