<svg width="48" height="48" viewBox="0 0 48 48" fill="none" xmlns="http://www.w3.org/2000/svg">
<path d="M47 0H1C0.45 0 0 0.45445 0 1.00989V18.1881C0 18.7435 0.45 19.198 1 19.198H14.51L14.24 18.1881H1V1.00989H47V18.1881H22.63L22.9 19.198H47C47.55 19.198 48 18.7435 48 18.1881V1.00989C48 0.45445 47.55 0 47 0Z" fill="#373737"/>
<path d="M27.17 48C25.96 48 24.77 47.4648 23.97 46.5054L22.85 45.1723C21.03 43.0112 18.66 41.4256 15.98 40.5773L13.31 39.7391C12.46 39.4664 11.76 38.8504 11.37 38.0425C10.99 37.2346 10.95 36.2954 11.27 35.4572C11.82 34.0332 13.25 33.195 14.74 33.4273L19.5 34.1443L15.2 17.8952C14.77 16.2592 15.73 14.5626 17.36 14.1283C18.99 13.6941 20.66 14.6636 21.09 16.3097L22.76 22.6013C23.14 22.0257 23.72 21.5813 24.43 21.3894C25.18 21.1875 25.97 21.2884 26.65 21.6823C27.33 22.0762 27.81 22.7124 28.01 23.4799L28.18 24.1161C28.6 23.4496 29.23 22.975 29.99 22.773C30.79 22.5609 31.62 22.672 32.33 23.0861C33.04 23.5001 33.56 24.1767 33.77 24.9846L33.85 25.3078C34.23 24.7221 34.83 24.2676 35.55 24.0656C36.32 23.8637 37.11 23.9647 37.8 24.3686C38.49 24.7726 38.98 25.4189 39.18 26.1864L42.73 39.5775C43.33 41.8296 42 44.1523 39.77 44.7583L28.24 47.8788C27.89 47.9495 27.53 48 27.17 48ZM16.29 39.6078C19.15 40.5066 21.68 42.2032 23.62 44.5159L24.74 45.8489C25.53 46.7881 26.81 47.2022 27.99 46.879L39.52 43.7585C40.34 43.5363 41.03 43.0011 41.45 42.2638C41.87 41.5165 41.99 40.6581 41.77 39.8199L38.22 26.4288C38.09 25.9137 37.76 25.4896 37.31 25.227C36.85 24.9644 36.32 24.8938 35.82 25.025C35.31 25.1664 34.89 25.4896 34.63 25.9541C34.37 26.4086 34.3 26.9438 34.43 27.4589L35.24 30.5188C35.31 30.7915 35.15 31.0642 34.89 31.1349C34.62 31.2056 34.35 31.044 34.28 30.7814L32.81 25.2371C32.67 24.6918 32.32 24.2373 31.84 23.9546C31.36 23.6718 30.79 23.6011 30.26 23.7425C29.72 23.8839 29.27 24.2373 28.99 24.7221C28.71 25.2068 28.64 25.7825 28.78 26.3177L30.25 31.862C30.32 32.1347 30.16 32.4073 29.9 32.478C29.63 32.5487 29.36 32.3871 29.29 32.1246L27.06 23.7324C26.93 23.2274 26.61 22.8134 26.17 22.5508C25.73 22.2882 25.21 22.2175 24.71 22.3589C23.69 22.6316 23.08 23.7021 23.35 24.7322L25.56 33.0436C25.63 33.3162 25.47 33.5889 25.21 33.6596C24.94 33.7303 24.67 33.5687 24.6 33.3061L20.16 16.5622C19.87 15.4614 18.75 14.805 17.65 15.0978C17.12 15.2392 16.68 15.5826 16.41 16.0572C16.14 16.5319 16.06 17.0974 16.21 17.6226L20.56 34.0231C20.64 34.316 20.56 34.6291 20.36 34.8614C20.16 35.0835 19.86 35.1946 19.56 35.1542L14.64 34.4069C13.61 34.2554 12.63 34.8311 12.25 35.8106C12.02 36.3964 12.05 37.0225 12.32 37.5881C12.59 38.1536 13.06 38.5676 13.66 38.7595L16.29 39.6078Z" fill="#373737"/>
</svg>
