<svg width="48" height="48" viewBox="0 0 48 48" fill="none" xmlns="http://www.w3.org/2000/svg">
<path d="M47.1478 7.82694C46.4327 6.9551 45.3747 6.44571 44.2482 6.44571H8.91429L8.67918 4.36898C8.3951 1.88082 6.29878 0 3.80082 0H0.489796C0.21551 0 0 0.21551 0 0.489796C0 0.764082 0.21551 0.979592 0.489796 0.979592H3.80082C5.79918 0.979592 7.47429 2.48816 7.69959 4.48653L7.9249 6.45551H7.90531L10.7657 31.7584L11.1771 35.3829C11.4514 37.8024 13.4792 39.6245 15.9086 39.6245H42.0931C42.3673 39.6245 42.5829 39.409 42.5829 39.1347C42.5829 38.8604 42.3673 38.6449 42.0931 38.6449H15.9086C13.9788 38.6449 12.3722 37.1951 12.1567 35.2751L11.8433 32.5224H41.5641C43.3371 32.5224 44.8751 31.2588 45.2376 29.4857L47.9216 10.9714C48.1469 9.85469 47.8727 8.70857 47.1478 7.82694ZM46.9616 10.8049L44.2776 29.3192C44.0131 30.6024 42.8767 31.5429 41.5641 31.5429H11.7355L9.02204 7.4351H44.258C45.0906 7.4351 45.8645 7.80735 46.3935 8.45388C46.9225 9.10041 47.1282 9.95265 46.9616 10.8049Z" fill="#373737"/>
<path d="M20.493 40.6139C18.4653 40.6139 16.8098 42.2694 16.8098 44.3069C16.8098 46.3445 18.4653 48 20.493 48C22.5208 48 24.1763 46.3445 24.1763 44.3069C24.1763 42.2694 22.5306 40.6139 20.493 40.6139ZM20.493 47.0204C19.004 47.0204 17.7893 45.8057 17.7893 44.3069C17.7893 42.8081 19.004 41.5935 20.493 41.5935C21.982 41.5935 23.1967 42.8081 23.1967 44.3069C23.1967 45.8057 21.982 47.0204 20.493 47.0204Z" fill="#373737"/>
<path d="M35.902 40.6139C33.8743 40.6139 32.2286 42.2694 32.2286 44.3069C32.2286 46.3445 33.8743 48 35.902 48C37.9298 48 39.5755 46.3445 39.5755 44.3069C39.5755 42.2694 37.9298 40.6139 35.902 40.6139ZM35.902 47.0204C34.4131 47.0204 33.2082 45.8057 33.2082 44.3069C33.2082 42.8081 34.4229 41.5935 35.902 41.5935C37.3812 41.5935 38.5959 42.8081 38.5959 44.3069C38.5959 45.8057 37.391 47.0204 35.902 47.0204Z" fill="#373737"/>
</svg>
