<svg width="48" height="48" viewBox="0 0 48 48" fill="none" xmlns="http://www.w3.org/2000/svg">
<path d="M24 0C10.75 0 0 10.75 0 24C0 37.25 10.75 48 24 48C37.25 48 48 37.25 48 24C48 10.75 37.25 0 24 0ZM24 47C11.32 47 1 36.68 1 24C1 11.32 11.32 1 24 1C36.68 1 47 11.32 47 24C47 36.68 36.68 47 24 47Z" fill="#373737"/>
<path d="M29.94 17.37L24 23.32L15.35 14.66C15.15 14.46 14.84 14.46 14.64 14.66C14.44 14.86 14.44 15.17 14.64 15.37L23.29 24.03L21.74 25.58C21.54 25.78 21.54 26.09 21.74 26.29C21.84 26.39 21.97 26.44 22.09 26.44C22.21 26.44 22.35 26.39 22.44 26.29L24 24.73L26.01 26.74C26.11 26.84 26.24 26.89 26.36 26.89C26.48 26.89 26.62 26.84 26.71 26.74C26.91 26.54 26.91 26.23 26.71 26.03L24.7 24.02L30.64 18.08C30.84 17.88 30.84 17.57 30.64 17.37C30.44 17.17 30.14 17.18 29.94 17.37Z" fill="#373737"/>
<path d="M24 7.32C24.28 7.32 24.5 7.1 24.5 6.82V4.17C24.5 3.89 24.28 3.67 24 3.67C23.72 3.67 23.5 3.89 23.5 4.17V6.82C23.5 7.1 23.72 7.32 24 7.32Z" fill="#373737"/>
<path d="M24 40.68C23.72 40.68 23.5 40.9 23.5 41.18V43.83C23.5 44.11 23.72 44.33 24 44.33C24.28 44.33 24.5 44.11 24.5 43.83V41.18C24.5 40.9 24.28 40.68 24 40.68Z" fill="#373737"/>
<path d="M37.67 9.62L35.79 11.5C35.59 11.7 35.59 12.01 35.79 12.21C35.89 12.31 36.02 12.36 36.14 12.36C36.26 12.36 36.4 12.31 36.49 12.21L38.37 10.33C38.57 10.13 38.57 9.82 38.37 9.62C38.17 9.42 37.87 9.43 37.67 9.62Z" fill="#373737"/>
<path d="M11.5 35.79L9.62 37.67C9.42 37.87 9.42 38.18 9.62 38.38C9.72 38.48 9.85 38.53 9.97 38.53C10.09 38.53 10.23 38.48 10.32 38.38L12.2 36.5C12.4 36.3 12.4 35.99 12.2 35.79C12 35.59 11.69 35.6 11.5 35.79Z" fill="#373737"/>
<path d="M43.83 23.5H41.18C40.9 23.5 40.68 23.72 40.68 24C40.68 24.28 40.9 24.5 41.18 24.5H43.83C44.11 24.5 44.33 24.28 44.33 24C44.33 23.72 44.11 23.5 43.83 23.5Z" fill="#373737"/>
<path d="M6.82001 23.5H4.17001C3.89001 23.5 3.67001 23.72 3.67001 24C3.67001 24.28 3.89001 24.5 4.17001 24.5H6.82001C7.10001 24.5 7.32001 24.28 7.32001 24C7.32001 23.72 7.10001 23.5 6.82001 23.5Z" fill="#373737"/>
<path d="M36.5 35.79C36.3 35.59 35.99 35.59 35.79 35.79C35.59 35.99 35.59 36.3 35.79 36.5L37.67 38.38C37.77 38.48 37.9 38.53 38.02 38.53C38.14 38.53 38.28 38.48 38.37 38.38C38.57 38.18 38.57 37.87 38.37 37.67L36.5 35.79Z" fill="#373737"/>
<path d="M10.33 9.62C10.13 9.42 9.82 9.42 9.62 9.62C9.42 9.82 9.42 10.13 9.62 10.33L11.5 12.21C11.6 12.31 11.73 12.36 11.85 12.36C11.97 12.36 12.11 12.31 12.2 12.21C12.4 12.01 12.4 11.7 12.2 11.5L10.33 9.62Z" fill="#373737"/>
</svg>
