<svg width="48" height="48" viewBox="0 0 48 48" fill="none" xmlns="http://www.w3.org/2000/svg">
<path d="M40.14 6.23C39.57 5.71 38.98 5.22 38.36 4.76C37.13 3.84 35.8 3.03 34.41 2.36C34.06 2.19 33.71 2.03 33.35 1.88C32.63 1.58 31.9 1.31 31.15 1.07C28.88 0.38 26.49 0 24 0C23.17 0 22.35 0.04 21.55 0.12C20.74 0.2 19.95 0.32 19.17 0.48C18.77 0.57 18.39 0.66 18 0.76C17.23 0.96 16.48 1.19 15.75 1.46C14.28 2 12.88 2.68 11.56 3.48C11.23 3.68 10.91 3.89 10.59 4.1C9.94 4.53 9.33 4.99 8.73 5.48C8.14 5.97 7.57 6.49 7.03 7.03C6.49 7.57 5.97 8.14 5.48 8.73C4.26 10.21 3.21 11.84 2.37 13.59C1.7 14.99 1.15 16.46 0.76 18C0.39 19.44 0.15 20.93 0.05 22.46C0.02 22.97 0 23.48 0 24C0 24.52 0.02 25.03 0.05 25.54C0.15 27.07 0.39 28.56 0.76 30C0.86 30.41 0.98 30.81 1.11 31.2C1.24 31.6 1.37 31.99 1.52 32.38C1.52 32.38 1.51 32.38 1.51 32.39L1.54 32.43C1.79 33.1 2.07 33.76 2.38 34.41C3.22 36.16 4.27 37.79 5.49 39.27C5.98 39.86 6.5 40.43 7.04 40.97C7.58 41.51 8.15 42.03 8.74 42.52C9.33 43.01 9.95 43.47 10.59 43.9C10.91 44.12 11.23 44.32 11.56 44.52C12.88 45.32 14.28 46 15.75 46.54C16.49 46.81 17.24 47.04 18 47.24C18.38 47.34 18.77 47.43 19.16 47.51C19.94 47.67 20.74 47.79 21.54 47.87C22.35 47.96 23.17 48 24 48C26.49 48 28.88 47.62 31.14 46.92C31.89 46.69 32.63 46.42 33.34 46.11C33.7 45.96 34.05 45.8 34.4 45.63C35.8 44.96 37.12 44.15 38.35 43.23C38.97 42.77 39.56 42.28 40.13 41.76C44.97 37.38 48 31.04 48 24C48 16.96 44.97 10.63 40.14 6.23ZM1 24C1 11.32 11.32 1 24 1C36.68 1 47 11.32 47 24C47 26.86 46.47 29.6 45.51 32.13C43.43 30.86 41.37 29.34 39.42 27.72C34.2 23.39 29.71 18.39 27.4 15.82C26.27 14.57 25.87 14.12 25.65 13.97C24.8 13.41 23.81 13.69 23.27 13.92C23.08 13.73 22.87 13.63 22.69 13.58L21.68 13.66C21.12 13.89 20.72 14.34 20.62 14.46C18.82 17.52 16.06 20.55 13.13 23.28C9.23 26.91 5.03 29.98 2.37 31.81C1.48 29.36 1 26.74 1 24ZM35.11 29.59C35.1 29.59 35.09 29.6 35.07 29.6C34.48 29.6 31.39 26.34 29.67 24.16C28.44 22.59 27.6 22.36 27.21 22.36C27.04 22.36 26.96 22.4 26.96 22.4C26.96 22.4 26.16 23.36 26.64 26.56C27.12 29.76 26.48 31.2 25.36 31.52C25.3 31.54 25.24 31.55 25.17 31.55C24.08 31.55 22.77 29.1 22.32 28.64C22.06 28.38 21.57 28.08 21.05 28.08C20.6 28.08 20.13 28.3 19.76 28.96C18.96 30.39 18.48 31.84 17.84 31.84C17.2 31.84 17.52 31.04 17.84 29.92C18.16 28.8 17.67 28.96 17.04 28.64C17 28.61 16.95 28.6 16.9 28.6C16.15 28.6 14.26 30.4 13.45 30.4C13.42 30.4 13.39 30.4 13.36 30.39C12.56 30.23 15.12 26.72 15.76 24.31C16.05 23.24 15.57 22.93 14.95 22.92C17.49 20.44 19.83 17.75 21.42 15.04C21.52 14.93 21.73 14.75 21.95 14.64C22.08 14.57 22.22 14.52 22.33 14.52C22.36 14.52 22.42 14.53 22.5 14.59C22.56 14.63 22.62 14.69 22.7 14.81L22.96 15.23L23.38 14.97C23.39 14.96 24.41 14.36 25.08 14.8C25.24 14.91 25.92 15.68 26.65 16.49C28.54 18.6 31.89 22.32 35.91 25.99C35.15 25.69 34.41 25.52 33.93 25.52C33.76 25.52 33.62 25.54 33.52 25.59C32.88 25.91 35.59 29.43 35.11 29.59ZM24 47C14.42 47 6.19 41.11 2.74 32.76C5.36 30.98 9.57 27.92 13.53 24.27L13.54 24.29C13.63 24.26 13.73 24.22 13.83 24.17C14.21 24.03 14.57 23.93 14.83 23.92C14.82 23.96 14.81 24 14.8 24.05C14.54 25.04 13.89 26.29 13.31 27.39C12.42 29.11 11.97 29.97 12.33 30.72C12.49 31.06 12.79 31.29 13.16 31.36C13.25 31.38 13.34 31.39 13.44 31.39C14.16 31.39 14.91 30.88 15.78 30.3C16.09 30.09 16.58 29.76 16.84 29.64C16.85 29.64 16.86 29.65 16.86 29.65L16.77 30C16.49 30.94 16.27 31.68 16.74 32.31C16.89 32.5 17.22 32.83 17.84 32.83C18.93 32.83 19.46 31.77 20.07 30.53C20.24 30.18 20.43 29.81 20.64 29.43C20.85 29.06 21 29.06 21.05 29.06C21.23 29.06 21.49 29.2 21.62 29.33C21.68 29.4 21.88 29.68 22.02 29.89C22.79 31.01 23.85 32.53 25.18 32.53C25.34 32.53 25.49 32.51 25.64 32.47C26.91 32.11 28.29 30.76 27.63 26.4C27.41 24.92 27.49 24.01 27.59 23.51C27.87 23.68 28.31 24.04 28.89 24.77C28.94 24.83 33.52 30.6 35.08 30.6H35.24L35.43 30.54C35.74 30.44 35.98 30.2 36.1 29.9C36.34 29.26 35.98 28.65 35.27 27.41C35.16 27.22 35.01 26.95 34.86 26.69C35.58 26.9 36.47 27.29 37.1 27.76C37.26 28.34 37.56 29.03 38.32 29.03C38.66 29.03 38.89 28.9 39.05 28.73C41 30.33 43.05 31.83 45.12 33.08C41.61 41.26 33.46 47 24 47Z" fill="#373737"/>
</svg>
