<svg width="48" height="48" viewBox="0 0 48 48" fill="none" xmlns="http://www.w3.org/2000/svg">
<path d="M47 1V47H1V1H47ZM47 0H1C0.45 0 0 0.45 0 1V47C0 47.55 0.45 48 1 48H47C47.55 48 48 47.55 48 47V1C48 0.45 47.55 0 47 0Z" fill="#373737"/>
<path d="M22.18 5.35001V11.02H5.23999V5.35001H22.18ZM22.18 4.35001H5.23999C4.68999 4.35001 4.23999 4.80001 4.23999 5.35001V11.02C4.23999 11.57 4.68999 12.02 5.23999 12.02H22.17C22.72 12.02 23.17 11.57 23.17 11.02V5.35001C23.18 4.80001 22.73 4.35001 22.18 4.35001Z" fill="#373737"/>
<path d="M42.76 36.99V42.66H5.23999V36.99H42.76ZM42.76 35.99H5.23999C4.68999 35.99 4.23999 36.44 4.23999 36.99V42.66C4.23999 43.21 4.68999 43.66 5.23999 43.66H42.75C43.3 43.66 43.75 43.21 43.75 42.66V36.99C43.76 36.43 43.31 35.99 42.76 35.99Z" fill="#373737"/>
<path d="M42.76 15.65V32.35H5.23999V15.65H42.76V15.65ZM42.76 14.65H5.23999C4.68999 14.65 4.23999 15.1 4.23999 15.65V32.35C4.23999 32.9 4.68999 33.35 5.23999 33.35H42.75C43.3 33.35 43.75 32.9 43.75 32.35V15.65C43.76 15.1 43.31 14.65 42.76 14.65Z" fill="#373737"/>
<path d="M42.7599 5.35001V11.02H25.8199V5.35001H42.7599ZM42.7599 4.35001H25.8199C25.2699 4.35001 24.8199 4.80001 24.8199 5.35001V11.02C24.8199 11.57 25.2699 12.02 25.8199 12.02H42.7499C43.2999 12.02 43.7499 11.57 43.7499 11.02V5.35001C43.7599 4.80001 43.3099 4.35001 42.7599 4.35001Z" fill="#373737"/>
</svg>
