<svg width="49" height="18" viewBox="0 0 49 18" fill="none" xmlns="http://www.w3.org/2000/svg">
<path d="M0 2.2V3.71L3.12 1.84V16.84H4.45V0.339996H3.12L0 2.2Z" fill="#373737"/>
<path d="M18.93 8.39C19.25 7.94 19.49 7.46 19.63 6.95C19.78 6.43 19.85 5.85 19.85 5.19C19.85 4.24 19.62 3.38 19.16 2.59C18.7 1.8 18.1 1.17 17.31 0.7C16.53 0.23 15.65 0 14.66 0C13.68 0 12.8 0.23 12.01 0.69C11.22 1.15 10.59 1.77 10.13 2.55C9.67005 3.33 9.43005 4.21 9.43005 5.18H10.76C10.76 4.49 10.93 3.84 11.27 3.26C11.61 2.68 12.07 2.2 12.66 1.84C13.25 1.48 13.91 1.3 14.65 1.3C15.38 1.3 16.03 1.47 16.62 1.82C17.2 2.17 17.67 2.64 18.01 3.22C18.35 3.81 18.53 4.46 18.53 5.18C18.53 5.81 18.43 6.41 18.22 6.96C18.01 7.51 17.57 8.09 16.9 8.7L9.32005 15.59L9.30005 16.85H19.88V15.56H11.31L17.71 9.75C18.2 9.29 18.61 8.84 18.93 8.39Z" fill="#373737"/>
<path d="M31.59 6.97C30.87 6.68 30.08 6.57 29.2 6.63L34.41 1.65V0.339996H25.07V1.63H32.61L26.67 7.24L27.38 8.29C27.68 8.14 28.01 8.03 28.37 7.94C28.73 7.85 29.06 7.81 29.37 7.81C30.52 7.81 31.45 8.17 32.14 8.9C32.83 9.63 33.18 10.61 33.18 11.83C33.18 12.64 33.03 13.34 32.73 13.94C32.43 14.54 32 15 31.44 15.34C30.88 15.68 30.2 15.86 29.41 15.88C28.55 15.9 27.79 15.68 27.12 15.24C26.45 14.8 25.96 14.14 25.65 13.27L24.4 13.67C24.63 14.4 24.98 15.02 25.47 15.54C25.95 16.06 26.53 16.46 27.2 16.74C27.87 17.02 28.61 17.16 29.42 17.16C30.43 17.16 31.32 16.94 32.09 16.49C32.86 16.05 33.47 15.43 33.91 14.63C34.35 13.83 34.57 12.9 34.57 11.83C34.57 10.65 34.3 9.64 33.77 8.79C33.25 7.96 32.52 7.35 31.59 6.97Z" fill="#373737"/>
<path d="M48.15 4.91L43.47 0.220001L38.78 4.91L39.49 5.62L42.97 2.14V17.18H43.97V2.14L47.45 5.62L48.15 4.91Z" fill="#373737"/>
</svg>
