<svg width="46" height="32" viewBox="0 0 46 32" fill="none" xmlns="http://www.w3.org/2000/svg">
<path d="M42.57 6.63C40.72 6.63 39.22 8.13 39.22 9.98C39.22 10.35 39.29 10.7 39.41 11.03L32.63 15.23C32.55 15.28 32.44 15.26 32.39 15.19L25.36 5.7C25.98 5.08 26.35 4.24 26.35 3.35C26.35 1.51 24.85 0 23 0C21.15 0 19.64 1.51 19.64 3.36C19.64 4.26 20.02 5.1 20.64 5.71L13.62 15.2C13.57 15.27 13.46 15.29 13.38 15.24L6.53 11C6.63 10.67 6.71 10.33 6.71 9.99C6.71 8.14 5.2 6.63 3.35 6.63C1.5 6.63 0 8.14 0 9.99C0 11.84 1.5 13.34 3.35 13.34C3.43 13.34 3.51 13.32 3.59 13.32L7.76 27.22L6.73 30.16C6.6 30.55 6.66 30.98 6.9 31.32C7.14 31.66 7.53 31.86 7.94 31.86H38.06C38.47 31.86 38.86 31.66 39.1 31.32C39.34 30.99 39.4 30.55 39.26 30.16L38.23 27.22L42.4 13.33C42.46 13.33 42.51 13.35 42.57 13.35C44.42 13.35 45.92 11.85 45.92 10C45.92 8.15 44.42 6.63 42.57 6.63ZM42.7 12.33C42.66 12.33 42.62 12.34 42.57 12.34C42.26 12.34 41.97 12.28 41.7 12.17C41.3 12.01 40.96 11.74 40.71 11.41C40.51 11.14 40.35 10.84 40.28 10.5C40.24 10.33 40.22 10.16 40.22 9.99C40.22 8.69 41.28 7.64 42.57 7.64C43.86 7.64 44.92 8.7 44.92 9.99C44.93 11.24 43.94 12.26 42.7 12.33ZM23 1C24.3 1 25.35 2.06 25.35 3.36C25.35 4.11 24.99 4.81 24.39 5.24C23.77 5.7 22.96 5.8 22.26 5.58C22.03 5.5 21.8 5.39 21.6 5.24C21 4.81 20.64 4.1 20.64 3.36C20.64 2.06 21.7 1 23 1ZM1 9.99C1 8.69 2.05 7.63 3.35 7.63C4.65 7.63 5.71 8.69 5.71 9.99C5.71 10.34 5.63 10.69 5.48 11C5.17 11.65 4.56 12.13 3.85 12.29C2.38 12.58 1 11.45 1 9.99ZM38.28 30.73C38.25 30.77 38.18 30.85 38.06 30.85H7.94C7.82 30.85 7.75 30.78 7.72 30.74C7.69 30.7 7.64 30.61 7.68 30.49L8.64 27.74H37.35L38.31 30.49C38.36 30.6 38.31 30.69 38.28 30.73ZM37.34 26.73H8.66L4.57 13.11C4.62 13.09 4.66 13.06 4.71 13.04C4.76 13.02 4.81 12.99 4.86 12.97C5.06 12.87 5.25 12.75 5.43 12.62C5.44 12.61 5.44 12.61 5.45 12.6C5.62 12.46 5.77 12.31 5.91 12.14C5.95 12.1 5.98 12.06 6.01 12.02C6.04 11.98 6.07 11.95 6.1 11.91L12.86 16.1C13.38 16.42 14.05 16.29 14.42 15.8L21.43 6.32H21.44C21.66 6.44 21.9 6.52 22.14 6.58C22.17 6.59 22.21 6.6 22.24 6.6C22.49 6.66 22.74 6.7 23 6.7C23.26 6.7 23.51 6.66 23.76 6.6C23.79 6.59 23.81 6.59 23.84 6.58C24.08 6.52 24.32 6.43 24.54 6.31C24.55 6.31 24.55 6.31 24.56 6.3L31.58 15.78C31.94 16.27 32.61 16.39 33.14 16.07L39.85 11.91C40.24 12.45 40.78 12.86 41.41 13.1L37.34 26.73Z" fill="#373737"/>
</svg>
