<svg width="48" height="48" viewBox="0 0 48 48" fill="none" xmlns="http://www.w3.org/2000/svg">
<path d="M27.0368 19.9641H20.9633V12.2351H12.9012V35.7649H20.9633V28.0359H27.0368V35.7649H35.0988V12.2351H27.0368V19.9641ZM28.0163 13.2147H34.1192V34.7853H28.0163V27.0563H19.9837V34.7853H13.8808V13.2147H19.9837V20.9437H28.0163V13.2147Z" fill="#373737"/>
<path d="M48 4.89796V0H43.102V1.95918H26.4C26.1747 0.842449 25.1853 0 24 0C22.8147 0 21.8253 0.842449 21.6 1.95918H4.89796V0H0V4.89796H1.95918V21.6C0.842449 21.8253 0 22.8147 0 24C0 25.1853 0.842449 26.1747 1.95918 26.4V43.102H0V48H4.89796V46.0408H21.6C21.8253 47.1576 22.8147 48 24 48C25.1853 48 26.1747 47.1576 26.4 46.0408H43.102V48H48V43.102H46.0408V26.4C47.1576 26.1747 48 25.1853 48 24C48 22.8147 47.1576 21.8253 46.0408 21.6V4.89796H48ZM44.0816 0.979592H47.0204V3.91837H44.0816V0.979592ZM24 0.979592C24.8131 0.979592 25.4694 1.63592 25.4694 2.44898C25.4694 3.26204 24.8131 3.91837 24 3.91837C23.1869 3.91837 22.5306 3.26204 22.5306 2.44898C22.5306 1.63592 23.1869 0.979592 24 0.979592ZM0.979592 0.979592H3.91837V3.91837H0.979592V0.979592ZM0.979592 24C0.979592 23.1869 1.63592 22.5306 2.44898 22.5306C3.26204 22.5306 3.91837 23.1869 3.91837 24C3.91837 24.8131 3.26204 25.4694 2.44898 25.4694C1.63592 25.4694 0.979592 24.8131 0.979592 24ZM3.91837 47.0204H0.979592V44.0816H3.91837V47.0204ZM24 47.0204C23.1869 47.0204 22.5306 46.3641 22.5306 45.551C22.5306 44.738 23.1869 44.0816 24 44.0816C24.8131 44.0816 25.4694 44.738 25.4694 45.551C25.4694 46.3641 24.8131 47.0204 24 47.0204ZM47.0204 47.0204H44.0816V44.0816H47.0204V47.0204ZM47.0204 24C47.0204 24.8131 46.3641 25.4694 45.551 25.4694C44.738 25.4694 44.0816 24.8131 44.0816 24C44.0816 23.1869 44.738 22.5306 45.551 22.5306C46.3641 22.5306 47.0204 23.1869 47.0204 24ZM45.0612 21.6C43.9445 21.8253 43.102 22.8147 43.102 24C43.102 25.1853 43.9445 26.1747 45.0612 26.4V43.102H43.102V45.0612H26.4C26.1747 43.9445 25.1853 43.102 24 43.102C22.8147 43.102 21.8253 43.9445 21.6 45.0612H4.89796V43.102H2.93878V26.4C4.05551 26.1747 4.89796 25.1853 4.89796 24C4.89796 22.8147 4.05551 21.8253 2.93878 21.6V4.89796H4.89796V2.93878H21.6C21.8253 4.05551 22.8147 4.89796 24 4.89796C25.1853 4.89796 26.1747 4.05551 26.4 2.93878H43.102V4.89796H45.0612V21.6Z" fill="#373737"/>
</svg>
