<svg width="32" height="49" viewBox="0 0 32 49" fill="none" xmlns="http://www.w3.org/2000/svg">
<path d="M31.9992 28.7175C31.9992 27.8616 31.6788 27.0677 31.088 26.4593C30.4973 25.8612 29.7263 25.5313 28.8953 25.5209C28.1043 25.5209 27.3934 25.82 26.8427 26.3252V25.9746C26.8427 25.0879 26.5023 24.2526 25.9015 23.6236C25.2908 22.9946 24.4798 22.6543 23.6187 22.6543C22.7977 22.6543 22.0267 22.9637 21.436 23.5308V22.8296C21.436 21.9944 21.1156 21.2004 20.5448 20.6024C19.9641 20.0043 19.2032 19.6846 18.3821 19.6846C17.6112 19.6846 16.9103 19.9837 16.3696 20.4683V13.5287C16.3696 11.7242 14.9378 10.2599 13.1856 10.2496C11.4335 10.2496 10.0017 11.7242 10.0017 13.5287V31.45L5.38589 29.3878C3.93408 28.7381 2.272 29.2021 1.33082 30.5117C0.780135 31.2851 0.55986 32.2647 0.740085 33.203C0.910298 34.1413 1.46099 34.9766 2.24196 35.4922L4.70504 37.1007C7.17813 38.7197 9.1506 41.0191 10.4022 43.7413L11.1731 45.4324C11.7238 46.6389 12.7751 47.5257 14.0067 47.8556C14.3671 47.9587 14.7476 48.0103 15.1281 48.0103H27.6037C30.0167 48.0103 31.9791 45.9893 31.9791 43.5042L31.9992 28.7175ZM29.9766 45.9171C29.3458 46.5667 28.5148 46.9173 27.6237 46.9173H15.1481C13.8665 46.9173 12.685 46.1439 12.1343 44.9581L11.3634 43.267C10.0217 40.3489 7.91906 37.8947 5.27575 36.1727L2.80266 34.5744C2.25197 34.2135 1.89152 33.6567 1.77137 32.9968C1.65122 32.3368 1.80141 31.6872 2.18189 31.1407C2.82269 30.2333 3.97413 29.9136 4.97538 30.3673L9.74134 32.5018C10.0317 32.6359 10.3621 32.6049 10.6224 32.4296C10.8828 32.2543 11.043 31.945 11.043 31.6253V13.5287C11.043 12.9409 11.2632 12.3841 11.6738 11.9716C12.0743 11.5592 12.6149 11.322 13.1856 11.322C14.3671 11.322 15.3283 12.3119 15.3283 13.5287V32.0069C15.3283 32.3059 15.5586 32.5431 15.849 32.5431C16.1393 32.5431 16.3696 32.3059 16.3696 32.0069V22.84C16.3696 21.6954 17.2707 20.7673 18.3821 20.7673C18.9128 20.7673 19.4234 20.9839 19.8039 21.3757C20.1844 21.7676 20.3947 22.2831 20.3947 22.84V32.0997C20.3947 32.3987 20.6249 32.6359 20.9153 32.6359C21.2057 32.6359 21.436 32.3987 21.436 32.0997V25.985C21.436 25.3869 21.6662 24.8198 22.0768 24.397C22.4873 23.9742 23.038 23.7371 23.6187 23.7371C24.1994 23.7371 24.7501 23.9742 25.1606 24.397C25.5711 24.8198 25.8014 25.3869 25.8014 25.985V32.0997C25.8014 32.3987 26.0317 32.6359 26.3221 32.6359C26.6124 32.6359 26.8427 32.3987 26.8427 32.0997V28.7278C26.8427 28.1607 27.053 27.6348 27.4435 27.2326C27.834 26.8305 28.3446 26.614 28.8953 26.614C29.446 26.614 29.9566 26.8305 30.3471 27.2326C30.7376 27.6348 30.9478 28.1607 30.9478 28.7278V43.5042C30.9478 44.4116 30.6074 45.2778 29.9766 45.9171Z" fill="#373737"/>
<path d="M7.21901 18.2101C7.30912 18.2101 7.39924 18.1895 7.48935 18.1276C7.71964 17.9729 7.78972 17.6533 7.64955 17.4161C6.97871 16.3128 6.61826 15.0342 6.61826 13.7246C6.61826 9.89904 9.63203 6.79528 13.3467 6.79528C17.0613 6.79528 20.0751 9.89904 20.0751 13.7246C20.0751 14.5083 19.9449 15.2713 19.7046 16.0034C19.6145 16.2715 19.7547 16.5706 20.015 16.6634C20.2753 16.7562 20.5657 16.6118 20.6558 16.3437C20.9462 15.4982 21.0863 14.6217 21.0863 13.7246C21.0863 9.33191 17.622 5.76413 13.3567 5.76413C9.09135 5.76413 5.60699 9.34222 5.60699 13.7349C5.60699 15.2404 6.01751 16.7046 6.78847 17.9729C6.8886 18.1276 7.0488 18.2101 7.21901 18.2101Z" fill="#373737"/>
<path d="M6.97872 25.8097C7.05882 25.8509 7.13892 25.8715 7.21902 25.8715C7.39925 25.8715 7.56946 25.7787 7.65957 25.6034C7.78974 25.356 7.69962 25.0363 7.45932 24.9023C3.47434 22.675 1.00125 18.3957 1.00125 13.7349C1.00125 12.0645 1.31164 10.4455 1.9224 8.90913C2.02253 8.65135 1.90238 8.35231 1.65207 8.23889C1.39174 8.13577 1.10138 8.25951 0.991239 8.5173C0.330413 10.1774 0 11.9304 0 13.7349C0 18.7772 2.67334 23.4071 6.97872 25.8097Z" fill="#373737"/>
<path d="M7.60951 2.47476C9.3617 1.53641 11.3442 1.03115 13.3367 1.03115C20.1352 1.03115 25.6721 6.7334 25.6721 13.7349C25.6721 15.8488 25.1615 17.942 24.1802 19.7878C24.0501 20.0352 24.1402 20.3549 24.3805 20.4889C24.4606 20.5302 24.5407 20.5508 24.6208 20.5508C24.801 20.5508 24.9712 20.458 25.0613 20.2827C26.1126 18.2823 26.6733 16.0241 26.6733 13.7349C26.6733 6.16627 20.6959 0 13.3367 0C11.184 0 9.0413 0.546509 7.14893 1.56735C6.89862 1.7014 6.80851 2.01074 6.93867 2.25822C7.05882 2.516 7.36921 2.60881 7.60951 2.47476Z" fill="#373737"/>
</svg>
