<svg width="48" height="48" viewBox="0 0 48 48" fill="none" xmlns="http://www.w3.org/2000/svg">
<path d="M46 0H2C0.9 0 0 0.9 0 2V46C0 47.1 0.9 48 2 48H46C47.1 48 48 47.1 48 46V2C48 0.9 47.1 0 46 0ZM47 46C47 46.55 46.55 47 46 47H2C1.45 47 1 46.55 1 46V2C1 1.45 1.45 1 2 1H46C46.55 1 47 1.45 47 2V46Z" fill="#373737"/>
<path d="M18.81 19.7C18.92 19.81 18.98 19.97 18.95 20.13L17.98 25.81C17.93 26.12 18.17 26.38 18.46 26.38C18.53 26.38 18.61 26.36 18.69 26.32L23.79 23.64C23.86 23.6 23.94 23.58 24.02 23.58C24.1 23.58 24.17 23.6 24.25 23.64L29.35 26.32C29.42 26.36 29.5 26.38 29.58 26.38C29.86 26.38 30.11 26.13 30.06 25.81L29.09 20.13C29.06 19.97 29.12 19.81 29.23 19.7L33.36 15.68C33.65 15.4 33.49 14.91 33.09 14.86L27.39 14.03C27.23 14.01 27.1 13.91 27.03 13.77L24.48 8.60001C24.34 8.41001 24.17 8.32001 24 8.32001C23.83 8.32001 23.66 8.41001 23.57 8.59001L21.02 13.76C20.95 13.9 20.81 14 20.66 14.02L14.96 14.85C14.56 14.91 14.4 15.4 14.69 15.67L18.81 19.7ZM20.8 15.01C21.28 14.94 21.7 14.64 21.92 14.2L24 9.97001L26.09 14.2C26.31 14.64 26.72 14.94 27.21 15.01L31.88 15.69L28.5 18.98C28.15 19.32 27.99 19.81 28.07 20.29L28.87 24.94L24.7 22.75C24.49 22.64 24.25 22.58 24.01 22.58C23.77 22.58 23.53 22.64 23.32 22.75L19.14 24.94L19.94 20.29C20.02 19.81 19.86 19.32 19.51 18.98L16.13 15.69L20.8 15.01Z" fill="#373737"/>
<path d="M31.38 39.18H16.62C16.34 39.18 16.12 39.4 16.12 39.68C16.12 39.96 16.34 40.18 16.62 40.18H31.37C31.65 40.18 31.87 39.96 31.87 39.68C31.87 39.4 31.65 39.18 31.38 39.18Z" fill="#373737"/>
<path d="M38.7 33.72H9.29999C9.01999 33.72 8.79999 33.94 8.79999 34.22C8.79999 34.5 9.01999 34.72 9.29999 34.72H38.7C38.98 34.72 39.2 34.5 39.2 34.22C39.2 33.94 38.97 33.72 38.7 33.72Z" fill="#373737"/>
</svg>
