<svg width="48" height="48" viewBox="0 0 48 48" fill="none" xmlns="http://www.w3.org/2000/svg">
<path d="M6.99708 0H0.999583C0.449813 0 0 0.45 0 1V7C0 7.55 0.449813 8 0.999583 8H6.99708C7.54686 8 7.99667 7.55 7.99667 7V1C7.99667 0.45 7.54686 0 6.99708 0ZM6.99708 7H0.999583V1H6.99708V7Z" fill="#373737"/>
<path d="M12.6547 4.5H47.5002C47.7801 4.5 48 4.28 48 4C48 3.72 47.7801 3.5 47.5002 3.5H12.6547C12.3748 3.5 12.1549 3.72 12.1549 4C12.1549 4.28 12.3848 4.5 12.6547 4.5Z" fill="#373737"/>
<path d="M6.99708 20H0.999583C0.449813 20 0 20.45 0 21V27C0 27.55 0.449813 28 0.999583 28H6.99708C7.54686 28 7.99667 27.55 7.99667 27V21C7.99667 20.45 7.54686 20 6.99708 20ZM6.99708 27H0.999583V21H6.99708V27Z" fill="#373737"/>
<path d="M47.5002 23.5H12.6547C12.3748 23.5 12.1549 23.72 12.1549 24C12.1549 24.28 12.3748 24.5 12.6547 24.5H47.5002C47.7801 24.5 48 24.28 48 24C48 23.72 47.7801 23.5 47.5002 23.5Z" fill="#373737"/>
<path d="M6.99708 40H0.999583C0.449813 40 0 40.45 0 41V47C0 47.55 0.449813 48 0.999583 48H6.99708C7.54686 48 7.99667 47.55 7.99667 47V41C7.99667 40.45 7.54686 40 6.99708 40ZM6.99708 47H0.999583V41H6.99708V47Z" fill="#373737"/>
<path d="M47.5002 43.5H12.6547C12.3748 43.5 12.1549 43.72 12.1549 44C12.1549 44.28 12.3748 44.5 12.6547 44.5H47.5002C47.7801 44.5 48 44.28 48 44C48 43.72 47.7801 43.5 47.5002 43.5Z" fill="#373737"/>
</svg>
