<svg width="48" height="24" viewBox="0 0 48 24" fill="none" xmlns="http://www.w3.org/2000/svg">
<path d="M46 0H2C0.9 0 0 0.9 0 2V22C0 23.1 0.9 24 2 24H46C47.1 24 48 23.1 48 22V2C48 0.9 47.1 0 46 0ZM47 22C47 22.55 46.55 23 46 23H2C1.45 23 1 22.55 1 22V2C1 1.45 1.45 1 2 1H46C46.55 1 47 1.45 47 2V22Z" fill="#373737"/>
<path d="M39.92 5.52C39.68 5.39 39.37 5.48 39.24 5.73L32.81 17.8C32.68 18.04 32.77 18.35 33.02 18.48C33.1 18.52 33.18 18.54 33.26 18.54C33.44 18.54 33.61 18.44 33.7 18.27L40.12 6.2C40.25 5.95 40.16 5.65 39.92 5.52Z" fill="#373737"/>
<path d="M34.5799 9.49C35.6899 9.49 36.5899 8.59 36.5899 7.48C36.5899 6.37 35.6899 5.47 34.5799 5.47C33.4699 5.47 32.5699 6.37 32.5699 7.48C32.5699 8.59 33.4699 9.49 34.5799 9.49ZM34.5799 6.46C35.1399 6.46 35.5899 6.92 35.5899 7.47C35.5899 8.02 35.1299 8.48 34.5799 8.48C34.0199 8.48 33.5699 8.02 33.5699 7.47C33.5699 6.92 34.0199 6.46 34.5799 6.46Z" fill="#373737"/>
<path d="M38.53 14.51C37.42 14.51 36.52 15.41 36.52 16.52C36.52 17.63 37.42 18.53 38.53 18.53C39.64 18.53 40.54 17.63 40.54 16.52C40.54 15.41 39.65 14.51 38.53 14.51ZM38.53 17.54C37.97 17.54 37.52 17.08 37.52 16.53C37.52 15.98 37.98 15.52 38.53 15.52C39.09 15.52 39.54 15.98 39.54 16.53C39.54 17.08 39.09 17.54 38.53 17.54Z" fill="#373737"/>
<path d="M22.98 5.46001H5.65002C5.37002 5.46001 5.15002 5.68001 5.15002 5.96001C5.15002 6.24001 5.37002 6.46001 5.65002 6.46001H22.98C23.26 6.46001 23.48 6.24001 23.48 5.96001C23.48 5.68001 23.25 5.46001 22.98 5.46001Z" fill="#373737"/>
<path d="M5.65002 12.5H13.31C13.59 12.5 13.81 12.28 13.81 12C13.81 11.72 13.59 11.5 13.31 11.5H5.65002C5.37002 11.5 5.15002 11.72 5.15002 12C5.15002 12.28 5.37002 12.5 5.65002 12.5Z" fill="#373737"/>
<path d="M17.33 17.54H5.65002C5.37002 17.54 5.15002 17.76 5.15002 18.04C5.15002 18.32 5.37002 18.54 5.65002 18.54H17.33C17.61 18.54 17.83 18.32 17.83 18.04C17.83 17.76 17.61 17.54 17.33 17.54Z" fill="#373737"/>
</svg>
