<svg width="48" height="48" viewBox="0 0 48 48" fill="none" xmlns="http://www.w3.org/2000/svg">
<path d="M21 0H1C0.45 0 0 0.45 0 1V47C0 47.55 0.45 48 1 48H21C21.55 48 22 47.55 22 47V1C22 0.45 21.55 0 21 0ZM21 1V11.1H1V1H21ZM1 47V12.1H21V47H1Z" fill="#373737"/>
<path d="M47 5.73H27C26.45 5.73 26 6.18 26 6.73V47C26 47.55 26.45 48 27 48H47C47.55 48 48 47.55 48 47V6.73C48 6.18 47.55 5.73 47 5.73ZM47 6.73V17.35H27V6.73H47ZM27 47V18.35H47V47H27Z" fill="#373737"/>
<path d="M11.03 7.48C10.77 7.48 10.55 7.41 10.37 7.26C10.26 7.17 10.18 7.07 10.11 6.95C10.02 6.78 9.84 6.69 9.66 6.71H9.64C9.34 6.76 9.17 7.07 9.3 7.33C9.34 7.42 9.39 7.5 9.45 7.58C9.61 7.81 9.83 7.98 10.09 8.1C10.23 8.17 10.38 8.21 10.54 8.24V8.39C10.54 8.63 10.74 8.83 10.98 8.83C11.22 8.83 11.42 8.63 11.42 8.39V8.26C11.6 8.23 11.76 8.18 11.91 8.11C12.17 7.99 12.38 7.81 12.53 7.59C12.68 7.37 12.75 7.11 12.75 6.82C12.75 6.49 12.66 6.22 12.48 6.02C12.3 5.82 12 5.66 11.6 5.54L10.78 5.31C10.57 5.25 10.42 5.18 10.33 5.1C10.24 5.02 10.19 4.92 10.19 4.81C10.19 4.71 10.22 4.62 10.29 4.54C10.36 4.46 10.45 4.4 10.56 4.35C10.67 4.31 10.8 4.28 10.94 4.29C11.09 4.29 11.22 4.33 11.34 4.38C11.46 4.44 11.56 4.52 11.64 4.62C11.66 4.65 11.68 4.67 11.7 4.7C11.8 4.86 11.98 4.95 12.16 4.92H12.17C12.48 4.86 12.64 4.51 12.47 4.25C12.44 4.2 12.4 4.14 12.36 4.1C12.2 3.9 12 3.75 11.76 3.64C11.65 3.59 11.53 3.55 11.41 3.53V3.38C11.41 3.14 11.21 2.94 10.97 2.94C10.73 2.94 10.53 3.14 10.53 3.38V3.52C10.36 3.55 10.21 3.59 10.07 3.65C9.84 3.76 9.65 3.92 9.51 4.13C9.38 4.34 9.31 4.58 9.31 4.87C9.31 5.47 9.64 5.87 10.3 6.08L11.44 6.43C11.59 6.48 11.7 6.54 11.77 6.61C11.84 6.68 11.87 6.78 11.87 6.89C11.87 7.06 11.79 7.2 11.63 7.31C11.48 7.42 11.28 7.48 11.03 7.48Z" fill="#373737"/>
<path d="M37.03 13.38C36.77 13.38 36.55 13.31 36.37 13.16C36.26 13.07 36.18 12.97 36.11 12.85C36.02 12.68 35.84 12.59 35.66 12.61H35.64C35.35 12.66 35.18 12.97 35.31 13.23C35.35 13.32 35.4 13.4 35.46 13.48C35.62 13.71 35.84 13.88 36.1 14C36.24 14.07 36.39 14.11 36.55 14.14V14.29C36.55 14.53 36.75 14.73 36.99 14.73C37.23 14.73 37.43 14.53 37.43 14.29V14.14C37.61 14.11 37.77 14.06 37.92 13.99C38.18 13.87 38.39 13.69 38.54 13.47C38.69 13.25 38.76 12.99 38.76 12.7C38.76 12.37 38.67 12.1 38.49 11.9C38.31 11.7 38.01 11.54 37.61 11.42L36.79 11.19C36.58 11.13 36.43 11.06 36.34 10.98C36.25 10.9 36.2 10.8 36.2 10.69C36.2 10.59 36.23 10.5 36.3 10.42C36.37 10.34 36.46 10.28 36.57 10.23C36.68 10.19 36.81 10.16 36.95 10.17C37.1 10.17 37.23 10.21 37.35 10.26C37.47 10.32 37.57 10.4 37.65 10.5C37.67 10.53 37.69 10.55 37.71 10.58C37.81 10.74 37.99 10.83 38.17 10.8H38.18C38.49 10.74 38.65 10.39 38.48 10.13C38.45 10.08 38.41 10.02 38.37 9.98C38.21 9.78 38.01 9.63 37.77 9.52C37.66 9.47 37.54 9.43 37.42 9.41V9.28C37.42 9.04 37.22 8.84 36.98 8.84C36.74 8.84 36.54 9.04 36.54 9.28V9.42C36.37 9.45 36.22 9.49 36.08 9.55C35.83 9.66 35.65 9.82 35.51 10.03C35.38 10.24 35.31 10.48 35.31 10.77C35.31 11.37 35.64 11.77 36.3 11.98L37.44 12.33C37.59 12.38 37.7 12.44 37.77 12.51C37.84 12.58 37.87 12.68 37.87 12.79C37.87 12.96 37.79 13.1 37.63 13.21C37.47 13.32 37.28 13.38 37.03 13.38Z" fill="#373737"/>
<path d="M7.24 16.27L5.53 18.43L4.5 17.63C4.28 17.46 3.97 17.5 3.8 17.71C3.63 17.93 3.67 18.24 3.88 18.41L5.28 19.51C5.37 19.58 5.48 19.62 5.59 19.62C5.62 19.62 5.64 19.61 5.67 19.6C5.8 19.59 5.92 19.53 6.01 19.42L8.02 16.88C8.19 16.66 8.15 16.35 7.94 16.18C7.72 16.02 7.41 16.06 7.24 16.27Z" fill="#373737"/>
<path d="M17.87 17.35H10.34C10.06 17.35 9.84 17.57 9.84 17.85C9.84 18.13 10.06 18.35 10.34 18.35H17.87C18.15 18.35 18.37 18.13 18.37 17.85C18.37 17.57 18.15 17.35 17.87 17.35Z" fill="#373737"/>
<path d="M7.24 24.13L5.53 26.29L4.5 25.49C4.28 25.32 3.97 25.36 3.8 25.57C3.63 25.79 3.67 26.1 3.88 26.27L5.28 27.37C5.37 27.44 5.48 27.48 5.59 27.48C5.62 27.48 5.64 27.47 5.67 27.46C5.8 27.45 5.92 27.39 6.01 27.28L8.02 24.74C8.19 24.52 8.15 24.21 7.94 24.04C7.72 23.88 7.41 23.91 7.24 24.13Z" fill="#373737"/>
<path d="M17.87 25.21H10.34C10.06 25.21 9.84 25.43 9.84 25.71C9.84 25.99 10.06 26.21 10.34 26.21H17.87C18.15 26.21 18.37 25.99 18.37 25.71C18.37 25.43 18.15 25.21 17.87 25.21Z" fill="#373737"/>
<path d="M7.24 31.99L5.53 34.15L4.5 33.34C4.28 33.17 3.97 33.21 3.8 33.42C3.63 33.64 3.67 33.95 3.88 34.12L5.28 35.22C5.37 35.29 5.48 35.33 5.59 35.33C5.62 35.33 5.64 35.32 5.67 35.31C5.8 35.3 5.92 35.24 6.01 35.13L8.02 32.59C8.19 32.37 8.15 32.06 7.94 31.89C7.72 31.73 7.41 31.77 7.24 31.99Z" fill="#373737"/>
<path d="M17.87 33.07H10.34C10.06 33.07 9.84 33.29 9.84 33.57C9.84 33.85 10.06 34.07 10.34 34.07H17.87C18.15 34.07 18.37 33.85 18.37 33.57C18.37 33.29 18.15 33.07 17.87 33.07Z" fill="#373737"/>
<path d="M33.21 23.02L31.5 25.18L30.48 24.37C30.26 24.2 29.95 24.24 29.78 24.45C29.61 24.67 29.65 24.98 29.86 25.15L31.26 26.25C31.35 26.32 31.46 26.36 31.57 26.36C31.6 26.36 31.62 26.35 31.65 26.34C31.78 26.33 31.9 26.27 31.99 26.16L34 23.62C34.17 23.4 34.13 23.09 33.92 22.92C33.69 22.77 33.38 22.81 33.21 23.02Z" fill="#373737"/>
<path d="M43.84 24.1H36.31C36.03 24.1 35.81 24.32 35.81 24.6C35.81 24.88 36.03 25.1 36.31 25.1H43.84C44.12 25.1 44.34 24.88 44.34 24.6C44.34 24.32 44.12 24.1 43.84 24.1Z" fill="#373737"/>
<path d="M33.21 31.56L31.5 33.72L30.48 32.91C30.26 32.74 29.95 32.78 29.78 32.99C29.61 33.21 29.65 33.52 29.86 33.69L31.26 34.79C31.35 34.86 31.46 34.9 31.57 34.9C31.6 34.9 31.62 34.89 31.65 34.88C31.78 34.87 31.9 34.81 31.99 34.7L34 32.16C34.17 31.94 34.13 31.63 33.92 31.46C33.69 31.3 33.38 31.34 33.21 31.56Z" fill="#373737"/>
<path d="M43.84 32.64H36.31C36.03 32.64 35.81 32.86 35.81 33.14C35.81 33.42 36.03 33.64 36.31 33.64H43.84C44.12 33.64 44.34 33.42 44.34 33.14C44.34 32.86 44.12 32.64 43.84 32.64Z" fill="#373737"/>
<path d="M33.21 39.84L31.5 42L30.48 41.19C30.26 41.02 29.95 41.06 29.78 41.27C29.61 41.49 29.65 41.8 29.86 41.97L31.26 43.07C31.35 43.14 31.46 43.18 31.57 43.18C31.6 43.18 31.62 43.17 31.65 43.16C31.78 43.15 31.9 43.09 31.99 42.98L34 40.44C34.17 40.22 34.13 39.91 33.92 39.74C33.69 39.59 33.38 39.62 33.21 39.84Z" fill="#373737"/>
<path d="M43.84 40.92H36.31C36.03 40.92 35.81 41.14 35.81 41.42C35.81 41.7 36.03 41.92 36.31 41.92H43.84C44.12 41.92 44.34 41.7 44.34 41.42C44.34 41.14 44.12 40.92 43.84 40.92Z" fill="#373737"/>
<path d="M7.24 39.84L5.53 42L4.5 41.2C4.28 41.03 3.97 41.07 3.8 41.28C3.63 41.5 3.67 41.81 3.88 41.98L5.28 43.08C5.37 43.15 5.48 43.19 5.59 43.19C5.6 43.19 5.61 43.18 5.62 43.18C5.77 43.18 5.91 43.12 6.01 42.99L8.02 40.45C8.19 40.23 8.15 39.92 7.94 39.75C7.72 39.59 7.41 39.63 7.24 39.84Z" fill="#373737"/>
<path d="M17.87 40.92H10.34C10.06 40.92 9.84 41.14 9.84 41.42C9.84 41.7 10.06 41.92 10.34 41.92H17.87C18.15 41.92 18.37 41.7 18.37 41.42C18.37 41.14 18.15 40.92 17.87 40.92Z" fill="#373737"/>
</svg>
