<svg width="48" height="34" viewBox="0 0 48 34" fill="none" xmlns="http://www.w3.org/2000/svg">
<path d="M33.8989 11.1414C32.5965 9.04183 30.3256 7.75497 27.8766 7.75497H27.5204C27.0195 7.75497 26.5519 8.07104 26.3961 8.55644C26.0622 9.58366 25.1048 10.3287 23.9917 10.3287C22.8673 10.3287 21.9211 9.58366 21.5872 8.55644C21.4314 8.07104 20.9638 7.75497 20.4629 7.75497H20.1512C17.7022 7.75497 15.4314 9.03054 14.1289 11.1414L12.6929 13.4555C12.5371 13.7038 12.5037 14.0086 12.5928 14.2795C12.6818 14.5505 12.8933 14.7762 13.1605 14.8778L17.3349 16.492V26.674H30.6373V16.5033L34.8562 14.8778C35.1234 14.7762 35.3349 14.5617 35.4239 14.2795C35.513 13.9973 35.4796 13.7038 35.3237 13.4555L33.8989 11.1414ZM30.6484 15.4309V14.2231C30.6484 13.9409 30.4258 13.7151 30.1475 13.7151C29.8692 13.7151 29.6466 13.9409 29.6466 14.2231V25.6693H18.3367V14.2231C18.3367 13.9409 18.1141 13.7151 17.8358 13.7151C17.5575 13.7151 17.3349 13.9409 17.3349 14.2231V15.4196L13.539 13.9973L14.9638 11.6833C16.0881 9.86586 18.025 8.7822 20.1401 8.7822H20.6076C21.0417 10.261 22.3776 11.3446 23.9805 11.3446C25.5835 11.3446 26.9193 10.261 27.3534 8.7822H27.8766C29.9917 8.7822 31.9286 9.86586 33.0529 11.6833L34.5 13.9296L30.6484 15.4309Z" fill="#373737"/>
<path d="M38.2736 0H9.75415C8.37382 0 7.24951 1.14011 7.24951 2.53984V31.4602C7.24951 32.8599 8.37382 34 9.75415 34H38.2736C39.654 34 40.7783 32.8599 40.7783 31.4602V2.53984C40.7783 1.14011 39.654 0 38.2736 0ZM39.7764 31.4602C39.7764 32.2955 39.0974 32.9841 38.2736 32.9841H9.75415C8.9304 32.9841 8.25137 32.2955 8.25137 31.4602V2.53984C8.25137 1.70452 8.9304 1.01594 9.75415 1.01594H38.2736C39.0974 1.01594 39.7764 1.70452 39.7764 2.53984V31.4602V31.4602Z" fill="#373737"/>
<path d="M47.8024 16.4807L45.1531 13.7942C44.9527 13.591 44.641 13.591 44.4406 13.7942C44.2403 13.9973 44.2403 14.3134 44.4406 14.5166L46.8562 16.9661L44.3739 19.4834C44.1735 19.6866 44.1735 20.0027 44.3739 20.2058C44.474 20.3074 44.5965 20.3526 44.7301 20.3526C44.8636 20.3526 44.9861 20.3074 45.0863 20.2058L47.7913 17.4628C47.9137 17.3386 47.9917 17.158 47.9917 16.9774C48.0028 16.7855 47.936 16.6162 47.8024 16.4807Z" fill="#373737"/>
<path d="M1.13822 16.9661L3.5538 14.5166C3.75417 14.3134 3.75417 13.9973 3.5538 13.7942C3.35343 13.591 3.04174 13.591 2.84137 13.7942L0.192022 16.4807C-0.0640074 16.7404 -0.0640074 17.1806 0.192022 17.4402L2.89703 20.1833C2.99722 20.2849 3.11967 20.33 3.25325 20.33C3.38683 20.33 3.50928 20.2849 3.60946 20.1833C3.80983 19.9801 3.80983 19.664 3.60946 19.4608L1.13822 16.9661Z" fill="#373737"/>
</svg>
