<svg width="48" height="48" viewBox="0 0 48 48" fill="none" xmlns="http://www.w3.org/2000/svg">
<path d="M46 0H2C0.9 0 0 0.9 0 2V46C0 47.1 0.9 48 2 48H46C47.1 48 48 47.1 48 46V2C48 0.9 47.1 0 46 0ZM2 1H46C46.55 1 47 1.45 47 2V7.14H1V2C1 1.45 1.45 1 2 1ZM23.58 47H12.83V38.41H23.58V47ZM23.58 37.41H12.83V28.32H23.58V37.41ZM35.33 8.14V17.23H24.58V8.14H35.33ZM23.58 17.23H12.83V8.14H23.58V17.23ZM11.83 17.23H1V8.14H11.83V17.23ZM11.83 18.23V27.32H1V18.23H11.83ZM11.83 28.32V37.41H1V28.32H11.83V28.32ZM12.83 27.32V18.23H23.58V27.32H12.83ZM24.58 18.23H35.33V27.32H24.58V18.23ZM36.33 18.23H47V27.32H36.33V18.23ZM36.33 17.23V8.14H47V17.23H36.33ZM1 46V38.41H11.83V47H2C1.45 47 1 46.55 1 46ZM46 47H24.58V28.32H47V46C47 46.55 46.55 47 46 47Z" fill="#373737"/>
<path d="M41.38 34.36H32.76L32.58 33.14C32.5 32.6 32.16 32.13 31.67 31.89L30.05 31.08C29.78 30.94 29.45 31.06 29.31 31.33C29.17 31.6 29.28 31.93 29.56 32.07L31.18 32.88C31.35 32.96 31.46 33.12 31.49 33.31L31.65 34.37H31.64L31.77 35.21L32.72 41.64C32.82 42.34 33.43 42.87 34.14 42.87H34.51C34.69 42.46 35.1 42.17 35.58 42.17C36.06 42.17 36.47 42.46 36.65 42.87H37.92C38.1 42.46 38.51 42.17 38.99 42.17C39.47 42.17 39.88 42.46 40.06 42.87H40.9C41.2 42.87 41.45 42.62 41.45 42.32C41.45 42.02 41.2 41.77 40.9 41.77H34.15C33.98 41.77 33.84 41.65 33.82 41.48L33.67 40.46H40.22C41.11 40.46 41.87 39.79 41.98 38.91L42.42 35.55C42.46 35.25 42.37 34.95 42.17 34.73C41.96 34.49 41.67 34.36 41.38 34.36ZM40.87 38.75C40.83 39.09 40.54 39.34 40.2 39.34H33.53L32.92 35.46H41.31L40.87 38.75Z" fill="#373737"/>
<path d="M35.58 44.24C36.0881 44.24 36.5 43.8281 36.5 43.32C36.5 42.8119 36.0881 42.4 35.58 42.4C35.0719 42.4 34.66 42.8119 34.66 43.32C34.66 43.8281 35.0719 44.24 35.58 44.24Z" fill="#373737"/>
<path d="M38.9701 44.24C39.4782 44.24 39.89 43.8281 39.89 43.32C39.89 42.8119 39.4782 42.4 38.9701 42.4C38.4619 42.4 38.05 42.8119 38.05 43.32C38.05 43.8281 38.4619 44.24 38.9701 44.24Z" fill="#373737"/>
</svg>
