<svg width="43" height="48" viewBox="0 0 43 48" fill="none" xmlns="http://www.w3.org/2000/svg">
<path d="M41.1009 11.2554L22.065 0.273533C21.7611 0.0911777 21.4065 0 21.0519 0C20.6973 0 20.3529 0.0911777 20.0388 0.273533L1.01309 11.2554C0.384973 11.6201 0 12.2887 0 13.008V34.9818C0 35.7011 0.384973 36.3698 1.01309 36.7345L20.0388 47.7265C20.2009 47.8176 20.3732 47.8886 20.5454 47.9291V47.9392H20.6264C20.7683 47.9696 20.9101 48 21.0519 48C21.1938 48 21.3356 47.9797 21.4774 47.9392H21.5585V47.9291C21.7307 47.8886 21.9029 47.8176 22.065 47.7265L41.0908 36.7345C41.7189 36.3698 42.1038 35.7011 42.1038 34.9818V13.0182C42.114 12.2887 41.729 11.6201 41.1009 11.2554ZM20.5454 1.14479C20.7075 1.06374 20.8797 1.01309 21.0519 1.01309C21.2241 1.01309 21.4065 1.06374 21.5585 1.14479L40.5842 12.1368C40.6146 12.157 40.6349 12.1773 40.6653 12.1976L21.0519 23.9696L1.48924 12.1672C1.49937 12.157 1.5095 12.1469 1.51963 12.1368L20.5454 1.14479ZM1.51963 35.8632C1.20557 35.6809 1.01309 35.3466 1.01309 34.992V13.0587L20.5454 24.8409V46.8451L1.51963 35.8632ZM40.5943 35.8632L21.5585 46.8552V24.851L41.0908 13.1195V34.992C41.1009 35.3466 40.9084 35.6809 40.5943 35.8632Z" fill="#373737"/>
<path d="M13.312 13.0789C13.4031 13.0789 13.4943 13.0587 13.5754 13.008L22.5918 7.59814C22.835 7.4563 22.9059 7.14225 22.764 6.89911C22.6222 6.65597 22.3082 6.58505 22.065 6.72688L13.0486 12.1368C12.8054 12.2786 12.7345 12.5926 12.8763 12.8358C12.9776 12.9979 13.1397 13.0789 13.312 13.0789Z" fill="#373737"/>
<path d="M21.3558 15.6826C21.447 15.8447 21.6192 15.9257 21.7914 15.9257C21.8826 15.9257 21.9738 15.9054 22.0548 15.8548L26.3301 13.2917C26.5732 13.1498 26.6441 12.8358 26.5023 12.5926C26.3605 12.3495 26.0464 12.2786 25.8033 12.4204L21.528 14.9835C21.2849 15.1254 21.214 15.4394 21.3558 15.6826Z" fill="#373737"/>
</svg>
