<svg width="48" height="48" viewBox="0 0 48 48" fill="none" xmlns="http://www.w3.org/2000/svg">
<path d="M47 0H1C0.45 0 0 0.45 0 1V18.01C0 18.56 0.45 19.01 1 19.01H14.51L14.24 18.01H1V1H47V18.01H22.63L22.9 19.01H47C47.55 19.01 48 18.56 48 18.01V1C48 0.45 47.55 0 47 0Z" fill="#373737"/>
<path d="M39.77 25.17C39.56 24.37 39.04 23.7 38.33 23.29C37.61 22.88 36.78 22.77 35.98 22.98C35.22 23.18 34.6 23.65 34.2 24.26L34.11 23.93C33.89 23.1 33.35 22.4 32.61 21.97C31.86 21.54 31 21.42 30.16 21.65C29.37 21.86 28.71 22.35 28.27 23.04L28.1 22.39C27.89 21.6 27.38 20.94 26.68 20.54C25.97 20.13 25.15 20.03 24.36 20.24C23.62 20.44 23.01 20.9 22.62 21.49L20.88 14.99C20.43 13.3 18.68 12.29 16.98 12.74C15.29 13.19 14.28 14.94 14.73 16.64L19.23 33.43L14.26 32.69C12.7 32.46 11.21 33.32 10.63 34.79C10.29 35.65 10.33 36.63 10.73 37.46C11.13 38.3 11.87 38.93 12.75 39.21L15.54 40.08C18.33 40.95 20.81 42.6 22.71 44.83L23.88 46.21C24.72 47.2 25.95 47.75 27.22 47.75C27.59 47.75 27.97 47.7 28.34 47.6L40.38 44.37C42.71 43.75 44.09 41.35 43.47 39.02L39.77 25.17ZM42.14 41.8C41.7 42.57 40.98 43.12 40.12 43.35L28.08 46.58C26.84 46.91 25.51 46.5 24.68 45.52L23.51 44.14C21.49 41.76 18.84 40 15.86 39.07L13.07 38.2C12.45 38.01 11.96 37.58 11.68 36.99C11.4 36.4 11.38 35.75 11.61 35.15C12 34.14 13.03 33.54 14.11 33.7L19.24 34.47C19.56 34.52 19.86 34.4 20.08 34.17C20.29 33.93 20.37 33.61 20.29 33.31L15.75 16.36C15.6 15.81 15.68 15.23 15.96 14.74C16.25 14.25 16.71 13.89 17.26 13.74C18.4 13.43 19.57 14.11 19.88 15.25L24.52 32.56C24.6 32.84 24.88 33 25.16 32.93C25.44 32.85 25.6 32.57 25.53 32.29L23.23 23.7C22.94 22.63 23.58 21.53 24.65 21.24C25.17 21.1 25.71 21.17 26.17 21.44C26.63 21.71 26.97 22.14 27.1 22.66L29.42 31.33C29.5 31.61 29.78 31.77 30.06 31.7C30.34 31.62 30.5 31.34 30.43 31.06L28.9 25.33C28.75 24.77 28.83 24.18 29.12 23.68C29.41 23.18 29.88 22.81 30.45 22.66C31.01 22.51 31.6 22.59 32.1 22.88C32.6 23.17 32.97 23.64 33.12 24.21L34.65 29.94C34.73 30.22 35.01 30.38 35.29 30.31C35.57 30.23 35.73 29.95 35.66 29.67L34.8 26.5C34.66 25.97 34.73 25.42 35 24.95C35.27 24.48 35.72 24.14 36.24 23.99C36.77 23.85 37.32 23.92 37.8 24.19C38.27 24.46 38.61 24.91 38.75 25.43L42.46 39.27C42.7 40.14 42.59 41.03 42.14 41.8Z" fill="#373737"/>
<path d="M11.13 8.82C11.05 8.59 10.86 8.42 10.62 8.39L9.43002 8.21L8.89002 7.13C8.78002 6.92 8.57001 6.78 8.33001 6.78C8.09001 6.78 7.87001 6.92 7.77001 7.13L7.23001 8.21L6.04001 8.39C5.80001 8.42 5.60001 8.59 5.53001 8.82C5.46001 9.05 5.52001 9.29 5.69001 9.46L6.55001 10.3L6.35001 11.48C6.31001 11.72 6.41001 11.96 6.60001 12.1C6.80001 12.24 7.05001 12.26 7.27001 12.15L8.33001 11.59L9.39002 12.15C9.48002 12.2 9.58002 12.22 9.68002 12.22C9.81002 12.22 9.94001 12.18 10.05 12.1C10.25 11.96 10.34 11.72 10.3 11.48L10.1 10.3L10.96 9.46C11.14 9.3 11.2 9.05 11.13 8.82ZM9.03001 9.95L9.20001 10.92L8.33001 10.46L7.46001 10.92L7.63001 9.95L6.93001 9.27L7.90001 9.13L8.33001 8.25L8.76002 9.13L9.73001 9.27L9.03001 9.95Z" fill="#373737"/>
<path d="M14.43 12.11C14.63 12.25 14.88 12.27 15.1 12.16L16.16 11.6L17.22 12.16C17.31 12.21 17.41 12.23 17.51 12.23C17.64 12.23 17.77 12.19 17.88 12.11C18.08 11.97 18.17 11.73 18.13 11.49L17.93 10.31L18.79 9.46999C18.96 9.29999 19.03 9.04999 18.95 8.81999C18.87 8.58999 18.68 8.42999 18.44 8.38999L17.25 8.21999L16.72 7.13999C16.61 6.91999 16.4 6.78999 16.16 6.78999C15.92 6.78999 15.7 6.91999 15.59 7.13999L15.06 8.21999L13.87 8.38999C13.63 8.42999 13.43 8.58999 13.36 8.81999C13.29 9.04999 13.35 9.29999 13.52 9.46999L14.38 10.31L14.18 11.49C14.14 11.73 14.24 11.96 14.43 12.11ZM15.73 9.12999L16.16 8.24999L16.59 9.12999L17.56 9.26999L16.86 9.94999L17.03 10.92L16.16 10.46L15.29 10.92L15.46 9.94999L14.76 9.26999L15.73 9.12999Z" fill="#373737"/>
<path d="M26.8 8.82C26.73 8.59 26.53 8.42 26.29 8.39L25.1 8.21L24.57 7.13C24.46 6.92 24.24 6.78 24 6.78C23.76 6.78 23.54 6.92 23.44 7.13L22.9 8.21L21.71 8.38C21.47 8.42 21.27 8.58 21.2 8.81C21.13 9.04 21.19 9.29 21.36 9.46L22.22 10.3L22.02 11.48C21.98 11.72 22.08 11.96 22.27 12.1C22.38 12.18 22.51 12.22 22.64 12.22C22.74 12.22 22.84 12.2 22.93 12.15L24 11.59L25.06 12.15C25.27 12.26 25.53 12.24 25.72 12.1C25.92 11.96 26.01 11.72 25.97 11.48L25.77 10.3L26.63 9.46C26.81 9.3 26.87 9.05 26.8 8.82ZM24.7 9.95L24.87 10.92L24 10.47L23.13 10.93L23.3 9.96L22.6 9.28L23.57 9.14L24 8.25L24.43 9.13L25.4 9.27L24.7 9.95Z" fill="#373737"/>
<path d="M34.64 8.81999C34.56 8.58999 34.37 8.42999 34.13 8.38999L32.94 8.21999L32.4 7.13999C32.29 6.91999 32.08 6.78999 31.84 6.78999C31.6 6.78999 31.38 6.91999 31.27 7.13999L30.74 8.21999L29.55 8.38999C29.31 8.42999 29.11 8.58999 29.04 8.81999C28.97 9.04999 29.03 9.29999 29.2 9.46999L30.06 10.31L29.86 11.49C29.82 11.73 29.92 11.97 30.11 12.11C30.31 12.25 30.56 12.27 30.78 12.16L31.84 11.6L32.9 12.16C32.99 12.21 33.09 12.23 33.19 12.23C33.32 12.23 33.45 12.19 33.56 12.11C33.76 11.97 33.85 11.73 33.81 11.49L33.61 10.31L34.47 9.46999C34.65 9.28999 34.71 9.04999 34.64 8.81999ZM32.54 9.94999L32.71 10.92L31.84 10.46L30.97 10.92L31.14 9.94999L30.44 9.26999L31.41 9.12999L31.84 8.24999L32.27 9.12999L33.24 9.26999L32.54 9.94999Z" fill="#373737"/>
<path d="M42.47 8.81999C42.4 8.58999 42.2 8.42999 41.96 8.38999L40.77 8.21999L40.24 7.13999C40.13 6.91999 39.92 6.78999 39.67 6.78999C39.43 6.78999 39.21 6.92999 39.11 7.13999L38.58 8.21999L37.39 8.38999C37.15 8.42999 36.95 8.58999 36.88 8.81999C36.81 9.04999 36.87 9.29999 37.04 9.46999L37.9 10.31L37.7 11.49C37.66 11.73 37.76 11.97 37.95 12.11C38.06 12.19 38.19 12.23 38.32 12.23C38.42 12.23 38.52 12.21 38.61 12.16L39.68 11.6L40.74 12.16C40.95 12.27 41.21 12.25 41.41 12.11C41.61 11.97 41.7 11.73 41.66 11.49L41.46 10.3L42.32 9.45999C42.48 9.28999 42.55 9.04999 42.47 8.81999ZM40.38 9.94999L40.55 10.92L39.68 10.46L38.81 10.92L38.98 9.94999L38.28 9.26999L39.25 9.12999L39.69 8.24999L40.12 9.12999L41.09 9.26999L40.38 9.94999Z" fill="#373737"/>
</svg>
