<svg width="48" height="48" viewBox="0 0 48 48" fill="none" xmlns="http://www.w3.org/2000/svg">
<path d="M44.5 0H3.5C1.57 0 0 1.57 0 3.5C0 5.43 1.57 7 3.5 7H44.5C46.43 7 48 5.43 48 3.5C48 1.57 46.43 0 44.5 0ZM44.5 6H3.5C2.12 6 1 4.88 1 3.5C1 2.12 2.12 1 3.5 1H44.5C45.88 1 47 2.12 47 3.5C47 4.88 45.88 6 44.5 6Z" fill="#373737"/>
<path d="M28.69 3H3.39001C3.11001 3 2.89001 3.22 2.89001 3.5C2.89001 3.78 3.11001 4 3.39001 4H28.69C28.97 4 29.19 3.78 29.19 3.5C29.19 3.22 28.97 3 28.69 3Z" fill="#373737"/>
<path d="M44.5 13.67H3.5C1.57 13.67 0 15.24 0 17.17C0 19.1 1.57 20.67 3.5 20.67H44.5C46.43 20.67 48 19.1 48 17.17C48 15.24 46.43 13.67 44.5 13.67ZM44.5 19.67H3.5C2.12 19.67 1 18.55 1 17.17C1 15.79 2.12 14.67 3.5 14.67H44.5C45.88 14.67 47 15.79 47 17.17C47 18.55 45.88 19.67 44.5 19.67Z" fill="#373737"/>
<path d="M20.11 16.67H3.39001C3.11001 16.67 2.89001 16.89 2.89001 17.17C2.89001 17.45 3.11001 17.67 3.39001 17.67H20.11C20.39 17.67 20.61 17.45 20.61 17.17C20.61 16.89 20.38 16.67 20.11 16.67Z" fill="#373737"/>
<path d="M44.5 27.33H3.5C1.57 27.33 0 28.9 0 30.83C0 32.76 1.57 34.33 3.5 34.33H44.5C46.43 34.33 48 32.76 48 30.83C48 28.9 46.43 27.33 44.5 27.33ZM44.5 33.33H3.5C2.12 33.33 1 32.21 1 30.83C1 29.45 2.12 28.33 3.5 28.33H44.5C45.88 28.33 47 29.45 47 30.83C47 32.21 45.88 33.33 44.5 33.33Z" fill="#373737"/>
<path d="M40.85 30.33H3.39001C3.11001 30.33 2.89001 30.55 2.89001 30.83C2.89001 31.11 3.11001 31.33 3.39001 31.33H40.85C41.13 31.33 41.35 31.11 41.35 30.83C41.35 30.55 41.13 30.33 40.85 30.33Z" fill="#373737"/>
<path d="M44.5 41H3.5C1.57 41 0 42.57 0 44.5C0 46.43 1.57 48 3.5 48H44.5C46.43 48 48 46.43 48 44.5C48 42.57 46.43 41 44.5 41ZM44.5 47H3.5C2.12 47 1 45.88 1 44.5C1 43.12 2.12 42 3.5 42H44.5C45.88 42 47 43.12 47 44.5C47 45.88 45.88 47 44.5 47Z" fill="#373737"/>
<path d="M29.84 44H3.39001C3.11001 44 2.89001 44.22 2.89001 44.5C2.89001 44.78 3.11001 45 3.39001 45H29.84C30.12 45 30.34 44.78 30.34 44.5C30.34 44.22 30.12 44 29.84 44Z" fill="#373737"/>
</svg>
