<svg width="48" height="46" viewBox="0 0 48 46" fill="none" xmlns="http://www.w3.org/2000/svg">
<path d="M15.67 41C14.57 41 13.67 41.9 13.67 43C13.67 44.1 14.57 45 15.67 45C16.77 45 17.67 44.1 17.67 43C17.67 41.9 16.77 41 15.67 41ZM15.67 44C15.12 44 14.67 43.55 14.67 43C14.67 42.45 15.12 42 15.67 42C16.22 42 16.67 42.45 16.67 43C16.67 43.55 16.22 44 15.67 44Z" fill="#373737"/>
<path d="M32.02 41C30.92 41 30.02 41.9 30.02 43C30.02 44.1 30.92 45 32.02 45C33.12 45 34.02 44.1 34.02 43C34.02 41.9 33.12 41 32.02 41ZM32.02 44C31.47 44 31.02 43.55 31.02 43C31.02 42.45 31.47 42 32.02 42C32.57 42 33.02 42.45 33.02 43C33.02 43.55 32.57 44 32.02 44Z" fill="#373737"/>
<path d="M23.84 40C22.18 40 20.84 41.34 20.84 43C20.84 44.66 22.18 46 23.84 46C25.5 46 26.84 44.66 26.84 43C26.84 41.34 25.5 40 23.84 40ZM23.84 45C22.74 45 21.84 44.1 21.84 43C21.84 41.9 22.74 41 23.84 41C24.94 41 25.84 41.9 25.84 43C25.84 44.1 24.95 45 23.84 45Z" fill="#373737"/>
<path d="M47 5H43C42.72 5 42.5 5.22 42.5 5.5C42.5 5.78 42.72 6 43 6H47V28H43C42.72 28 42.5 28.22 42.5 28.5C42.5 28.78 42.72 29 43 29H47C47.55 29 48 28.55 48 28V6C48 5.45 47.55 5 47 5Z" fill="#373737"/>
<path d="M0 6V28C0 28.55 0.45 29 1 29H5C5.28 29 5.5 28.78 5.5 28.5C5.5 28.22 5.28 28 5 28H1V6H5C5.28 6 5.5 5.78 5.5 5.5C5.5 5.22 5.28 5 5 5H1C0.45 5 0 5.45 0 6Z" fill="#373737"/>
<path d="M40 0H8C7.45 0 7 0.45 7 1V33C7 33.55 7.45 34 8 34H8.03H40C40.55 34 41 33.55 41 33V19.17V1C41 0.45 40.55 0 40 0ZM8.98 33L18.1 20.6C18.2 20.46 18.35 20.45 18.41 20.45C18.48 20.45 18.58 20.47 18.68 20.56L22.53 24.38C22.98 24.82 23.57 25.07 24.2 25.07C24.95 25.07 25.66 24.71 26.11 24.11L33.45 14.23C33.55 14.09 33.7 14.08 33.76 14.08C33.83 14.08 33.92 14.1 34.01 14.18L40.01 19.61L40 33H8.98ZM34.67 13.44C34.4 13.2 34.07 13.08 33.75 13.08C33.33 13.08 32.91 13.27 32.64 13.64L25.3 23.52C25.03 23.89 24.61 24.08 24.19 24.08C23.84 24.08 23.49 23.95 23.22 23.68L19.37 19.86C19.1 19.59 18.75 19.46 18.4 19.46C17.98 19.46 17.56 19.65 17.29 20.02L8 32.64V1H40V18.26L34.67 13.44Z" fill="#373737"/>
<path d="M24.26 9.66C22.6 9.66 21.26 11 21.26 12.66C21.26 14.32 22.6 15.66 24.26 15.66C25.92 15.66 27.26 14.32 27.26 12.66C27.26 11 25.91 9.66 24.26 9.66ZM24.26 14.66C23.16 14.66 22.26 13.76 22.26 12.66C22.26 11.56 23.16 10.66 24.26 10.66C25.36 10.66 26.26 11.56 26.26 12.66C26.26 13.76 25.36 14.66 24.26 14.66Z" fill="#373737"/>
</svg>
