<svg width="48" height="48" viewBox="0 0 48 48" fill="none" xmlns="http://www.w3.org/2000/svg">
<path d="M46 0H2C0.9 0 0 0.9 0 2V46C0 47.1 0.9 48 2 48H46C47.1 48 48 47.1 48 46V2C48 0.9 47.1 0 46 0ZM47 46C47 46.55 46.55 47 46 47H2C1.45 47 1 46.55 1 46V2C1 1.45 1.45 1 2 1H46C46.55 1 47 1.45 47 2V46Z" fill="#373737"/>
<path d="M24.21 15.85C27.04 15.85 29.34 13.55 29.34 10.72C29.34 7.89 27.04 5.59 24.21 5.59C21.38 5.59 19.08 7.89 19.08 10.72C19.07 13.55 21.37 15.85 24.21 15.85ZM24.21 6.58C26.49 6.58 28.34 8.43 28.34 10.71C28.34 12.99 26.49 14.84 24.21 14.84C21.93 14.84 20.08 12.99 20.08 10.71C20.08 8.43 21.93 6.58 24.21 6.58Z" fill="#373737"/>
<path d="M16.04 27.75H31.95C33.68 27.75 35.08 26.35 35.08 24.62C35.08 22.27 33.73 20.14 31.61 19.13C29.3 18.03 26.72 17.42 24 17.42C21.28 17.42 18.69 18.04 16.39 19.13C14.27 20.14 12.92 22.27 12.92 24.62C12.91 26.35 14.32 27.75 16.04 27.75ZM16.82 20.04C19.07 18.97 21.49 18.42 24 18.42C26.51 18.42 28.93 18.96 31.18 20.04C32.94 20.88 34.08 22.68 34.08 24.63C34.08 25.81 33.12 26.76 31.95 26.76H16.04C14.86 26.76 13.91 25.8 13.91 24.63C13.91 22.68 15.05 20.88 16.82 20.04Z" fill="#373737"/>
<path d="M37.85 34.24H10.15C9.87002 34.24 9.65002 34.46 9.65002 34.74C9.65002 35.02 9.87002 35.24 10.15 35.24H37.85C38.13 35.24 38.35 35.02 38.35 34.74C38.35 34.46 38.13 34.24 37.85 34.24Z" fill="#373737"/>
<path d="M30.83 39.99H17.17C16.89 39.99 16.67 40.21 16.67 40.49C16.67 40.77 16.89 40.99 17.17 40.99H30.83C31.11 40.99 31.33 40.77 31.33 40.49C31.33 40.21 31.11 39.99 30.83 39.99Z" fill="#373737"/>
</svg>
