<svg width="48" height="42" viewBox="0 0 48 42" fill="none" xmlns="http://www.w3.org/2000/svg">
<path d="M20.57 2.38999C20.61 2.38999 20.64 2.38999 20.68 2.37999C22.84 1.87999 25.15 1.86999 27.32 2.35999C27.59 2.41999 27.86 2.24999 27.92 1.97999C27.98 1.70999 27.81 1.43999 27.54 1.37999C25.23 0.859985 22.76 0.869985 20.45 1.39999C20.18 1.45999 20.01 1.72999 20.07 1.99999C20.13 2.23999 20.34 2.38999 20.57 2.38999Z" fill="#373737"/>
<path d="M9.9 10.72C9.97 10.75 10.04 10.77 10.12 10.77C10.31 10.77 10.49 10.67 10.57 10.49C11.53 8.47999 12.96 6.67999 14.7 5.28999C14.92 5.11999 14.95 4.79999 14.78 4.58999C14.61 4.36999 14.29 4.33999 14.08 4.50999C12.22 5.99999 10.7 7.91999 9.67 10.06C9.55 10.3 9.66 10.6 9.9 10.72Z" fill="#373737"/>
<path d="M37.48 10.4C37.57 10.58 37.74 10.68 37.93 10.68C38 10.68 38.08 10.66 38.15 10.63C38.4 10.51 38.5 10.21 38.38 9.95999C37.34 7.82999 35.8 5.91999 33.94 4.43999C33.72 4.26999 33.41 4.30999 33.24 4.51999C33.07 4.73999 33.1 5.04999 33.32 5.21999C35.06 6.60999 36.5 8.39999 37.48 10.4Z" fill="#373737"/>
<path d="M9.22 31.47H1C1.02 26.83 4.79 23.07 9.43 23.07C11.59 23.07 13.55 23.89 15.04 25.23C15.33 25.04 15.63 24.86 15.93 24.69C14.79 23.6 13.37 22.8 11.8 22.39C13.11 21.59 13.99 20.16 13.99 18.51C13.99 15.99 11.95 13.95 9.43 13.95C6.91 13.95 4.87 15.99 4.87 18.51C4.87 20.16 5.75 21.59 7.06 22.39C3 23.44 0 27.11 0 31.5C0 31.83 0.02 32.15 0.05 32.47H8.74C8.89 32.13 9.04 31.8 9.22 31.47ZM5.87 18.5C5.87 16.53 7.47 14.94 9.43 14.94C11.39 14.94 13 16.54 13 18.5C13 20.46 11.4 22.06 9.44 22.06C7.48 22.06 5.87 20.47 5.87 18.5Z" fill="#373737"/>
<path d="M40.95 22.38C42.26 21.58 43.14 20.15 43.14 18.5C43.14 15.98 41.1 13.94 38.58 13.94C36.06 13.94 34 15.98 34 18.5C34 20.15 34.88 21.58 36.19 22.38C34.63 22.79 33.23 23.57 32.1 24.65C32.41 24.82 32.7 25.01 32.99 25.19C34.48 23.87 36.43 23.07 38.57 23.07C43.21 23.07 46.99 26.84 47 31.47H38.87C39.05 31.8 39.2 32.13 39.35 32.47H47.95C47.98 32.15 48 31.83 48 31.5C48 27.11 45 23.44 40.95 22.38ZM35 18.5C35 16.53 36.6 14.94 38.56 14.94C40.52 14.94 42.12 16.54 42.12 18.5C42.12 20.46 40.52 22.06 38.56 22.06C36.6 22.06 35 20.47 35 18.5Z" fill="#373737"/>
<path d="M27.2 23.91C29.86 22.71 31.71 20.04 31.71 16.93C31.71 12.7 28.28 9.26999 24.05 9.26999C19.82 9.26999 16.39 12.7 16.39 16.93C16.39 20.04 18.24 22.7 20.9 23.91C13.67 25.37 8.22 31.76 8.22 39.42C8.22 39.97 8.25 40.51 8.3 41.05H39.79C39.84 40.51 39.87 39.97 39.87 39.42C39.87 31.76 34.43 25.37 27.2 23.91ZM17.38 16.93C17.38 13.26 20.37 10.27 24.04 10.27C27.71 10.27 30.7 13.26 30.7 16.93C30.7 20.6 27.71 23.59 24.04 23.59C20.37 23.59 17.38 20.6 17.38 16.93ZM38.86 40.05H9.23C9.22 39.84 9.22 39.63 9.22 39.42C9.22 31.24 15.87 24.59 24.05 24.59C32.23 24.59 38.88 31.24 38.88 39.42C38.87 39.63 38.87 39.84 38.86 40.05Z" fill="#373737"/>
</svg>
