<svg width="48" height="48" viewBox="0 0 48 48" fill="none" xmlns="http://www.w3.org/2000/svg">
<path d="M35.73 1C36.28 1 36.72 1.45 36.72 1.99V26.25C36.72 26.8 36.27 27.24 35.73 27.24H17.55H17.12L16.82 27.55L10.29 34.49L8.43 27.54L8.23 26.8H7.47H1.99C1.45 26.81 1 26.36 1 25.81V1.99C1 1.45 1.45 1 1.99 1H35.73ZM35.73 0H1.99C0.89 0 0 0.89 0 1.99V25.81C0 26.91 0.89 27.8 1.99 27.8H7.46L9.78 36.48L17.54 28.24H35.72C36.82 28.24 37.71 27.35 37.71 26.25V1.99C37.72 0.89 36.83 0 35.73 0Z" fill="#373737"/>
<path d="M18.97 6.96001C19.9 6.96001 20.65 7.72001 20.65 8.64001C20.65 9.56001 19.89 10.32 18.97 10.32C18.04 10.32 17.29 9.56001 17.29 8.64001C17.29 7.72001 18.04 6.96001 18.97 6.96001ZM18.97 5.96001C17.49 5.96001 16.29 7.16001 16.29 8.64001C16.29 10.12 17.49 11.32 18.97 11.32C20.45 11.32 21.65 10.12 21.65 8.64001C21.65 7.16001 20.45 5.96001 18.97 5.96001Z" fill="#373737"/>
<path d="M18.8601 13.15C20.1001 13.15 21.3001 13.42 22.4101 13.95C23.1701 14.31 23.6601 15.08 23.6601 15.92C23.6601 16.27 23.3701 16.56 23.0201 16.56H14.7001C14.3501 16.56 14.0601 16.27 14.0601 15.92C14.0601 15.09 14.5501 14.31 15.3101 13.95C16.4201 13.42 17.6201 13.15 18.8601 13.15ZM18.8601 12.15C17.4301 12.15 16.0901 12.47 14.8801 13.05C13.7701 13.58 13.0601 14.69 13.0601 15.92C13.0601 16.82 13.7901 17.56 14.7001 17.56H23.0201C23.9201 17.56 24.6601 16.83 24.6601 15.92C24.6601 14.69 23.9501 13.58 22.8401 13.05C21.6401 12.48 20.2901 12.15 18.8601 12.15Z" fill="#373737"/>
<path d="M36.4 31.78C36.78 31.78 37.09 32.09 37.09 32.47C37.09 32.85 36.78 33.16 36.4 33.16C36.02 33.16 35.71 32.85 35.71 32.47C35.72 32.09 36.02 31.78 36.4 31.78ZM36.4 30.78C35.47 30.78 34.71 31.54 34.71 32.47C34.71 33.4 35.47 34.16 36.4 34.16C37.33 34.16 38.09 33.4 38.09 32.47C38.09 31.54 37.33 30.78 36.4 30.78Z" fill="#373737"/>
<path d="M36.34 35.67C37.07 35.67 37.76 35.83 38.41 36.14C38.76 36.31 38.98 36.66 38.95 37.07L33.6899 37.04C33.6899 36.66 33.9099 36.3 34.2599 36.14C34.9099 35.83 35.61 35.67 36.34 35.67ZM36.34 34.67C35.44 34.67 34.6 34.87 33.84 35.23C33.14 35.56 32.7 36.26 32.7 37.03C32.7 37.6 33.1599 38.06 33.7299 38.06H38.9599C39.5299 38.06 39.99 37.6 39.99 37.03C39.99 36.26 39.5399 35.56 38.8499 35.23C38.0799 34.88 37.23 34.67 36.34 34.67Z" fill="#373737"/>
<path d="M46.01 23.02H39.23C38.95 23.02 38.73 23.24 38.73 23.52C38.73 23.8 38.95 24.02 39.23 24.02H46.01C46.56 24.02 47 24.46 47 25.01V40.64C47 41.19 46.56 41.63 46.01 41.63H43.38H42.61L42.41 42.37L41.44 46L37.87 42.21L37.57 41.9H37.14H26.66C26.11 41.9 25.67 41.46 25.67 40.91V29.74C25.67 29.46 25.45 29.24 25.17 29.24C24.89 29.24 24.67 29.46 24.67 29.74V40.9C24.67 42 25.56 42.89 26.66 42.89H37.14L41.94 47.99L43.38 42.62H46.01C47.11 42.62 48 41.73 48 40.63V25.01C48 23.91 47.11 23.02 46.01 23.02Z" fill="#373737"/>
</svg>
