<svg width="635" height="180" viewBox="0 0 635 180" fill="none" xmlns="http://www.w3.org/2000/svg">
<path d="M246.447 71.0402C246.447 78.4334 243.217 82.2028 236.826 82.1269C230.435 82.051 227.205 78.3575 227.205 71.0402V40H222.14C219.35 40 217 42.6626 217 45.3947V72.2228C217 84.9349 224.051 90.9937 236.826 90.9937C249.381 90.9937 256.583 84.5618 256.583 72.2228V40H246.447V71.0402Z" fill="#331ED3"/>
<path d="M273.512 40.3731H264.551V90.26H273.512V40.3731Z" fill="#331ED3"/>
<path d="M293.042 80.7987C292.433 80.4572 291.955 80.0841 291.61 79.692C291.214 79.1987 290.95 78.6548 290.799 78.0666V61.5852H299.245V52.7879H290.799V42.7385H281.838V79.3188C281.838 81.8802 282.366 83.8914 283.415 85.3397C284.465 86.7943 285.627 87.8884 286.903 88.6283C288.417 89.5138 290.133 90.0577 292.043 90.2537H301.004V81.3173H295.424C294.45 81.3173 293.652 81.1466 293.042 80.7987Z" fill="#331ED3"/>
<path d="M313.604 54.4133C312.328 55.1533 311.153 56.2474 310.078 57.702C309.004 59.1566 308.463 61.1615 308.463 63.7228V90.2537H317.493V64.9814C317.638 64.3932 317.908 63.8493 318.304 63.356C318.643 62.9639 319.121 62.5908 319.737 62.2493C320.346 61.9077 321.144 61.7307 322.125 61.7307H329.025V52.7879H318.744C316.834 52.984 315.118 53.5279 313.604 54.4133Z" fill="#331ED3"/>
<path d="M549.467 59.846C548.656 58.442 547.726 57.2719 546.677 56.3359C545.621 55.3999 544.559 54.6347 543.485 54.0465C540.94 52.6678 538.049 51.9278 534.819 51.8266C531.539 51.9278 528.623 52.6678 526.078 54.0465C525.003 54.6347 523.935 55.3999 522.886 56.3359C521.83 57.2719 520.9 58.442 520.096 59.846C519.285 61.25 518.638 62.9133 518.148 64.8359C517.657 66.7586 517.412 68.9974 517.412 71.5588C517.412 74.1202 517.657 76.3653 518.148 78.2816C518.638 80.2042 519.285 81.8549 520.096 83.2336C520.906 84.6124 521.83 85.7571 522.886 86.6678C523.935 87.5785 525.003 88.3311 526.078 88.9193C528.623 90.2474 531.539 90.9368 534.819 90.9874C538.049 90.9368 540.94 90.2474 543.485 88.9193C544.559 88.3311 545.627 87.5785 546.677 86.6678C547.726 85.7571 548.663 84.6124 549.467 83.2336C550.278 81.8549 550.937 80.2042 551.453 78.2816C551.968 76.359 552.226 74.1202 552.226 71.5588C552.226 68.9974 551.968 66.7522 551.453 64.8359C550.937 62.9133 550.278 61.25 549.467 59.846ZM542.9 75.1068C542.705 76.3906 542.316 77.5796 541.725 78.6927C541.141 79.7995 540.292 80.7228 539.193 81.4628C538.093 82.2027 536.635 82.5696 534.825 82.5696C533.015 82.5696 531.558 82.2027 530.458 81.4628C529.358 80.7228 528.51 79.7995 527.925 78.6927C527.341 77.5859 526.945 76.3906 526.75 75.1068C526.556 73.8229 526.455 72.6466 526.455 71.5588C526.455 70.4773 526.549 69.2946 526.75 68.0108C526.945 66.7269 527.335 65.5379 527.925 64.4248C528.51 63.3181 529.358 62.3947 530.458 61.6548C531.558 60.9148 533.015 60.548 534.825 60.548C536.635 60.548 538.093 60.9148 539.193 61.6548C540.292 62.3947 541.141 63.3181 541.725 64.4248C542.31 65.5316 542.705 66.7269 542.9 68.0108C543.095 69.2946 543.196 70.4773 543.196 71.5588C543.189 72.6466 543.095 73.8292 542.9 75.1068Z" fill="#331ED3"/>
<path d="M587.692 57.6641C586.517 56.1842 585.242 55.0521 583.872 54.2615C582.502 53.471 581.201 52.8955 579.982 52.5223C578.757 52.1555 577.695 51.9468 576.79 51.8962C575.885 51.8456 575.357 51.8203 575.212 51.8203C575.018 51.8203 574.477 51.8456 573.597 51.8962C572.718 51.9468 571.662 52.1555 570.437 52.5223C569.211 52.8891 567.917 53.471 566.547 54.2615C565.177 55.0521 563.901 56.1842 562.726 57.6641C561.551 59.144 560.583 61.0033 559.823 63.2422C559.063 65.4874 558.686 68.2574 558.686 71.5588V90.26H567.647V71.5588C567.647 70.4773 567.741 69.3642 567.942 68.2321C568.137 67.1001 568.507 66.0629 569.042 65.1269C569.582 64.1908 570.336 63.4129 571.316 62.7995C572.297 62.186 573.591 61.8761 575.206 61.8761C576.821 61.8761 578.116 62.186 579.096 62.7995C580.076 63.4193 580.83 64.1908 581.371 65.1269C581.911 66.0629 582.276 67.1001 582.47 68.2321C582.665 69.3642 582.766 70.4773 582.766 71.5588V90.26H591.727V71.5588C591.727 68.2574 591.35 65.4874 590.589 63.2422C589.835 61.0033 588.868 59.144 587.692 57.6641Z" fill="#331ED3"/>
<path d="M631.938 73.6269C631.228 72.3936 630.31 71.388 629.186 70.5975C628.061 69.8069 626.798 69.2061 625.403 68.7887C624.008 68.3713 622.625 68.074 621.255 67.9033C619.885 67.7325 618.597 67.6313 617.403 67.606C616.203 67.5807 615.26 67.5681 614.575 67.5681C612.715 67.5681 611.195 67.2961 610.019 66.7522C608.844 66.2083 608.26 65.2976 608.26 64.0201C608.26 62.692 608.869 61.6421 610.095 60.8769C611.32 60.1116 612.935 59.7321 614.94 59.7321C617.629 59.7321 619.502 60.1875 620.558 61.0982C621.607 62.0089 622.135 63.2548 622.135 64.8296H631.096C631.146 61.8761 630.543 59.5361 629.299 57.8095C628.048 56.083 626.559 54.7801 624.818 53.8947C623.078 53.0093 621.306 52.4401 619.496 52.1935C617.686 51.9468 616.241 51.8266 615.166 51.8266C613.111 51.8266 611.151 52.0733 609.291 52.5666C607.43 53.0599 605.778 53.7999 604.332 54.7865C602.887 55.7731 601.725 57.0379 600.845 58.5937C599.965 60.1432 599.525 61.9583 599.525 64.0264C599.525 65.8984 599.965 67.5238 600.845 68.9025C601.725 70.2813 602.875 71.426 604.295 72.3367C605.715 73.2474 607.305 73.9241 609.071 74.3668C610.83 74.8095 612.596 75.0562 614.355 75.1068C616.655 75.1574 618.453 75.3028 619.753 75.5495C621.048 75.7961 622.003 76.106 622.619 76.4728C623.228 76.8397 623.612 77.2507 623.756 77.6935C623.901 78.1362 623.976 78.5789 623.976 79.0216C623.976 79.4137 623.913 79.8374 623.794 80.2801C623.668 80.7228 623.316 81.1529 622.732 81.5703C622.148 81.9877 621.224 82.3229 619.98 82.5696C618.729 82.8162 616.957 82.9174 614.657 82.8668C612.797 82.8162 611.327 82.5822 610.252 82.1648C609.177 81.7474 608.367 81.2414 607.826 80.6469C607.286 80.0588 606.947 79.4516 606.796 78.8382C606.651 78.2247 606.576 77.6935 606.576 77.2507H597.615C597.615 79.5655 598.004 81.526 598.79 83.1261C599.575 84.7262 600.562 86.0353 601.762 87.0409C602.963 88.0528 604.282 88.8244 605.727 89.3683C607.173 89.9122 608.543 90.3043 609.837 90.551C611.132 90.7976 612.269 90.9304 613.249 90.9557C614.23 90.981 614.864 90.9937 615.16 90.9937C616.775 90.9937 618.622 90.8672 620.702 90.6269C622.782 90.3802 624.73 89.811 626.54 88.9256C628.35 88.0402 629.883 86.7437 631.127 85.0424C632.378 83.3411 633 81.0644 633 78.2057C633 76.3906 632.642 74.8601 631.938 73.6269Z" fill="#331ED3"/>
<path d="M400.474 40C397.979 40 396.364 41.1068 395.629 43.3266L376.293 90.26H387.233L402.748 50.1254L413.582 79.9829L417.956 90.2537H428.751L408.699 40H400.474Z" fill="#331ED3"/>
<path d="M402.522 90.2537C405.982 90.2537 408.787 87.4307 408.787 83.9483C408.787 80.4659 405.982 77.6429 402.522 77.6429C399.062 77.6429 396.257 80.4659 396.257 83.9483C396.257 87.4307 399.062 90.2537 402.522 90.2537Z" fill="#331ED3"/>
<path d="M460.285 58.0372V71.4133H460.278C460.278 71.4639 460.285 71.5145 460.285 71.5588C460.285 72.6403 460.184 73.8229 459.989 75.1068C459.795 76.3906 459.392 77.5796 458.777 78.6927C458.161 79.7995 457.306 80.7228 456.206 81.4628C455.107 82.2028 453.649 82.5696 451.839 82.5696C450.029 82.5696 448.571 82.2028 447.472 81.4628C446.372 80.7228 445.524 79.7995 444.939 78.6927C444.355 77.5859 443.959 76.3906 443.764 75.1068C443.569 73.8229 443.469 72.6466 443.469 71.5588C443.469 70.4773 443.563 69.2946 443.764 68.0108C443.959 66.7269 444.349 65.5379 444.939 64.4249C445.524 63.3181 446.372 62.3947 447.472 61.6548C448.571 60.9148 450.029 60.548 451.839 60.548C453.649 60.548 455.107 60.9148 456.206 61.6548C456.382 61.7686 456.539 61.9014 456.697 62.0279V53.8694C456.125 53.5026 455.553 53.1864 454.994 52.9334C453.573 52.3452 452.103 51.9721 450.589 51.8266C447.553 51.9278 444.858 52.6678 442.507 54.0465C441.477 54.6347 440.49 55.3999 439.535 56.3359C438.58 57.2719 437.725 58.442 436.965 59.846C436.204 61.25 435.595 62.9133 435.13 64.8359C434.665 66.7586 434.432 68.9974 434.432 71.5588C434.432 74.1202 434.677 76.3653 435.168 78.2816C435.658 80.2042 436.305 81.8549 437.116 83.2336C437.926 84.6124 438.85 85.7571 439.906 86.6678C440.955 87.5785 442.023 88.3311 443.098 88.9193C445.643 90.2474 448.559 90.9368 451.839 90.9874C455.019 90.9368 457.884 90.2474 460.429 88.9193C461.504 88.3311 462.56 87.5785 463.59 86.6678C464.614 85.7571 465.538 84.5997 466.342 83.1957C467.153 81.7917 467.8 80.1283 468.291 78.2057C468.781 76.2831 469.026 74.0443 469.026 71.4829V40.3731H460.285V58.0372Z" fill="#331ED3"/>
<path d="M365.39 57.1138C363.995 55.4126 362.217 54.1097 360.068 53.199C357.912 52.2883 355.292 51.833 352.213 51.833C348.932 51.9342 346.017 52.6741 343.472 54.0528C342.397 54.641 341.329 55.4063 340.279 56.3423C339.224 57.2783 338.294 58.4483 337.489 59.8523C336.679 61.2563 336.031 62.9196 335.541 64.8423C335.051 66.7649 334.806 69.0037 334.806 71.5651C334.806 74.1265 335.038 76.3717 335.503 78.2879C335.968 80.2106 336.578 81.8612 337.338 83.24C338.099 84.6187 338.953 85.7634 339.909 86.6741C340.864 87.5848 341.857 88.3374 342.881 88.9256C345.231 90.2537 347.921 90.9431 350.956 90.9937C352.47 90.8925 353.941 90.5763 355.361 90.0324C355.926 89.8047 356.492 89.5074 357.064 89.1596V81.0897C356.9 81.2161 356.743 81.3426 356.574 81.4628C355.474 82.2028 354.016 82.5696 352.206 82.5696C350.396 82.5696 348.939 82.2028 347.839 81.4628C346.739 80.7228 345.891 79.7995 345.306 78.6927C344.722 77.5859 344.326 76.3906 344.131 75.1068C343.937 73.8229 343.836 72.6466 343.836 71.5588C343.836 70.4773 343.937 69.2946 344.131 68.0108C344.326 66.7269 344.716 65.5379 345.306 64.4249C345.891 63.3181 346.739 62.3947 347.839 61.6548C348.939 60.9148 350.396 60.548 352.206 60.548C354.117 60.548 355.631 60.8705 356.756 61.5093C357.881 62.1481 358.729 63.0019 359.288 64.058C359.848 65.1205 360.218 66.3032 360.388 67.606C360.558 68.8962 360.646 70.2054 360.646 71.5208V85.0867V90.26H369.387V71.6347C369.387 68.5294 369.066 65.7593 368.432 63.3181C367.803 60.8832 366.785 58.8088 365.39 57.1138Z" fill="#331ED3"/>
<path d="M501.847 57.1518C501.847 57.1455 501.841 57.1455 501.841 57.1391V71.2362C501.841 71.3437 501.847 71.4576 501.847 71.5588C501.847 72.6403 501.746 73.8229 501.552 75.1068C501.357 76.3906 500.955 77.5796 500.339 78.6927C499.729 79.7995 498.868 80.7228 497.769 81.4628C496.669 82.2028 495.211 82.5696 493.401 82.5696C491.592 82.5696 490.134 82.2028 489.034 81.4628C487.934 80.7228 487.086 79.7995 486.502 78.6927C485.917 77.5859 485.521 76.3906 485.326 75.1068C485.132 73.8229 485.031 72.6466 485.031 71.5588C485.031 70.4773 485.132 69.2946 485.326 68.0108C485.521 66.7269 485.911 65.5379 486.502 64.4249C487.086 63.3181 487.934 62.3947 489.034 61.6548C490.134 60.9148 491.592 60.548 493.401 60.548C495.211 60.548 496.669 60.9148 497.769 61.6548C497.938 61.7686 498.095 61.8951 498.253 62.0216V53.8631C497.681 53.4963 497.115 53.1801 496.556 52.9334C495.136 52.3452 493.665 51.9721 492.151 51.8266C489.116 51.9278 486.42 52.6678 484.076 54.0465C483.045 54.6347 482.059 55.3999 481.104 56.3359C480.148 57.2719 479.294 58.442 478.533 59.846C477.773 61.25 477.164 62.9133 476.698 64.8359C476.233 66.7586 476.001 68.9974 476.001 71.5588C476.001 74.1202 476.246 76.3653 476.736 78.2816C477.226 80.2042 477.874 81.8549 478.684 83.2336C479.495 84.6124 480.419 85.7571 481.474 86.6678C482.524 87.5785 483.592 88.3311 484.667 88.9193C487.212 90.2474 490.127 90.9368 493.408 90.9874C496.587 90.9368 499.453 90.2474 501.998 88.9193C503.072 88.3311 504.128 87.5785 505.159 86.6678C506.189 85.7571 507.107 84.5997 507.911 83.1957C508.722 81.7917 509.369 80.1283 509.859 78.2057C510.349 76.2831 510.594 74.0443 510.594 71.4829V40.3731H501.853V57.1518H501.847Z" fill="#331ED3"/>
<path d="M241.76 140.64V145H220.76V117H241.2V121.36H225.96V128.64H239.48V132.92H225.96V140.64H241.76ZM251.957 117H257.157V140.6H271.797V145H251.957V117ZM301.302 140.64V145H280.302V117H300.742V121.36H285.502V128.64H299.022V132.92H285.502V140.64H301.302ZM337.219 145L337.179 126.44L327.979 141.8H325.659L316.459 126.68V145H311.499V117H315.779L326.899 135.56L337.819 117H342.099L342.139 145H337.219ZM375.102 140.64V145H354.102V117H374.542V121.36H359.302V128.64H372.822V132.92H359.302V140.64H375.102ZM410.179 117V145H405.899L390.459 126.04V145H385.299V117H389.579L405.019 135.96V117H410.179ZM427.762 121.4H418.482V117H442.242V121.4H432.962V145H427.762V121.4ZM463.234 145.4C460.38 145.4 457.807 144.787 455.514 143.56C453.22 142.307 451.42 140.587 450.114 138.4C448.807 136.187 448.154 133.72 448.154 131C448.154 128.28 448.807 125.827 450.114 123.64C451.42 121.427 453.22 119.707 455.514 118.48C457.807 117.227 460.38 116.6 463.234 116.6C466.087 116.6 468.66 117.227 470.954 118.48C473.247 119.707 475.047 121.413 476.354 123.6C477.66 125.787 478.314 128.253 478.314 131C478.314 133.747 477.66 136.213 476.354 138.4C475.047 140.587 473.247 142.307 470.954 143.56C468.66 144.787 466.087 145.4 463.234 145.4ZM463.234 140.84C465.1 140.84 466.78 140.427 468.274 139.6C469.767 138.747 470.94 137.573 471.794 136.08C472.647 134.56 473.074 132.867 473.074 131C473.074 129.133 472.647 127.453 471.794 125.96C470.94 124.44 469.767 123.267 468.274 122.44C466.78 121.587 465.1 121.16 463.234 121.16C461.367 121.16 459.687 121.587 458.194 122.44C456.7 123.267 455.527 124.44 454.674 125.96C453.82 127.453 453.394 129.133 453.394 131C453.394 132.867 453.82 134.56 454.674 136.08C455.527 137.573 456.7 138.747 458.194 139.6C459.687 140.427 461.367 140.84 463.234 140.84ZM506.546 145L500.826 136.8C500.586 136.827 500.226 136.84 499.746 136.84H493.426V145H488.226V117H499.746C502.172 117 504.279 117.4 506.066 118.2C507.879 119 509.266 120.147 510.226 121.64C511.186 123.133 511.666 124.907 511.666 126.96C511.666 129.067 511.146 130.88 510.106 132.4C509.092 133.92 507.626 135.053 505.706 135.8L512.146 145H506.546ZM506.426 126.96C506.426 125.173 505.839 123.8 504.666 122.84C503.492 121.88 501.772 121.4 499.506 121.4H493.426V132.56H499.506C501.772 132.56 503.492 132.08 504.666 131.12C505.839 130.133 506.426 128.747 506.426 126.96ZM537.338 117H542.538V140.6H557.178V145H537.338V117ZM565.683 117H570.883V145H565.683V117ZM588.537 121.4H579.257V117H603.017V121.4H593.737V145H588.537V121.4ZM632.319 140.64V145H611.319V117H631.759V121.36H616.519V128.64H630.039V132.92H616.519V140.64H632.319Z" fill="#D822FD"/>
<circle cx="90" cy="90" r="90" fill="white"/>
<circle cx="90" cy="90" r="81" fill="url(#paint0_linear)"/>
<path d="M40.9033 69.94C40.9059 69.94 40.9059 69.94 40.9059 69.94C40.9059 69.9426 40.9084 69.9426 40.9084 69.9426C40.911 69.9451 40.9161 69.9477 40.9238 69.9502C40.9752 69.8656 41.0291 69.7835 41.083 69.7014C46.3201 63.3033 54.0346 59.0115 62.7708 58.2957C63.6282 58.2239 64.4934 58.188 65.3688 58.188C67.2198 58.188 69.0322 58.347 70.7933 58.6574C80.7669 60.3942 89.1181 66.8384 93.4772 75.6146C97.1355 82.9824 107.117 83.947 111.943 77.7516C111.948 77.7439 111.953 77.7362 111.961 77.7285C112.272 77.2924 112.57 76.846 112.852 76.3868C112.855 76.3817 112.857 76.3765 112.86 76.3714C114.539 73.6393 115.66 70.5326 116.076 67.2027C116.292 65.8328 116.402 64.4295 116.402 62.9981C116.402 48.1625 104.431 36.1231 89.6135 36C89.1001 36.0026 88.5892 36.0128 88.0809 36.0308C88.0527 36.0308 88.0219 36.0308 87.9911 36.0333C71.8048 36.6105 57.4336 44.3041 47.9118 56.0767C43.8299 61.1253 40.6363 66.9205 38.5774 73.2288C39.2782 72.0795 40.0535 70.9815 40.893 69.9349C40.8982 69.9374 40.9007 69.9374 40.9033 69.94Z" fill="white"/>
<path d="M69.9642 139.044C69.9642 139.041 69.9642 139.041 69.9642 139.041C69.9668 139.041 69.9668 139.039 69.9668 139.039C69.9693 139.036 69.9719 139.031 69.9745 139.023C69.8897 138.972 69.8076 138.918 69.7254 138.864C63.3228 133.631 59.0279 125.922 58.3116 117.192C58.2397 116.335 58.2038 115.47 58.2038 114.596C58.2038 112.746 58.363 110.935 58.6736 109.175C60.4116 99.2084 66.8604 90.8632 75.6429 86.5072C83.0159 82.8515 83.9812 72.8773 77.7814 68.0544C77.7737 68.0493 77.766 68.0442 77.7583 68.0365C77.3218 67.7261 76.8751 67.4285 76.4156 67.1463C76.4105 67.1437 76.4053 67.1411 76.4002 67.1386C73.6661 65.4608 70.5572 64.3398 67.225 63.9242C65.8541 63.7087 64.4498 63.5984 63.0173 63.5984C48.1711 63.5984 36.1232 75.5607 36 90.3681C36.0026 90.8812 36.0128 91.3917 36.0308 91.8996C36.0308 91.9279 36.0308 91.9587 36.0334 91.9894C36.611 108.164 44.3101 122.525 56.091 132.04C61.1433 136.119 66.9426 139.31 73.2554 141.368C72.1053 140.668 71.0065 139.893 69.9591 139.054C69.9616 139.049 69.9616 139.046 69.9642 139.044Z" fill="white"/>
<path d="M139.235 110.06C139.233 110.06 139.233 110.06 139.233 110.06C139.233 110.057 139.23 110.057 139.23 110.057C139.227 110.055 139.222 110.052 139.215 110.05C139.163 110.134 139.109 110.216 139.055 110.299C133.818 116.697 126.104 120.989 117.368 121.704C116.51 121.776 115.645 121.812 114.77 121.812C112.919 121.812 111.106 121.653 109.345 121.343C99.3715 119.606 91.0204 113.162 86.6613 104.385C83.003 97.0176 73.0217 96.053 68.1953 102.248C68.1902 102.256 68.1851 102.264 68.1774 102.272C67.8667 102.708 67.5689 103.154 67.2865 103.613C67.284 103.618 67.2814 103.623 67.2788 103.629C65.5999 106.361 64.478 109.467 64.0621 112.797C63.8465 114.167 63.7361 115.57 63.7361 117.002C63.7361 131.838 75.707 143.877 90.5249 144C91.0384 143.997 91.5492 143.987 92.0576 143.969C92.0858 143.969 92.1166 143.969 92.1474 143.967C108.334 143.389 122.705 135.696 132.227 123.923C136.309 118.875 139.502 113.079 141.561 106.771C140.86 107.92 140.085 109.018 139.245 110.065C139.24 110.063 139.238 110.063 139.235 110.06Z" fill="white"/>
<path d="M110.036 40.9538C110.036 40.9563 110.036 40.9563 110.036 40.9563C110.033 40.9563 110.033 40.9589 110.033 40.9589C110.031 40.9614 110.028 40.9666 110.025 40.9743C110.11 41.0256 110.192 41.0795 110.274 41.1333C116.677 46.3667 120.972 54.0757 121.688 62.8057C121.76 63.6625 121.796 64.527 121.796 65.4018C121.796 67.2515 121.637 69.0626 121.326 70.8225C119.588 80.789 113.139 89.1342 104.357 93.4902C96.984 97.1459 96.0188 107.12 102.219 111.943C102.226 111.948 102.234 111.953 102.242 111.961C102.678 112.271 103.125 112.569 103.584 112.851C103.589 112.854 103.595 112.856 103.6 112.859C106.334 114.537 109.443 115.658 112.775 116.073C114.146 116.289 115.55 116.399 116.983 116.399C131.829 116.399 143.877 104.437 144 89.6293C143.997 89.1162 143.987 88.6057 143.969 88.0978C143.969 88.0695 143.969 88.0388 143.967 88.008C143.389 71.8332 135.69 57.4722 123.909 47.9572C118.857 43.8783 113.057 40.687 106.745 38.6295C107.895 39.3299 108.993 40.1046 110.041 40.9435C110.038 40.9486 110.038 40.9512 110.036 40.9538Z" fill="white"/>
<defs>
<linearGradient id="paint0_linear" x1="40.3302" y1="151.132" x2="128.972" y2="18.934" gradientUnits="userSpaceOnUse">
<stop stop-color="#221ECF"/>
<stop offset="1" stop-color="#E022FF"/>
</linearGradient>
</defs>
</svg>
