<svg width="529" height="385" viewBox="0 0 529 385" fill="none" xmlns="http://www.w3.org/2000/svg">
<path d="M452.182 0H82.6628C69.1357 0 58.1715 11.0079 58.1715 24.5887V259.474C58.1715 273.055 69.1357 284.063 82.6628 284.063H452.182C465.71 284.063 476.674 273.055 476.674 259.474V24.5887C476.674 11.0079 465.71 0 452.182 0Z" fill="url(#paint0_linear)"/>
<path d="M86.1817 0H449.263C456.612 0 463.661 2.93088 468.855 8.14513C474.054 13.3594 476.974 20.4367 476.974 27.815L58.4713 29.7692C58.4713 22.3908 61.3906 13.3594 66.5842 8.14513C71.7834 2.93088 78.8327 0 86.1817 0Z" fill="#816AF3"/>
<path d="M278.78 45.4741H449.71C452.641 45.4741 455.458 46.6442 457.529 48.7231C459.605 50.8076 460.771 53.6306 460.771 56.5729V141.404C460.771 144.346 459.605 147.169 457.529 149.254C455.458 151.338 452.641 152.503 449.71 152.503H278.78C275.85 152.503 273.038 151.332 270.961 149.254C268.891 147.169 267.725 144.346 267.725 141.404V56.5729C267.725 55.1131 268.014 53.6704 268.568 52.3242C269.123 50.978 269.937 49.7512 270.967 48.7231C271.997 47.6893 273.213 46.8714 274.554 46.3148C275.889 45.7581 277.326 45.4741 278.78 45.4741Z" stroke="#5F3AFC" stroke-miterlimit="10" stroke-dasharray="11.93 11.93"/>
<path d="M403.828 168.196H232.898C226.793 168.196 221.843 173.166 221.843 179.295V264.126C221.843 270.255 226.793 275.225 232.898 275.225H403.828C409.932 275.225 414.883 270.255 414.883 264.126V179.295C414.888 173.166 409.938 168.196 403.828 168.196Z" fill="white"/>
<path d="M201.131 168.196H81.6897C76.5244 168.196 72.3379 172.4 72.3379 177.585V265.836C72.3379 271.022 76.5244 275.225 81.6897 275.225H201.131C206.296 275.225 210.483 271.022 210.483 265.836V177.585C210.483 172.4 206.296 168.196 201.131 168.196Z" fill="white"/>
<path d="M237.571 246.035C237.571 246.035 250.385 244.678 258.085 250.471C268.415 258.236 276.738 264.228 287.719 245.143C299.752 224.235 301.642 216.931 310.422 216.846C321.686 216.738 326.088 246.887 346.862 249.017C367.637 251.147 381.758 247.739 381.758 247.739" stroke="#5F3AFC" stroke-width="10" stroke-miterlimit="10" stroke-linecap="round"/>
<path d="M237.571 185.861H267.42" stroke="#5F3AFC" stroke-width="16" stroke-miterlimit="10" stroke-linecap="round"/>
<path d="M237.571 199.845H299.26" stroke="#D4DCF4" stroke-width="16" stroke-miterlimit="10" stroke-linecap="round"/>
<path d="M83.7887 20.1982C86.4024 20.1982 88.524 18.0682 88.524 15.444C88.524 12.8198 86.4024 10.6898 83.7887 10.6898C81.1749 10.6898 79.0533 12.8198 79.0533 15.444C79.059 18.0738 81.1749 20.1982 83.7887 20.1982Z" fill="white"/>
<path d="M99.8391 20.1982C102.453 20.1982 104.574 18.0682 104.574 15.444C104.574 12.8198 102.453 10.6898 99.8391 10.6898C97.2253 10.6898 95.1038 12.8198 95.1038 15.444C95.1038 18.0738 97.2197 20.1982 99.8391 20.1982Z" fill="white"/>
<path d="M115.425 20.1982C118.039 20.1982 120.161 18.0682 120.161 15.444C120.161 12.8198 118.039 10.6898 115.425 10.6898C112.812 10.6898 110.69 12.8198 110.69 15.444C110.69 18.0738 112.806 20.1982 115.425 20.1982Z" fill="white"/>
<path d="M364.519 118.224C375.099 118.224 383.676 109.613 383.676 98.9913C383.676 88.3697 375.099 79.7588 364.519 79.7588C353.94 79.7588 345.363 88.3697 345.363 98.9913C345.363 109.613 353.94 118.224 364.519 118.224Z" fill="#F24774"/>
<path d="M366.03 89.9032C366.03 89.0625 365.351 88.3866 364.52 88.3866C363.682 88.3866 363.009 89.0682 363.009 89.9032V109.3C363.009 110.141 363.688 110.817 364.52 110.817C365.357 110.817 366.03 110.135 366.03 109.3V89.9032Z" fill="white"/>
<path d="M374.177 101.116C375.014 101.116 375.687 100.434 375.687 99.5991C375.687 98.7585 375.009 98.0825 374.177 98.0825H354.857C354.019 98.0825 353.346 98.7641 353.346 99.5991C353.346 100.44 354.025 101.116 354.857 101.116H374.177Z" fill="white"/>
<path d="M529 235.414H318.366V384.804H529V235.414Z" fill="#816AF3"/>
<path d="M402.51 235.414H318.366V384.804H402.51V235.414Z" fill="url(#paint1_linear)"/>
<path d="M15.5253 328.657L6.88061 384.389L3.58794 383.872C2.47907 383.696 1.48335 383.088 0.815769 382.179C0.148184 381.271 -0.123376 380.129 0.052007 379.016L7.38979 331.69C7.56517 330.577 8.17052 329.577 9.07572 328.907C9.98092 328.236 11.1181 327.964 12.2269 328.14L15.5253 328.657Z" fill="#3A2496"/>
<path d="M42.5398 338.034L29.0241 333.973L24.7244 352.876L39.5131 357.54L42.5398 338.034Z" fill="#BC775C"/>
<path d="M33.2389 355.563L30.7383 354.773L36.8767 336.33L39.1566 337.018L33.2389 355.563Z" fill="#93523E"/>
<path d="M30.7382 334.246C30.7382 334.246 25.4428 343.481 28.3621 354.029L10.1676 383.889C8.58914 385.048 6.1847 384.361 4.84953 383.651C4.55534 383.491 4.32338 383.247 4.17629 382.946C4.02919 382.651 3.97828 382.31 4.02919 381.981L11.8761 331.389C12.0063 330.542 12.4645 329.787 13.1434 329.276C13.828 328.765 14.6823 328.543 15.5252 328.657C18.8971 329.117 24.0341 329.861 26.0538 330.378C29.1768 331.184 30.8231 332.326 30.7382 334.246Z" fill="#9178F7"/>
<path d="M24.7357 360.368L22.0653 356.091C21.9692 355.932 21.8334 355.807 21.675 355.716C21.5166 355.625 21.3355 355.574 21.1545 355.569C20.9678 355.563 20.7867 355.603 20.6227 355.682C20.4586 355.762 20.3172 355.887 20.2097 356.034C20.0796 356.216 20.006 356.438 20.0004 356.665C19.9947 356.892 20.0569 357.114 20.1814 357.301L23.5137 362.498L24.7357 360.368Z" fill="white"/>
<path d="M21.709 364.952L19.0669 360.686C18.9708 360.527 18.835 360.402 18.6766 360.306C18.5182 360.215 18.3371 360.164 18.1561 360.158C17.9694 360.152 17.7883 360.192 17.6243 360.272C17.4602 360.351 17.3188 360.476 17.2113 360.624C17.0811 360.806 17.0076 361.027 17.0019 361.254C16.9963 361.481 17.0585 361.703 17.1773 361.89L20.4417 367.037L21.709 364.952Z" fill="white"/>
<path d="M18.569 370.104L15.9722 365.866C15.876 365.707 15.7402 365.582 15.5818 365.486C15.4234 365.395 15.2424 365.344 15.0613 365.338C14.8803 365.332 14.6936 365.372 14.5295 365.452C14.3655 365.531 14.224 365.656 14.1165 365.804C13.9864 365.986 13.9129 366.207 13.9072 366.434C13.9016 366.661 13.9638 366.883 14.0883 367.07L17.3357 372.131L18.569 370.104Z" fill="white"/>
<path d="M164.114 377.209H220.293V380.555C220.293 381.112 220.185 381.668 219.97 382.185C219.755 382.702 219.444 383.168 219.054 383.565C218.658 383.963 218.194 384.275 217.679 384.485C217.164 384.701 216.616 384.809 216.055 384.809H168.351C167.226 384.809 166.151 384.361 165.353 383.565C164.555 382.77 164.114 381.685 164.114 380.555V377.209Z" fill="#3A2496"/>
<path d="M169.189 348.963L167.271 362.992L186.54 364.344L188.854 348.957H169.189V348.963Z" fill="#BC775C"/>
<path d="M188.65 350.292L188.158 353.575L168.374 354.938L169.008 350.292H188.65Z" fill="#93523E"/>
<path d="M167.271 361.254C167.271 361.254 177.177 365.088 187.106 360.567L219.291 374.017C220.678 375.409 220.372 377.897 219.874 379.328C219.761 379.641 219.557 379.913 219.286 380.106C219.014 380.299 218.692 380.402 218.358 380.396H167.361C166.513 380.396 165.692 380.061 165.087 379.464C164.482 378.868 164.131 378.056 164.114 377.198C164.046 373.779 163.989 368.57 164.187 366.486C164.499 363.276 165.37 361.47 167.271 361.254Z" fill="#9178F7"/>
<path d="M193.906 363.191L190.11 366.497C189.974 366.616 189.867 366.769 189.799 366.945C189.731 367.116 189.708 367.303 189.731 367.485C189.754 367.667 189.822 367.843 189.923 367.996C190.031 368.15 190.167 368.269 190.331 368.354C190.529 368.456 190.761 368.496 190.981 368.468C191.202 368.439 191.411 368.343 191.581 368.195L196.181 364.088L193.906 363.191Z" fill="white"/>
<path d="M198.885 365.492L195.094 368.775C194.953 368.894 194.851 369.047 194.783 369.218C194.715 369.388 194.693 369.576 194.715 369.757C194.738 369.939 194.806 370.115 194.908 370.269C195.015 370.422 195.151 370.541 195.321 370.626C195.519 370.729 195.751 370.768 195.971 370.74C196.192 370.712 196.407 370.615 196.571 370.467L201.137 366.44L198.885 365.492Z" fill="white"/>
<path d="M204.435 367.815L200.667 371.041C200.531 371.16 200.424 371.314 200.356 371.484C200.288 371.655 200.265 371.842 200.288 372.024C200.311 372.205 200.378 372.382 200.48 372.535C200.588 372.688 200.724 372.808 200.888 372.893C201.091 372.995 201.318 373.035 201.538 373.006C201.759 372.978 201.968 372.881 202.138 372.734L206.619 368.735L204.435 367.815Z" fill="white"/>
<path d="M136.098 165.061L147.741 142.046C147.741 142.046 140.652 142.977 139.419 138.558C138.186 134.139 172.917 130.192 172.917 130.192C172.917 130.192 170.139 139.955 165.969 141.12L154.507 174.831L136.098 165.061Z" fill="#CE9781"/>
<path d="M137.835 161.63L156.024 170.377L154.513 174.825L136.839 163.607L137.835 161.63Z" fill="#A9674D"/>
<path d="M248.722 41.8901L81.305 69.4041C78.431 69.8755 76.4848 72.5962 76.9544 75.4817L87.8847 142.529C88.3543 145.414 91.0642 147.368 93.9382 146.896L261.355 119.382C264.229 118.911 266.175 116.19 265.706 113.305L254.77 46.258C254.3 43.3726 251.59 41.4187 248.722 41.8901Z" fill="#FFC8D6"/>
<path d="M163.169 83.9278L231.206 72.7439" stroke="white" stroke-width="16.5208" stroke-miterlimit="10" stroke-linecap="round"/>
<path opacity="0.7" d="M168 104.665L212.384 97.3723" stroke="white" stroke-width="16.5208" stroke-miterlimit="10" stroke-linecap="round"/>
<path d="M122.497 129.674C135.787 129.674 146.559 118.86 146.559 105.517C146.559 92.1751 135.787 81.3604 122.497 81.3604C109.208 81.3604 98.4359 92.1751 98.4359 105.517C98.4359 118.86 109.208 129.674 122.497 129.674Z" stroke="#F24774" stroke-width="16.5208" stroke-miterlimit="10"/>
<path d="M146.247 101.61C147.017 106.324 146.378 111.163 144.403 115.514C142.434 119.865 139.221 123.529 135.176 126.045C131.131 128.561 126.435 129.816 121.677 129.657C116.919 129.493 112.319 127.919 108.455 125.13C104.591 122.342 101.638 118.468 99.9635 113.992C98.2945 109.516 97.9833 104.648 99.0696 99.9964C100.156 95.3445 102.594 91.1186 106.074 87.8583C109.553 84.5979 113.915 82.4452 118.611 81.6727" stroke="white" stroke-width="16.5208" stroke-miterlimit="10" stroke-linecap="round"/>
<path d="M130.339 286.426L137.28 365.338C137.28 382.253 120.087 384.179 114.588 382.185C106.826 379.373 31.6378 360.158 31.6378 360.158L39.6036 335.654L97.3101 343.709C97.3101 343.709 95.7316 327.265 80.2584 277.065L130.339 286.426Z" fill="#5F3AFC"/>
<path d="M85.4181 294.452L132.206 307.641L129.575 275.952L80.2584 277.059L85.4181 294.452Z" fill="#3A2496"/>
<path d="M129.66 113.526C129.66 113.526 138.927 124.085 141.682 128.363C144.437 132.634 144.533 141.018 138.774 143.159C133.015 145.295 128.302 145.652 119.895 144.079C113.349 142.852 104.868 132.009 107.375 126.482C109.875 120.944 121.519 110.885 129.66 113.526Z" fill="#CE9781"/>
<path d="M131.414 143.068L130.039 160.92L109.881 156.518L118.899 139.671L131.414 143.068Z" fill="#CE9781"/>
<path d="M131.414 144.925H125.931L130.621 153.332" fill="#A9674D"/>
<path d="M107.624 155.388L110.628 152.463C111.018 152.082 111.499 151.81 112.02 151.662C112.546 151.514 113.094 151.509 113.626 151.633L130.112 155.553C130.508 155.649 130.876 155.842 131.176 156.121C131.476 156.399 131.696 156.751 131.821 157.143L133.015 160.915L107.624 155.388Z" fill="url(#paint2_linear)"/>
<path d="M81.5144 245.643L78.5612 259.997C75.2403 281.893 90.8776 296.377 114.769 292.43C136.109 288.902 199.326 264.296 199.326 264.296L196.809 225.349L143.662 234.153C143.668 234.153 95.8958 225.269 81.5144 245.643Z" fill="#5F3AFC"/>
<path d="M200.769 259.406C210.262 259.406 217.962 251.681 217.962 242.144C217.962 232.613 210.262 224.883 200.769 224.883C191.276 224.883 183.576 232.608 183.576 242.144C183.581 251.681 191.276 259.406 200.769 259.406Z" fill="#5F3AFC"/>
<path d="M200.769 259.406C210.262 259.406 217.962 251.681 217.962 242.144C217.962 232.613 210.262 224.883 200.769 224.883C191.276 224.883 183.576 232.608 183.576 242.144C183.581 251.681 191.276 259.406 200.769 259.406Z" fill="#5F3AFC"/>
<path d="M120.093 383.094C129.586 383.094 137.286 375.369 137.286 365.832C137.286 356.301 129.592 348.571 120.093 348.571C110.6 348.571 102.9 356.301 102.9 365.832C102.9 375.369 110.6 383.094 120.093 383.094Z" fill="#5F3AFC"/>
<path d="M217.125 247.137L192.956 350.298H164.052L183.581 242.15L217.125 247.137Z" fill="#5F3AFC"/>
<path d="M143.668 234.153L80.0151 254.044L81.5144 245.643L143.668 234.153Z" fill="#3A2496"/>
<path d="M157.953 175.882L164.278 180.499L185.397 145.698C185.397 145.698 182.586 134.298 182.393 132.356L189.267 131.373C189.267 131.373 194.834 120.842 196.418 118.758C198.002 116.673 199.835 117.042 200.814 118.758C200.814 118.758 203.863 119.246 204.356 123.415C204.356 123.415 207.043 124.029 208.141 129.419C208.141 129.419 210.46 131.873 209.974 134.565C209.487 137.263 203.383 147.828 202.404 148.913C201.651 149.799 200.961 150.736 200.328 151.719L179.989 200.652C179.989 200.652 175.016 211.353 163.373 207.298L148.935 200.578C142.293 196.267 157.953 175.882 157.953 175.882Z" fill="#CE9781"/>
<path d="M168.595 208.564C175.31 208.564 180.753 203.1 180.753 196.358C180.753 189.616 175.31 184.151 168.595 184.151C161.879 184.151 156.437 189.616 156.437 196.358C156.437 203.1 161.879 208.564 168.595 208.564Z" fill="#BC775C"/>
<path d="M117.637 122.325C117.637 122.325 129.535 118.303 131.911 109.88C134.293 101.456 129.281 97.0543 122.769 101.331C122.769 101.331 118.135 93.9132 110.249 99.0707C102.362 104.222 103.861 116.417 104.116 118.809C104.116 118.809 95.2281 125.096 99.4825 135.025C103.737 144.954 115.42 147.345 115.42 147.345C116.71 145.488 117.632 143.392 118.135 141.188C118.135 141.188 111.697 136.286 115.42 131.509C119.137 126.732 123.397 134.4 123.397 134.4C123.397 134.4 126.655 123.586 117.637 122.325Z" fill="#080B09"/>
<path d="M107.624 155.388C107.624 155.388 99.3638 159.512 97.4968 163.948C95.7656 168.049 83.7434 221.929 80.0604 243.616C79.9699 244.132 80.0095 244.661 80.1736 245.155C80.3376 245.649 80.6205 246.098 80.9939 246.461C81.3673 246.825 81.8255 247.086 82.3291 247.222C82.8269 247.364 83.3587 247.381 83.8622 247.268L143.662 234.147C143.662 234.147 140.737 202.594 141.761 193.33C142.785 184.072 133.003 160.915 133.003 160.915L107.624 155.388Z" fill="url(#paint3_linear)"/>
<path d="M141.557 197.704L126.48 188.707L142.168 214.613L141.557 197.704Z" fill="#96BAFD"/>
<path d="M164.278 180.499L168.668 183.572L172.917 166.265L164.278 180.499Z" fill="#A9674D"/>
<path d="M133.009 160.92C133.009 160.92 157.008 174.092 159.922 176.251C160.301 176.529 160.567 176.938 160.668 177.398C160.776 177.858 160.714 178.341 160.499 178.756L149.478 199.999C149.353 200.237 149.184 200.448 148.974 200.618C148.765 200.788 148.527 200.913 148.267 200.987C148.007 201.061 147.741 201.084 147.475 201.044C147.209 201.01 146.955 200.919 146.723 200.783L118.752 184.095C118.752 184.101 117.264 161.886 133.009 160.92Z" fill="url(#paint4_linear)"/>
<path d="M129.948 129.368C130.525 128.936 130.457 127.874 129.801 126.994C129.145 126.113 128.149 125.75 127.572 126.181C126.995 126.613 127.063 127.675 127.719 128.556C128.376 129.436 129.371 129.8 129.948 129.368Z" fill="#080B09"/>
<path d="M137.835 123.376C138.412 122.944 138.344 121.882 137.688 121.001C137.031 120.121 136.036 119.757 135.459 120.189C134.882 120.621 134.949 121.683 135.606 122.563C136.262 123.444 137.258 123.807 137.835 123.376Z" fill="#080B09"/>
<path d="M134.638 125.017C134.638 125.017 134.502 127.624 136.092 126.937C137.586 126.227 138.864 126.715 137.931 128.692" stroke="#93523E" stroke-width="1.2088" stroke-linecap="round" stroke-linejoin="round"/>
<path d="M138.457 130.555C137.552 131.049 135.747 132.032 134.553 132.713C134.48 132.753 134.423 132.81 134.384 132.884C134.344 132.957 134.322 133.037 134.322 133.122C134.322 133.207 134.35 133.287 134.395 133.355C134.44 133.423 134.503 133.48 134.576 133.52C136.245 134.247 139.826 135.298 139.074 130.901C139.074 130.827 139.051 130.759 139.017 130.697C138.978 130.634 138.927 130.583 138.864 130.549C138.802 130.515 138.729 130.498 138.661 130.498C138.593 130.498 138.519 130.515 138.457 130.555Z" fill="white"/>
<path d="M123.165 126.761L123.335 126.897C123.561 127.119 123.866 127.244 124.183 127.238C124.5 127.232 124.8 127.107 125.026 126.88L128.743 122.893C128.93 122.705 129.043 122.455 129.054 122.194C129.066 121.927 128.981 121.672 128.811 121.467C128.715 121.336 128.59 121.229 128.449 121.155C128.308 121.075 128.149 121.03 127.991 121.018C127.827 121.007 127.668 121.03 127.515 121.081C127.363 121.138 127.227 121.223 127.108 121.336L123.221 125.188C123.114 125.284 123.023 125.403 122.961 125.54C122.899 125.67 122.865 125.818 122.859 125.966C122.854 126.113 122.876 126.261 122.933 126.397C122.984 126.534 123.063 126.659 123.165 126.761Z" fill="#080B09"/>
<path d="M136.675 115.441L131.561 117.366C131.408 117.423 131.272 117.514 131.159 117.633C131.046 117.747 130.961 117.889 130.904 118.042C130.848 118.195 130.825 118.354 130.836 118.519C130.848 118.684 130.893 118.837 130.967 118.979C131.08 119.218 131.278 119.405 131.521 119.502C131.764 119.598 132.036 119.604 132.285 119.513L137.45 117.798C137.75 117.69 137.993 117.468 138.129 117.179C138.265 116.895 138.282 116.565 138.174 116.264L138.118 116.054C138.067 115.918 137.982 115.793 137.88 115.685C137.778 115.577 137.654 115.497 137.518 115.441C137.382 115.384 137.235 115.355 137.088 115.355C136.952 115.355 136.811 115.384 136.675 115.441Z" fill="#080B09"/>
<path d="M389.101 204.997C389.101 204.997 372.898 190.797 359.722 202.862C346.546 214.926 292.12 297.797 292.12 297.797L308.584 309.225L370.324 239.515L381.073 256.884L389.101 204.997Z" fill="#FCBA9F"/>
<path fill-rule="evenodd" clip-rule="evenodd" d="M378.081 363.555C384.87 358.573 391.862 353.444 399.228 351.786C399.392 351.746 399.568 351.746 399.732 351.78C399.896 351.814 400.054 351.888 400.19 351.99C400.326 352.092 400.439 352.223 400.518 352.371C400.598 352.518 400.648 352.689 400.654 352.859L401.463 366.582C401.48 366.866 401.395 367.144 401.22 367.366C401.05 367.587 400.801 367.741 400.524 367.798L350.059 377.812C346.336 378.55 343.955 376.925 342.806 374.04C342.767 373.938 342.761 373.83 342.784 373.728C342.806 373.625 342.857 373.529 342.931 373.455C343.004 373.381 343.1 373.33 343.202 373.307C343.304 373.285 343.411 373.29 343.513 373.33C350.144 375.772 357.459 375.517 363.903 372.614C368.57 370.535 373.272 367.082 378.081 363.555Z" fill="#3A2496"/>
<path fill-rule="evenodd" clip-rule="evenodd" d="M393.565 318.603C393.565 318.603 394.521 340.261 395.025 342.465C395.37 343.669 395.805 344.845 396.326 345.986C397.192 348.054 398.153 350.36 398.244 352.041C391.24 353.916 384.564 358.812 378.081 363.566C373.272 367.093 368.57 370.541 363.914 372.626C357.781 375.386 350.845 375.761 344.452 373.671C343.575 369.928 346.121 365.781 352.548 363.918C364.067 360.573 370.358 358.448 374.375 348.781C377.226 341.908 372.451 317.984 372.451 317.984L393.565 318.603Z" fill="#FFCCB3"/>
<path fill-rule="evenodd" clip-rule="evenodd" d="M374.878 345.112C377.141 344.97 386.142 344.379 394.753 343.249C396.428 343.027 397.921 346.185 397.209 348.196C396.739 349.661 396.388 351.167 396.162 352.689C393.35 353.723 390.657 355.04 388.117 356.631C388.637 353.052 386.465 351.468 383.234 351.632C380.683 351.763 374.924 353.387 371.948 354.274C371.784 354.319 371.608 354.319 371.45 354.274C371.286 354.228 371.139 354.132 371.026 354.001C370.912 353.87 370.839 353.717 370.816 353.546C370.794 353.376 370.816 353.206 370.884 353.047L374.12 345.651C374.188 345.498 374.29 345.373 374.426 345.276C374.561 345.174 374.714 345.123 374.878 345.112Z" fill="#9178F7"/>
<path fill-rule="evenodd" clip-rule="evenodd" d="M351.055 374.937C356.916 375.397 360.463 373.87 360.463 373.87L358.104 361.89L348.933 364.157L351.055 374.937Z" fill="#9178F7"/>
<path fill-rule="evenodd" clip-rule="evenodd" d="M277.541 320.296C285.925 320.921 294.564 321.568 301.24 325.101C301.393 325.181 301.523 325.294 301.625 325.425C301.727 325.561 301.8 325.714 301.84 325.885C301.88 326.05 301.88 326.226 301.846 326.39C301.812 326.561 301.738 326.714 301.636 326.85L293.388 337.824C293.218 338.051 292.975 338.205 292.697 338.267C292.42 338.324 292.132 338.284 291.888 338.142L247.002 312.917C243.692 311.06 242.923 308.265 243.918 305.323C243.952 305.221 244.02 305.136 244.105 305.073C244.19 305.011 244.292 304.971 244.394 304.96C244.501 304.948 244.603 304.971 244.699 305.022C244.795 305.073 244.869 305.147 244.92 305.244C248.388 311.418 254.125 315.99 260.902 317.973C265.796 319.421 271.601 319.853 277.541 320.296Z" fill="#3A2496"/>
<path fill-rule="evenodd" clip-rule="evenodd" d="M318.365 296.156L304.069 315.269C303.554 316.41 303.124 317.592 302.785 318.796C302.106 320.937 301.348 323.317 300.335 324.652C293.795 321.517 285.552 320.903 277.547 320.301C271.612 319.858 265.802 319.421 260.914 317.978C254.458 316.087 248.942 311.855 245.423 306.107C247.172 302.688 251.788 301.188 257.887 303.949C268.817 308.896 274.978 311.378 284.279 306.629C285.778 305.743 287.119 304.613 288.256 303.29L302.706 281.927L318.365 296.156Z" fill="#FCBA9F"/>
<path fill-rule="evenodd" clip-rule="evenodd" d="M287.017 304.17C288.833 305.539 296.064 310.941 303.356 315.689C304.771 316.615 303.871 319.989 302.032 321.051C300.731 321.863 299.492 322.778 298.338 323.789C295.532 322.744 292.624 321.994 289.665 321.551C292.369 319.165 291.741 316.547 289.179 314.57C287.153 313.008 281.716 310.498 278.882 309.231C278.723 309.163 278.593 309.049 278.503 308.907C278.407 308.765 278.356 308.601 278.356 308.43C278.356 308.26 278.401 308.089 278.491 307.947C278.582 307.8 278.712 307.686 278.865 307.612L286.101 304.091C286.248 304.017 286.412 303.988 286.576 304.006C286.734 304.011 286.887 304.074 287.017 304.17Z" fill="#9178F7"/>
<path fill-rule="evenodd" clip-rule="evenodd" d="M249.616 311.367C253.78 315.536 257.468 316.678 257.468 316.678L263.409 306.022L254.962 301.779L249.616 311.367Z" fill="#9178F7"/>
<path d="M411.324 194.688L368.599 202.311L377.006 236.266H404.371C404.377 236.266 417.383 208.195 411.324 194.688Z" fill="#FFCCB3"/>
<path d="M374.075 235.93C383.568 235.93 391.268 228.206 391.268 218.669C391.268 209.138 383.574 201.407 374.075 201.407C364.582 201.407 356.882 209.138 356.882 218.669C356.882 228.206 364.582 235.93 374.075 235.93Z" fill="#FFCCB3"/>
<path d="M357.097 221.39L374.301 329.531L394.142 330.361L391.828 223.463L357.097 221.39Z" fill="#FFCCB3"/>
<path d="M384.043 197.664C384.043 197.664 390.629 199.698 393.344 210.484C396.06 221.265 393.095 236.266 393.095 236.266H397.327C397.327 236.266 412.421 218.465 401.316 195.784L384.043 197.664Z" fill="#FF967C"/>
<path d="M425.587 105.188L420.206 107.778C418.141 108.772 416.325 110.209 414.883 111.987C413.44 113.77 412.405 115.844 411.85 118.076L399.692 167.185L372.287 180.34L378.533 190.303L430.35 188.457L425.587 105.188Z" fill="#5F3AFC"/>
<path d="M417.841 122.864C417.841 122.864 408.405 136.173 412.97 148.85C417.536 161.528 415.675 163.88 414.532 175.109C413.389 186.338 417.117 183.726 417.117 183.726L430.356 177.455C430.356 177.46 435.877 124.335 417.841 122.864Z" fill="#3A2496"/>
<path d="M473.359 183.993C473.359 183.993 478.592 209.7 471.735 220.441C463.056 234.039 452.443 236.118 444.596 236.266H393.101C393.101 236.266 393.005 204.009 367.637 198.499C367.637 198.499 451.13 175.154 473.359 183.993Z" fill="#1F2D49"/>
<path d="M474.513 191.479L419.935 193.285L420.517 189.457L431.154 188.224H474.433L474.513 191.479Z" fill="#0D1B33"/>
<path d="M403.93 179.431C403.93 179.431 397.254 181.38 394.255 182.266C391.257 183.152 385.328 185.276 385.328 185.276L389.667 191.473L409.344 190.297L403.93 179.431Z" fill="#FFCCB3"/>
<path d="M436.279 100.604C436.279 100.604 425.077 105.058 423.363 106.432C421.655 107.807 420.025 119.025 417.117 124.347C414.209 129.675 409.955 139.501 416.167 148.532C422.384 157.564 421.722 164.732 421.722 164.732L420.399 187.378L472.244 188.963C472.714 188.98 473.183 188.889 473.619 188.713C474.054 188.531 474.45 188.258 474.773 187.917C475.095 187.571 475.344 187.162 475.497 186.713C475.65 186.265 475.706 185.787 475.667 185.316C475.073 178.71 474.071 168.85 473.856 158.33C473.568 144.079 473.353 96.4637 473.353 96.4637L450.016 95.731C445.326 96.5432 436.279 100.604 436.279 100.604Z" fill="#5F3AFC"/>
<path d="M473.358 121.74C480.311 121.74 485.946 116.082 485.946 109.102C485.946 102.121 480.311 96.4636 473.358 96.4636C466.405 96.4636 460.771 102.121 460.771 109.102C460.771 116.082 466.405 121.74 473.358 121.74Z" fill="#5F3AFC"/>
<path d="M475.056 180.09C475.056 180.09 473.981 184.044 462.468 188.662C462.468 188.662 435.476 188.071 422.068 188.355C408.659 188.639 423.505 185.089 430.989 181.34C438.474 177.591 474.207 167.185 474.207 167.185L475.056 180.09Z" fill="#3A2496"/>
<path d="M464.176 115.929C464.176 115.929 456.369 123.075 455.911 128.374C455.447 133.673 454.389 148.458 444.358 149.935C432.059 151.742 428.84 153.502 434.542 154.883C440.239 156.263 453.178 154.025 453.178 159.955C453.178 164.175 458.202 167.333 460.731 165.027C463.254 162.721 483.372 127.681 464.176 115.929Z" fill="#3A2496"/>
<path d="M485.811 110.953C484.753 116.026 474.682 169.463 474.682 169.463C474.682 169.463 473.359 177.455 465.579 179.431L411.324 193.279L401.774 178.903L450.983 162.005L460.771 109.102C460.771 109.102 487.225 104.183 485.811 110.953Z" fill="#5F3AFC"/>
<path d="M435.018 90.7608L435.532 108.295C435.532 108.295 435.397 111.322 439.051 110.914C442.712 110.505 450.072 107.761 452.103 104.222C454.134 100.684 452.85 99.474 452.85 99.474L441.688 77.6287L435.018 90.7608Z" fill="#FFCCB3"/>
<path d="M435.018 92.8001L439.589 87.3586L435.408 104.098L435.018 92.8001Z" fill="#FF967C"/>
<path d="M439.091 47.536C438.893 44.1905 439.617 40.8563 441.19 37.897C443.792 33.1769 449.19 26.6506 457.393 29.4622C465.591 32.2738 471.593 38.6013 468.493 47.536C465.393 56.4707 456.782 59.3334 452.392 58.3791C448.002 57.4249 439.091 47.536 439.091 47.536Z" fill="#080B09"/>
<path d="M436.449 48.7799C436.924 47.979 437.626 47.3485 438.474 46.968C439.317 46.5874 440.256 46.4795 441.167 46.6556C444.415 47.2577 447.826 49.8307 450.734 52.915C453.636 55.9992 453.54 58.2428 452.222 59.606C450.904 60.9692 436.449 48.7799 436.449 48.7799Z" fill="#FEBB94"/>
<path d="M364.519 138.246L385.322 196.114H427.154C427.154 194.347 426.452 192.654 425.207 191.405C423.963 190.155 422.277 189.451 420.517 189.451H390.255L372.293 138.246H364.519Z" fill="white"/>
<path d="M364.519 138.246H308.397L330.099 196.114H385.322L364.519 138.246Z" fill="#D4DCF4"/>
<path d="M346.857 174.013C349.652 174.013 351.92 171.735 351.92 168.929C351.92 166.123 349.652 163.846 346.857 163.846C344.062 163.846 341.793 166.123 341.793 168.929C341.799 171.741 344.062 174.013 346.857 174.013Z" fill="white"/>
<path d="M412.303 69.1995C412.303 69.1995 414.034 85.984 422.169 93.6292C427.476 98.6106 432.341 97.3383 439.594 87.3642C446.242 78.2194 446.825 73.7719 446.825 73.7719L439.798 57.8963C439.792 57.8906 411.471 53.8408 412.303 69.1995Z" fill="#FFCCB3"/>
<path d="M415.177 65.9109C415.177 65.9109 419.176 72.3065 426.509 72.4088C428.047 73.6697 429.875 74.5161 431.827 74.8569C433.784 75.2033 435.793 75.0386 437.66 74.3741C437.66 74.3741 434.74 69.9209 437.66 68.3646C442.627 65.7177 444.335 74.5501 441.688 77.623C439.889 79.7133 441.79 82.15 443.13 84.3254C444.477 86.5009 448.81 91.8912 448.81 91.8912C448.81 91.8912 448.397 88.7786 450.361 86.5009C452.324 84.2232 458.683 60.8727 446.864 52.2845C435.046 43.6964 422.605 50.5692 420.274 52.2845C420.274 52.2845 407.856 54.46 407.833 67.4331C407.816 78.5205 415.674 81.156 415.674 81.156L413.327 72.21C413.321 72.2157 414.775 72.369 415.177 65.9109Z" fill="#080B09"/>
<path d="M428.387 86.5859C428.387 86.5859 429.303 89.46 426.192 90.8005C424.087 91.4934 422.622 89.4259 422.622 89.4259L428.387 86.5859Z" fill="#E56441"/>
<path d="M417.491 82.3659C418.136 82.2069 418.469 81.2981 418.237 80.3438C418 79.3839 417.287 78.7421 416.642 78.9011C415.997 79.0602 415.663 79.969 415.895 80.9232C416.127 81.8831 416.846 82.525 417.491 82.3659Z" fill="#080B09"/>
<path d="M427.086 80.1336C427.731 79.9746 428.064 79.0658 427.832 78.1115C427.595 77.1516 426.882 76.5098 426.231 76.6688C425.586 76.8279 425.253 77.7367 425.485 78.6909C425.722 79.6508 426.441 80.2927 427.086 80.1336Z" fill="#080B09"/>
<path d="M413.768 77.2027L418.65 76.078C418.73 76.0496 418.803 75.9985 418.843 75.9247C418.888 75.8508 418.905 75.7656 418.888 75.6804C418.832 75.5384 418.752 75.4021 418.645 75.2942C418.537 75.1806 418.413 75.0954 418.271 75.0329C418.13 74.9704 417.977 74.942 417.824 74.942C417.672 74.942 417.519 74.9761 417.377 75.0329L413.547 76.6631C413.231 76.7426 413.372 77.3049 413.768 77.2027Z" fill="#080B09"/>
<path d="M430.163 72.8176L423.804 74.817C423.765 74.6182 423.759 74.4137 423.804 74.2092C423.844 74.0104 423.929 73.823 424.048 73.6583C424.167 73.4936 424.319 73.3516 424.495 73.2493C424.67 73.1471 424.862 73.0846 425.066 73.0619L430.146 72.3973C430.305 72.3576 430.401 72.7552 430.163 72.8176Z" fill="#080B09"/>
<path d="M420.913 79.168L420.223 84.3368L422.039 85.2172" stroke="#E56441" stroke-width="0.9467" stroke-linecap="round"/>
<defs>
<linearGradient id="paint0_linear" x1="257.005" y1="-0.674218" x2="301.605" y2="605.389" gradientUnits="userSpaceOnUse">
<stop stop-color="#F7F7FF"/>
<stop offset="1" stop-color="#D8DDFF"/>
</linearGradient>
<linearGradient id="paint1_linear" x1="346.539" y1="237.332" x2="406.02" y2="546.346" gradientUnits="userSpaceOnUse">
<stop stop-color="#ECE8FF"/>
<stop offset="1" stop-color="#94B9FF"/>
</linearGradient>
<linearGradient id="paint2_linear" x1="120.052" y1="151.512" x2="120.856" y2="171.583" gradientUnits="userSpaceOnUse">
<stop stop-color="white"/>
<stop offset="1" stop-color="#94B9FF"/>
</linearGradient>
<linearGradient id="paint3_linear" x1="101.495" y1="156.543" x2="131.653" y2="349.081" gradientUnits="userSpaceOnUse">
<stop stop-color="white"/>
<stop offset="1" stop-color="#94B9FF"/>
</linearGradient>
<linearGradient id="paint4_linear" x1="137.68" y1="160.928" x2="146.508" y2="246.125" gradientUnits="userSpaceOnUse">
<stop stop-color="white"/>
<stop offset="1" stop-color="#94B9FF"/>
</linearGradient>
</defs>
</svg>
