<svg width="486" height="356" viewBox="0 0 486 356" fill="none" xmlns="http://www.w3.org/2000/svg">
<path d="M47.22 83.7401H8.03C3.6 83.7401 0 80.1501 0 75.7101V37.0701C0 33.6101 2.8 30.8101 6.26 30.8101H47.21C50.67 30.8101 53.47 33.6101 53.47 37.0701V77.4801C53.48 80.9301 50.68 83.7401 47.22 83.7401Z" fill="#F24774"/>
<path d="M23.15 66.8301C27.63 66.9101 32.16 66.9701 36.28 66.6801C37.58 66.5901 38.71 64.5201 37.13 63.8701C37.8 63.5301 38.47 63.2001 38.76 62.4501C39.04 61.7401 38.7 60.7801 37.97 60.6001C39.52 60.9801 40.14 58.5201 38.92 57.7201C39.56 57.1701 40.09 56.4501 40.23 55.6201C40.37 54.7901 40.02 53.8501 39.29 53.4501C38.81 53.1901 38.23 53.1801 37.68 53.1701C35.82 53.1601 33.96 53.1401 32.09 53.1301C32.59 50.2201 32.75 47.0401 31.27 44.4801C30.82 43.7101 29.63 42.7801 28.67 43.3801C27.78 43.9401 28.03 45.3201 28.07 46.1901C28.26 49.8101 26.19 53.4601 22.99 55.1701C22.98 55.1701 23.2 62.8901 23.15 66.8301Z" fill="#FEFEFE"/>
<path d="M21.53 55.1702H14.76V66.8202H21.53V55.1702Z" fill="#FEFEFE"/>
<path d="M442.26 42.61H389.51V4.01C389.51 1.8 391.3 0 393.52 0H442.27C444.48 0 446.28 1.79 446.28 4.01V38.6C446.26 40.82 444.47 42.61 442.26 42.61Z" fill="#FFB64D"/>
<path d="M389.53 29.8201L389.47 49.8201L406.54 29.8801L389.53 29.8201Z" fill="#FFB64D"/>
<path d="M436.81 21.05H400V22.0601H436.81V21.05Z" fill="white"/>
<path d="M436.81 12.5601H400V13.5701H436.81V12.5601Z" fill="white"/>
<path d="M412.94 28.3601H400V29.3701H412.94V28.3601Z" fill="white"/>
<path d="M478.28 169.55H446.38C442.12 169.55 438.67 166.1 438.67 161.84C438.67 157.58 442.12 154.13 446.38 154.13H478.28C482.54 154.13 485.99 157.58 485.99 161.84C485.99 166.1 482.54 169.55 478.28 169.55Z" fill="#F24774"/>
<path d="M453.958 163.891C455.07 163.654 455.78 162.56 455.543 161.447C455.306 160.334 454.212 159.624 453.099 159.861C451.987 160.098 451.277 161.193 451.514 162.305C451.751 163.418 452.845 164.128 453.958 163.891Z" fill="white"/>
<path d="M464.39 161.84C464.39 162.98 463.48 163.9 462.34 163.9C461.2 163.9 460.28 162.99 460.28 161.85C460.28 160.71 461.19 159.79 462.33 159.79C463.47 159.78 464.39 160.7 464.39 161.84Z" fill="white"/>
<path d="M473.22 161.81C473.22 162.95 472.31 163.87 471.17 163.87C470.03 163.87 469.11 162.96 469.11 161.82C469.11 160.68 470.02 159.76 471.16 159.76C472.29 159.76 473.22 160.67 473.22 161.81Z" fill="white"/>
<path d="M364.63 126.88L330.07 155.76C324.76 160.2 323.87 168.01 328.04 173.53C332.04 178.82 339.38 180.24 345.06 176.83L381.16 155.17L364.63 126.88Z" fill="#F49A82"/>
<path d="M367.34 118.83L353.74 130.63L379.01 162.37L389 154.76C392.09 152.41 393.08 148.2 391.38 144.72L379.99 121.41C377.63 116.6 371.37 115.33 367.34 118.83Z" fill="#4629EF"/>
<path d="M342.22 153.31L286.45 136.79L284.87 152.61L332.84 177.48C339.25 180.41 346.83 177.68 349.91 171.34C353.37 164.24 349.74 155.73 342.22 153.31Z" fill="#F49A82"/>
<path d="M288.78 134.62C286.39 131.04 283.42 126.83 282.13 125.13C281.39 124.16 280.1 123.8 278.96 124.23C277.58 124.76 276.87 126.27 277.33 127.67L279.07 131.77L265.09 125.58C264.07 125.13 262.83 125.41 262.22 126.33C261.51 127.41 261.85 128.83 262.92 129.48L265.02 131.08L262.81 130.1C261.85 129.67 260.66 129.96 260.12 130.86C259.49 131.9 259.88 133.23 260.92 133.77L262.32 134.56C261.02 134.14 259.79 134.45 259.4 135.33C258.93 136.31 259.33 137.48 260.29 137.97L262.29 138.86C260.29 137.97 259.54 138.73 259.24 139.41C258.82 140.34 259.21 141.44 260.11 141.91L268.78 147.94C270.66 149.25 272.72 150.25 274.91 150.9C277.91 151.79 282.15 152.84 284.89 152.61L289.69 143.62C289.67 143.62 292.64 140.39 288.78 134.62Z" fill="#FFAB91"/>
<path d="M318.74 327.8V44.9901V40.9801C318.74 27.6401 307.92 16.8101 294.57 16.8101H168.91C155.56 16.8101 144.74 27.6401 144.74 40.9801V44.9901V331.82C144.74 345.17 155.56 355.99 168.91 355.99H294.57C304.54 355.99 313.09 349.96 316.78 341.35C318.04 338.43 318.74 335.21 318.74 331.83V327.8Z" fill="#1F2D49"/>
<path d="M207.94 32.9901C207.94 34.1601 206.99 35.1101 205.82 35.1101C204.65 35.1101 203.7 34.1601 203.7 32.9901C203.7 31.8201 204.65 30.8701 205.82 30.8701C206.99 30.8701 207.94 31.8201 207.94 32.9901Z" fill="white"/>
<path d="M253.37 34.9601H214.09C212.96 34.9601 212.04 34.0401 212.04 32.9101C212.04 31.7801 212.96 30.8601 214.09 30.8601H253.37C254.5 30.8601 255.42 31.7801 255.42 32.9101C255.42 34.0501 254.5 34.9601 253.37 34.9601Z" fill="white"/>
<path d="M231.74 346.97C236.346 346.97 240.08 343.236 240.08 338.63C240.08 334.024 236.346 330.29 231.74 330.29C227.134 330.29 223.4 334.024 223.4 338.63C223.4 343.236 227.134 346.97 231.74 346.97Z" fill="white"/>
<path d="M309.79 47.0701H153.69V321.57H309.79V47.0701Z" fill="white"/>
<path d="M183.9 130.34L187.37 137.36L195.12 138.48L189.51 143.95L190.84 151.67L183.9 148.02L176.97 151.67L178.3 143.95L172.69 138.48L180.44 137.36L183.9 130.34Z" fill="#FFB64D"/>
<path d="M215.04 130.34L218.51 137.36L226.26 138.48L220.65 143.95L221.97 151.67L215.04 148.02L208.11 151.67L209.43 143.95L203.82 138.48L211.57 137.36L215.04 130.34Z" fill="#FFB64D"/>
<path d="M246.18 130.34L249.64 137.36L257.39 138.48L251.78 143.95L253.11 151.67L246.18 148.02L239.24 151.67L240.57 143.95L234.96 138.48L242.71 137.36L246.18 130.34Z" fill="#FFB64D"/>
<path d="M277.31 130.34L280.78 137.36L288.53 138.48L282.92 143.95L284.24 151.67L277.31 148.02L270.38 151.67L271.7 143.95L266.09 138.48L273.84 137.36L277.31 130.34Z" fill="#DEE7EC"/>
<path d="M247.76 181.44H173.73C169.64 181.44 166.32 178.12 166.32 174.03C166.32 169.94 169.64 166.62 173.73 166.62H247.76C251.84 166.62 255.17 169.94 255.17 174.03C255.17 178.12 251.85 181.44 247.76 181.44ZM173.73 168.11C170.47 168.11 167.81 170.76 167.81 174.03C167.81 177.29 170.46 179.95 173.73 179.95H247.76C251.02 179.95 253.68 177.3 253.68 174.03C253.68 170.77 251.03 168.11 247.76 168.11H173.73Z" fill="#DEE7EC"/>
<path d="M288.32 295.78H174.36C170.04 295.78 166.52 292.26 166.52 287.94V271.51C166.52 267.19 170.04 263.67 174.36 263.67H288.32C292.64 263.67 296.16 267.19 296.16 271.51V287.94C296.16 292.26 292.64 295.78 288.32 295.78ZM174.36 265.27C170.91 265.27 168.11 268.07 168.11 271.52V287.95C168.11 291.4 170.91 294.2 174.36 294.2H288.32C291.77 294.2 294.57 291.4 294.57 287.95V271.52C294.57 268.07 291.77 265.27 288.32 265.27H174.36Z" fill="#DEE7EC"/>
<path d="M175.18 57.8699C175.18 59.7599 173.64 61.2999 171.75 61.2999C169.86 61.2999 168.32 59.7599 168.32 57.8699C168.32 55.9799 169.86 54.4399 171.75 54.4399C173.64 54.4399 175.18 55.9799 175.18 57.8699Z" fill="#FFB64D"/>
<path d="M186.59 57.8699C186.59 59.7599 185.05 61.2999 183.16 61.2999C181.27 61.2999 179.73 59.7599 179.73 57.8699C179.73 55.9799 181.27 54.4399 183.16 54.4399C185.05 54.4399 186.59 55.9799 186.59 57.8699Z" fill="#5F3AFC"/>
<path d="M198 57.8699C198 59.7599 196.46 61.2999 194.57 61.2999C192.68 61.2999 191.14 59.7599 191.14 57.8699C191.14 55.9799 192.68 54.4399 194.57 54.4399C196.46 54.4399 198 55.9799 198 57.8699Z" fill="#F24774"/>
<path d="M310.11 67.03H153.69V68.52H310.11V67.03Z" fill="#DEE7EC"/>
<path d="M283.16 86.46H220.64V87.95H283.16V86.46Z" fill="#DEE7EC"/>
<path d="M283.16 98.8899H220.64V100.38H283.16V98.8899Z" fill="#DEE7EC"/>
<path d="M241.98 111.32H220.64V112.81H241.98V111.32Z" fill="#DEE7EC"/>
<path d="M288.88 250.92H174.93C171.04 250.92 167.89 247.77 167.89 243.88V202.38C167.89 198.49 171.04 195.34 174.93 195.34H288.89C292.78 195.34 295.93 198.49 295.93 202.38V243.88C295.93 247.76 292.77 250.92 288.88 250.92Z" fill="#FFB64D"/>
<path d="M193.43 236.07C200.416 236.07 206.08 230.406 206.08 223.42C206.08 216.433 200.416 210.77 193.43 210.77C186.443 210.77 180.78 216.433 180.78 223.42C180.78 230.406 186.443 236.07 193.43 236.07Z" fill="white"/>
<path d="M282.11 213.77H213.91C213.5 213.77 213.16 213.44 213.16 213.02C213.16 212.6 213.49 212.27 213.91 212.27H282.11C282.52 212.27 282.86 212.6 282.86 213.02C282.86 213.44 282.52 213.77 282.11 213.77Z" fill="#FDFEFF"/>
<path d="M282.11 223.32H213.91C213.5 223.32 213.16 222.99 213.16 222.57C213.16 222.15 213.49 221.82 213.91 221.82H282.11C282.52 221.82 282.86 222.15 282.86 222.57C282.86 222.99 282.52 223.32 282.11 223.32Z" fill="#FDFEFF"/>
<path d="M226.57 232.88H213.91C213.5 232.88 213.16 232.55 213.16 232.13C213.16 231.71 213.49 231.38 213.91 231.38H226.57C226.98 231.38 227.32 231.71 227.32 232.13C227.32 232.55 226.98 232.88 226.57 232.88Z" fill="#FDFEFF"/>
<path d="M369.55 316.68L370.47 331.57H387.76L386.89 315.89L369.55 316.68Z" fill="#FFAB91"/>
<path d="M369.81 320.98L387.25 322.37L387.08 319.33L369.7 319.23L369.81 320.98Z" fill="#F49A82"/>
<path d="M369.81 320.98L387.25 322.37L387.08 319.33L369.7 319.23L369.81 320.98Z" fill="#F49A82"/>
<path d="M365.21 329.66H391.48L395.12 355.44H347.6C344.93 355.44 343.99 351.9 346.31 350.57L365.77 339.48L365.21 329.66Z" fill="#5F3AFC"/>
<path d="M393.96 350.47H345.76V351.32H393.96V350.47Z" fill="#FEFEFE"/>
<path d="M358.805 343.175L358.5 343.968L364.664 346.33L364.968 345.536L358.805 343.175Z" fill="#FEFEFE"/>
<path d="M363.276 340.812L362.972 341.606L369.135 343.967L369.439 343.173L363.276 340.812Z" fill="#FEFEFE"/>
<path d="M382.65 345.49C380.46 345.49 378.68 343.71 378.68 341.52C378.68 339.33 380.46 337.55 382.65 337.55C384.84 337.55 386.62 339.33 386.62 341.52C386.62 343.71 384.84 345.49 382.65 345.49ZM382.65 338.4C380.93 338.4 379.53 339.8 379.53 341.52C379.53 343.24 380.93 344.64 382.65 344.64C384.37 344.64 385.77 343.24 385.77 341.52C385.77 339.8 384.37 338.4 382.65 338.4Z" fill="#FEFEFE"/>
<path d="M358.08 189.34L363.91 319.19L393 319.37L388.88 192.76L358.08 189.34Z" fill="#1F2D49"/>
<path d="M403.57 316.44L405.41 331.33H422.7L420.92 315.65L403.57 316.44Z" fill="#FFAB91"/>
<path d="M404.13 320.94L421.67 322.31L421.33 319.28H403.92L404.13 320.94Z" fill="#F49A82"/>
<path d="M404.13 320.94L421.67 322.31L421.33 319.28H403.92L404.13 320.94Z" fill="#F49A82"/>
<path d="M400.15 329.42H426.42L430.97 355.2H383.45C380.78 355.2 379.84 351.66 382.16 350.33L401.62 339.24L400.15 329.42Z" fill="#5F3AFC"/>
<path d="M429.81 350.23H381.61V351.08H429.81V350.23Z" fill="#FEFEFE"/>
<path d="M394.658 342.94L394.354 343.734L400.517 346.095L400.821 345.301L394.658 342.94Z" fill="#FEFEFE"/>
<path d="M399.113 340.549L398.809 341.343L404.972 343.704L405.276 342.911L399.113 340.549Z" fill="#FEFEFE"/>
<path d="M418.5 345.25C416.31 345.25 414.53 343.47 414.53 341.28C414.53 339.09 416.31 337.31 418.5 337.31C420.69 337.31 422.47 339.09 422.47 341.28C422.48 343.47 420.69 345.25 418.5 345.25ZM418.5 338.16C416.78 338.16 415.38 339.56 415.38 341.28C415.38 343 416.78 344.4 418.5 344.4C420.22 344.4 421.62 343 421.62 341.28C421.62 339.56 420.22 338.16 418.5 338.16Z" fill="#FEFEFE"/>
<path d="M413.59 187.98L426.8 319.28H397.21L373.89 186.09L413.59 187.98Z" fill="#1F2D49"/>
<path d="M397 319.38L376.72 213.03L368.3 205.99L368.96 205.2L377.67 212.48L398.01 319.18L397 319.38Z" fill="#0E1726"/>
<path d="M377.91 114.01C377.91 114.01 362.28 113.02 361.38 135.05C360.47 157.08 357.47 190.36 357.47 190.36L416.27 194.56L413.59 144.11C413.59 144.11 412.44 106.63 377.91 114.01Z" fill="#5F3AFC"/>
<path d="M301.4 97.6499L307.03 109.06L319.63 110.89L310.51 119.78L312.66 132.33L301.4 126.4L290.13 132.33L292.28 119.78L283.16 110.89L295.76 109.06L301.4 97.6499Z" fill="#FFB64D"/>
<path d="M363.97 170.5L316.85 136.39L310.11 150.79L347.1 190.19C352.18 195.08 360.23 195.03 365.24 190.07C370.86 184.51 370.26 175.28 363.97 170.5Z" fill="#FFAB91"/>
<path d="M319.78 135.12C318.71 130.95 317.31 125.99 316.65 123.96C316.27 122.8 315.18 122.03 313.96 122.06C312.49 122.1 311.31 123.29 311.28 124.76L311.56 129.2L300.43 118.72C299.62 117.96 298.36 117.81 297.47 118.48C296.44 119.26 296.29 120.71 297.08 121.68L298.53 123.88L296.77 122.22C296 121.5 294.79 121.37 293.98 122.04C293.04 122.81 292.97 124.19 293.77 125.05L294.83 126.26C293.74 125.43 292.49 125.31 291.82 126.02C291.06 126.79 291.04 128.02 291.78 128.81L293.37 130.31C291.78 128.81 290.82 129.28 290.31 129.81C289.61 130.55 289.6 131.71 290.3 132.46L296.47 141.03C297.81 142.89 299.42 144.52 301.27 145.86C303.8 147.7 307.45 150.09 310.12 150.78L317.63 143.89C317.63 143.9 321.5 141.84 319.78 135.12Z" fill="#FFAB91"/>
<path d="M375.61 137.51L347.25 172.49C342.89 177.86 343.52 185.71 348.67 190.32C353.61 194.74 361.09 194.73 366.01 190.29L397.28 162.1L375.61 137.51Z" fill="#FFAB91"/>
<path d="M368.77 145.94L388.49 169.91L392.56 166.35L368.77 145.94Z" fill="#F49A82"/>
<path d="M376.72 129.08L365.64 143.27L396.53 169.57L404.87 160.18C407.45 157.28 407.62 152.96 405.27 149.87L389.62 129.19C386.4 124.92 380.01 124.87 376.72 129.08Z" fill="#5F3AFC"/>
<path d="M368.52 146.28L365.45 143.93L376.68 129.36L377.67 130.13L367.22 143.7L369.28 145.29L368.52 146.28Z" fill="#4026DB"/>
<path d="M392.97 166.83L392.17 165.86C392.35 165.71 409.98 150.88 410.73 136.35L411.99 136.41C411.2 151.51 393.71 166.21 392.97 166.83Z" fill="#4026DB"/>
<path d="M388.86 113.14C388.83 112.68 388.74 112.22 388.57 111.79L382.36 95.4299L366.2 100.25L369.38 116.66C371.75 124.57 388.8 113.18 388.86 113.14Z" fill="#FFAB91"/>
<path d="M382.75 86.3299C382.75 86.3299 388.24 69.3699 377.23 70.4699C370.66 71.1299 368.33 69.5999 359.9 68.8199C350.15 67.9199 340.31 81.0399 356.1 87.6699L375.76 77.9499L382.75 86.3299Z" fill="#4D2D3C"/>
<path d="M364.45 92.8899C365 95.5099 363.32 98.0799 360.7 98.6199C358.08 99.1699 355.51 97.4899 354.97 94.8699C354.42 92.2499 356.1 89.6799 358.72 89.1399C361.34 88.5899 363.9 90.2699 364.45 92.8899Z" fill="#F49A82"/>
<path d="M368.4 111.67L379.58 101.84L366.97 104.31L368.4 111.67Z" fill="#4D2D3C"/>
<path d="M375.51 105.35L370.47 106.4C364.62 107.62 358.92 103.76 357.89 97.8698L355.75 85.6298C354.65 79.3498 358.73 73.3298 364.98 72.0298C371.37 70.6998 378.75 74.5598 380.09 80.9498L382.37 95.4298C383.08 100.03 380.07 104.4 375.51 105.35Z" fill="#FFAB91"/>
<path d="M378.93 90.3799L383.07 97.2899L382.46 88.9399L378.93 90.3799Z" fill="#4D2D3C"/>
<path d="M363.78 97.3998C363.71 97.3998 363.64 97.3798 363.59 97.3298C363.52 97.2698 363.47 97.1898 363.47 97.0998L363.34 94.5398C363.33 94.3698 363.46 94.2198 363.64 94.2098C363.84 94.1998 363.96 94.3298 363.97 94.5098L364.09 96.6998L365.25 96.4598C365.42 96.4298 365.59 96.5298 365.62 96.6998C365.66 96.8698 365.55 97.0398 365.38 97.0698L363.86 97.3898C363.82 97.3998 363.8 97.3998 363.78 97.3998Z" fill="#4D2D3C"/>
<path d="M368.88 86.4398C368.88 86.4398 366.24 86.5898 366.47 87.9698C366.47 87.9698 366.64 88.8998 368.94 88.7198C371.23 88.5298 371.78 88.2198 371.83 87.3098C371.87 86.3898 370.1 86.2498 368.88 86.4398Z" fill="#4D2D3C"/>
<path d="M359.07 88.4098C359.07 88.4098 361.15 87.7698 361.57 89.0398C361.57 89.0398 361.83 89.8998 360 90.4098C358.17 90.9198 357.5 90.6998 357.19 90.0298C356.84 89.2498 358.06 88.5998 359.07 88.4098Z" fill="#4D2D3C"/>
<path d="M363.8 99.0098L370.97 97.5098C370.97 97.5098 371.51 100.01 367.35 100.89C364.59 101.47 363.8 99.0098 363.8 99.0098Z" fill="white"/>
<path d="M361.34 92.5498C361.43 93.0998 361.05 93.6198 360.5 93.6998C359.95 93.7898 359.43 93.4098 359.35 92.8598C359.26 92.3098 359.64 91.7898 360.19 91.7098C360.74 91.6298 361.25 91.9998 361.34 92.5498Z" fill="#4D2D3C"/>
<path d="M369.4 91.1498C369.49 91.6998 369.11 92.2198 368.56 92.2998C368.01 92.3898 367.49 92.0098 367.41 91.4598C367.32 90.9098 367.7 90.3898 368.25 90.3098C368.8 90.2198 369.31 90.5998 369.4 91.1498Z" fill="#4D2D3C"/>
<path d="M380.57 88.94C380.57 88.94 371.61 86.89 372.61 79.55C372.61 79.55 359.4 76.35 355.37 83.81L351.86 71.76L369.24 70.96L381.78 72.88L382.75 86.33L380.57 88.94Z" fill="#4D2D3C"/>
<path d="M387.5 88.0799C388.05 90.6999 386.37 93.2699 383.75 93.8099C381.13 94.3599 378.56 92.6799 378.02 90.0599C377.47 87.4399 379.15 84.8699 381.77 84.3299C384.39 83.7799 386.95 85.4599 387.5 88.0799Z" fill="#FFAB91"/>
<path d="M381.4 91.1399C381.25 91.1399 381.12 91.0399 381.09 90.8899C381.08 90.8199 380.75 89.1699 381.65 88.0099C382.17 87.3399 382.98 86.9699 384.07 86.9299H384.08C384.25 86.9299 384.39 87.0599 384.39 87.2299C384.4 87.3999 384.26 87.5499 384.09 87.5599C383.2 87.5999 382.55 87.8799 382.14 88.3999C381.41 89.3399 381.7 90.7499 381.7 90.7699C381.74 90.9399 381.63 91.1099 381.46 91.1399C381.44 91.1399 381.42 91.1399 381.4 91.1399Z" fill="#4D2D3C"/>
<path d="M118.28 329.42H94L91.44 355.2H130.99C133.66 355.2 134.6 351.66 132.28 350.33L117.8 339.24L118.28 329.42Z" fill="#5F3AFC"/>
<path d="M132.85 350.23H92.62V351.08H132.85V350.23Z" fill="#FEFEFE"/>
<path d="M124.229 343.9L120.607 345.29L120.911 346.083L124.534 344.694L124.229 343.9Z" fill="#FEFEFE"/>
<path d="M120.611 341.217L116.139 342.932L116.443 343.726L120.915 342.011L120.611 341.217Z" fill="#FEFEFE"/>
<path d="M102.92 345.25C100.73 345.25 98.95 343.47 98.95 341.28C98.95 339.09 100.73 337.31 102.92 337.31C105.11 337.31 106.89 339.09 106.89 341.28C106.89 343.47 105.11 345.25 102.92 345.25ZM102.92 338.16C101.2 338.16 99.8 339.56 99.8 341.28C99.8 343 101.2 344.4 102.92 344.4C104.64 344.4 106.04 343 106.04 341.28C106.04 339.56 104.64 338.16 102.92 338.16Z" fill="#FEFEFE"/>
<path d="M115.16 316.44L114.32 331.33H97.04L97.82 315.65L115.16 316.44Z" fill="#FFAB91"/>
<path d="M97.51 321.87L114.78 323.21L115 320.23H97.59L97.51 321.87Z" fill="#F49A82"/>
<path d="M106.95 190.89L121.74 250.47C123.27 256.25 123.47 258.17 123.14 264.14L119.55 320.22H92.19V262.17L72.57 198.1L106.95 190.89Z" fill="#1F2D49"/>
<path d="M31.34 316.44L28.19 331.33H45.48L48.68 315.65L31.34 316.44Z" fill="#FFAB91"/>
<path d="M30.18 321.95L47.13 323.23L47.73 320.29H30.53L30.18 321.95Z" fill="#F49A82"/>
<path d="M26.22 329.42H48.51L45.09 355.2H8.54002C5.87002 355.2 4.93002 351.66 7.25002 350.33L22.72 339.24L26.22 329.42Z" fill="#5F3AFC"/>
<path d="M45.7001 350.23H6.68005V351.08H45.7001V350.23Z" fill="#FEFEFE"/>
<path d="M15.6541 344.011L15.35 344.805L18.6183 346.057L18.9224 345.264L15.6541 344.011Z" fill="#FEFEFE"/>
<path d="M19.3519 341.381L19.0478 342.175L23.0818 343.72L23.3859 342.927L19.3519 341.381Z" fill="#FEFEFE"/>
<path d="M36.61 345.25C34.42 345.25 32.64 343.47 32.64 341.28C32.64 339.09 34.42 337.31 36.61 337.31C38.8 337.31 40.58 339.09 40.58 341.28C40.58 343.47 38.8 345.25 36.61 345.25ZM36.61 338.16C34.89 338.16 33.49 339.56 33.49 341.28C33.49 343 34.89 344.4 36.61 344.4C38.33 344.4 39.73 343 39.73 341.28C39.73 339.56 38.33 338.16 36.61 338.16Z" fill="#FEFEFE"/>
<path d="M56.47 190.89L26.48 320.29H54.99L98.73 190.89H56.47Z" fill="#1F2D49"/>
<path d="M84.2801 234.92L83.3101 234.57L87.8701 221.86L97.6601 215.82L98.2001 216.69L88.7201 222.54L84.2801 234.92Z" fill="#0E1726"/>
<path d="M144.88 158.93L159.32 115.57L170.22 121.67L164.67 163.76C163.67 169.21 158.51 172.87 153.03 172C146.9 171.02 143.06 164.85 144.88 158.93Z" fill="#FFAB91"/>
<path d="M157.73 110.21C158.05 106.29 158.55 101.62 158.83 99.6898C158.99 98.5898 159.86 97.7298 160.96 97.5698C162.29 97.3798 163.54 98.2698 163.79 99.5898L164.22 103.63L172.63 92.4898C173.24 91.6798 174.36 91.3498 175.26 91.8198C176.31 92.3698 176.67 93.6498 176.1 94.6398L175.13 96.8398L176.46 95.0698C177.04 94.2998 178.11 93.9998 178.95 94.4798C179.92 95.0298 180.19 96.2598 179.6 97.1598L178.83 98.4098C179.68 97.4998 180.8 97.1998 181.5 97.7298C182.3 98.2998 182.51 99.4098 181.97 100.23L180.77 101.83C181.97 100.23 182.91 100.51 183.45 100.91C184.2 101.47 184.38 102.51 183.86 103.29L179.62 111.95C178.7 113.82 177.5 115.54 176.04 117.03C174.04 119.07 171.12 121.78 168.83 122.82L161.01 117.77C161.01 117.79 157.21 116.53 157.73 110.21Z" fill="#FFAB91"/>
<path d="M122.33 143.2L156.46 152.52C161.7 153.95 164.9 159.24 163.73 164.55C162.61 169.64 157.83 173.06 152.65 172.48L113.77 166.9L122.33 143.2Z" fill="#FFAB91"/>
<path d="M110.56 137.29L113.21 138.27L132.54 142.59L128.55 172.45L108.03 169.17C105.06 168.5 102.97 165.82 103.05 162.77L103.56 142.39C103.67 138.19 106.53 136.11 110.56 137.29Z" fill="#5F3AFC"/>
<path d="M132.1 145.87L135.03 146.67L128.86 169.08" fill="#F49A82"/>
<path d="M200.85 116.1H169.74C166.22 116.1 163.37 113.25 163.37 109.73V79.0598C163.37 76.3098 165.6 74.0898 168.34 74.0898H200.85C203.6 74.0898 205.82 76.3198 205.82 79.0598V111.13C205.82 113.88 203.59 116.1 200.85 116.1Z" fill="#F24774"/>
<path d="M192.68 89.4599C190.77 87.5899 187.71 87.6199 185.84 89.5299L184.61 90.7899L183.34 89.5399C181.44 87.6599 178.37 87.6899 176.5 89.5899C174.63 91.4899 174.65 94.5599 176.55 96.4299L181.26 101.07C181.27 101.08 181.28 101.09 181.29 101.1C182.04 101.84 182.97 102.28 183.94 102.42C185.43 102.65 187 102.18 188.14 101.02L192.77 96.2899C194.62 94.3899 194.59 91.3299 192.68 89.4599Z" fill="white"/>
<path d="M118.21 156.64L111.58 203.39L56.47 190.89C56.47 190.89 67.52 140.87 86.84 133.41L89.97 133.91L104.77 136.54C112.95 138.55 118.14 148.22 118.21 156.64Z" fill="#5F3AFC"/>
<path d="M116.87 170.56L115.63 170.38C117.93 154.16 114.91 146.12 114.87 146.04L116.04 145.58C116.18 145.93 119.22 154.02 116.87 170.56Z" fill="#4026DB"/>
<path d="M71.28 160.67L30.7 171.55C25.46 172.97 20.02 170.03 18.34 164.86C16.73 159.91 19.11 154.54 23.87 152.41L66.64 135.89L71.28 160.67Z" fill="#FFAB91"/>
<path d="M52.85 141.11L58.51 164.05L62.09 163.04L52.85 141.11Z" fill="#F49A82"/>
<path d="M37.9 159.55L54.56 192.96L44.66 201.28L19.72 167.95C18.29 166.03 17.52 163.65 17.79 161.27C18.23 157.45 20.62 153.84 24.24 152.42C30.02 150.15 36.46 153.52 37.9 159.55Z" fill="#FFAB91"/>
<path d="M63.1901 191.53C57.4701 193.04 51.9901 195.53 46.8701 198.75C48.0401 200.11 49.4601 201.47 50.6401 202.53C52.0801 203.82 53.71 204.86 55.48 205.63L63.6401 209.19C64.3801 209.63 65.3401 209.42 65.8201 208.71C66.1701 208.19 66.39 207.32 64.87 206.27L66.3901 207.32C67.1701 207.79 68.1901 207.55 68.6801 206.79C69.1401 206.12 68.8201 205.1 67.9401 204.35L69.12 205.01C69.97 205.52 71.1001 205.22 71.5701 204.3C71.9701 203.51 71.6601 202.53 70.9201 202.03L69.2401 200.88L71.3101 201.68C72.2501 202.16 73.4201 201.78 73.8801 200.79C74.2801 199.94 73.9301 198.92 73.1501 198.39L63.1901 191.53Z" fill="#FFAB91"/>
<path d="M57.29 203.73C57.29 203.73 53.21 210.81 44.67 201.27L53.57 191.95L62.26 186.94C63.07 186.47 64.09 186.63 64.72 187.31C65.34 187.97 65.43 188.96 64.96 189.72L63.42 192.22" fill="#FFAB91"/>
<path d="M63.1901 191.53C57.4701 193.04 51.9901 195.53 46.8701 198.75C48.0401 200.11 49.4601 201.47 50.6401 202.53C52.0801 203.82 53.71 204.86 55.48 205.63L63.6401 209.19C64.3801 209.63 65.3401 209.42 65.8201 208.71C66.1701 208.19 66.39 207.32 64.87 206.27L66.3901 207.32C67.1701 207.79 68.1901 207.55 68.6801 206.79C69.1401 206.12 68.8201 205.1 67.9401 204.35L69.12 205.01C69.97 205.52 71.1001 205.22 71.5701 204.3C71.9701 203.51 71.6601 202.53 70.9201 202.03L69.2401 200.88L71.3101 201.68C72.2501 202.16 73.4201 201.78 73.8801 200.79C74.2801 199.94 73.9301 198.92 73.1501 198.39L63.1901 191.53Z" fill="#FFAB91"/>
<path d="M57.29 203.73C57.29 203.73 53.21 210.81 44.67 201.27L53.57 191.95L62.26 186.94C63.07 186.47 64.09 186.63 64.72 187.31C65.34 187.97 65.43 188.96 64.96 189.72L63.42 192.22" fill="#FFAB91"/>
<path d="M52.04 138.93L64.11 167.59L84.86 159.82C93.12 156.73 96.97 147.23 93.21 139.26C89.96 132.37 82.07 128.99 74.83 131.38L52.04 138.93Z" fill="#5F3AFC"/>
<path d="M84.8367 157.728L63.5049 166.139L63.967 167.311L85.2988 158.9L84.8367 157.728Z" fill="#4026DB"/>
<path d="M122.26 95.1798C121.28 94.8698 104.16 87.4098 96.3501 96.2598C89.9601 103.51 91.0501 117.71 100.76 124.17C110.01 130.32 114.15 96.7998 114.15 96.7998L122.26 95.1798Z" fill="#4D2D3C"/>
<path d="M111.12 137.43L113.6 128.69L103.6 120.16L94.71 134.52L89.97 133.91C89.97 133.91 89.85 144.7 103.69 146.62C115.13 148.21 113.21 138.26 113.21 138.26L111.12 137.43Z" fill="#FFAB91"/>
<path d="M96.4768 119.057C99.5585 113.109 97.2346 105.788 91.2864 102.707C85.3382 99.6252 78.018 101.949 74.9364 107.897C71.8547 113.845 74.1786 121.166 80.1268 124.247C86.075 127.329 93.3952 125.005 96.4768 119.057Z" fill="#4D2D3C"/>
<path d="M118.19 115.24C117.38 117.91 118.89 120.73 121.56 121.53C124.23 122.34 127.05 120.83 127.85 118.16C128.66 115.49 127.15 112.67 124.48 111.87C121.82 111.06 119 112.57 118.19 115.24Z" fill="#F49A82"/>
<path d="M111.55 135.97L102.51 121.36L113.95 127.62L111.55 135.97Z" fill="#4D2D3C"/>
<path d="M109.95 129.68C116.27 131.14 122.63 127.35 124 122.23L127.15 110.13C128.86 103.71 125.18 97.0898 118.82 95.1698C112.31 93.1998 104.3 96.5398 102.33 103.05L99.9 112.81C98.02 120.35 102.51 127.43 109.95 129.68Z" fill="#FFAB91"/>
<path d="M118.27 120.15C118.25 120.15 118.23 120.15 118.21 120.14L116.72 119.86C116.55 119.83 116.44 119.67 116.47 119.5C116.5 119.33 116.67 119.22 116.83 119.25L117.99 119.47L118.26 116.87C118.28 116.7 118.43 116.57 118.6 116.59C118.77 116.61 118.89 116.76 118.88 116.93L118.57 119.87C118.56 119.96 118.52 120.04 118.45 120.09C118.4 120.13 118.33 120.15 118.27 120.15Z" fill="#4D2D3C"/>
<path d="M113.41 109.54C113.41 109.54 115.98 109.91 115.77 110.94C115.77 110.94 115.61 111.64 113.38 111.27C111.15 110.91 110.61 110.61 110.56 109.91C110.51 109.22 112.23 109.27 113.41 109.54Z" fill="#4D2D3C"/>
<path d="M123.51 112.13C123.51 112.13 121.48 111.44 121.09 112.37C121.09 112.37 120.84 113 122.63 113.56C124.42 114.12 125.07 114.03 125.36 113.54C125.69 112.99 124.5 112.37 123.51 112.13Z" fill="#4D2D3C"/>
<path d="M121.05 116.31C120.9 116.89 121.24 117.48 121.82 117.64C122.4 117.79 122.99 117.45 123.15 116.87C123.3 116.29 122.96 115.7 122.38 115.54C121.79 115.38 121.2 115.73 121.05 116.31Z" fill="#4D2D3C"/>
<path d="M112.22 113.99C112.07 114.57 112.41 115.16 112.99 115.32C113.57 115.48 114.16 115.13 114.32 114.55C114.47 113.97 114.13 113.38 113.55 113.22C112.96 113.06 112.37 113.41 112.22 113.99Z" fill="#4D2D3C"/>
<path d="M118.71 121.75L111.57 120.12C111.57 120.12 110.98 122.61 115.13 123.57C117.88 124.2 118.71 121.75 118.71 121.75Z" fill="white"/>
<path d="M111.07 103.79C108.36 111.03 102.87 111.92 102.87 111.92L97.98 102.63C97.98 102.62 112.47 100.04 111.07 103.79Z" fill="#4D2D3C"/>
<path d="M94.31 110.06C93.5 112.73 95.01 115.55 97.68 116.35C100.35 117.16 103.17 115.65 103.97 112.98C104.78 110.31 103.27 107.49 100.6 106.69C97.94 105.88 95.12 107.39 94.31 110.06Z" fill="#FFAB91"/>
<path d="M100.4 113.8C100.37 113.8 100.34 113.8 100.31 113.79C100.14 113.74 100.04 113.56 100.09 113.38C100.09 113.37 100.52 111.91 99.85 110.88C99.48 110.31 98.82 109.95 97.91 109.83C97.73 109.81 97.6 109.64 97.63 109.46C97.65 109.28 97.81 109.15 98 109.18C99.12 109.33 99.93 109.78 100.41 110.52C101.24 111.81 100.75 113.49 100.73 113.56C100.67 113.71 100.54 113.8 100.4 113.8Z" fill="#4D2D3C"/>
<path d="M124.75 96.4898C117.21 94.6298 111.69 91.2898 102.53 96.6798L101.15 102.71C101.15 102.71 122.28 111.41 128.25 110.7L130.14 105.47C130.91 103.82 129.96 102.33 129.33 100.62L130.36 100.22C129.58 98.0798 126.95 97.0298 124.75 96.4898Z" fill="#4D2D3C"/>
<path d="M108.31 92.0298C108.31 92.0298 140.48 92.3498 128.25 110.7L113.2 99.9298L108.31 92.0298Z" fill="#4D2D3C"/>
</svg>
